<?xml version="1.0" encoding="UTF-8" standalone="no"?>
<svg
   xmlns:dc="http://purl.org/dc/elements/1.1/"
   xmlns:cc="http://creativecommons.org/ns#"
   xmlns:rdf="http://www.w3.org/1999/02/22-rdf-syntax-ns#"
   xmlns:svg="http://www.w3.org/2000/svg"
   xmlns="http://www.w3.org/2000/svg"
   xmlns:sodipodi="http://sodipodi.sourceforge.net/DTD/sodipodi-0.dtd"
   xmlns:inkscape="http://www.inkscape.org/namespaces/inkscape"
   width="270.73383mm"
   height="222.925mm"
   viewBox="0 0 270.73383 222.925"
   version="1.1"
   id="svg2225"
   inkscape:version="1.0.1 (3bc2e813f5, 2020-09-07)"
   sodipodi:docname="VideoRGT.svg">
  <defs
     id="defs2219">
    <clipPath
       clipPathUnits="userSpaceOnUse"
       id="clipPath1021">
      <path
         style="fill:none;fill-opacity:1;stroke:#000000;stroke-width:1.05012;stroke-linecap:round;stroke-linejoin:round;stroke-miterlimit:4;stroke-dasharray:none;stroke-opacity:1"
         d="m 14.564192,484.57043 c -17.4066793,-0.0645 -25.337827,-0.1551 -25.410754,-0.29034 -0.0583,-0.10813 -0.400866,-0.30538 -0.76124,-0.43831 -0.360375,-0.13293 -0.739104,-0.33974 -0.84162,-0.45958 -0.102519,-0.11982 -0.405042,-0.42879 -0.672273,-0.68658 -0.671433,-0.64769 -1.500806,-1.79666 -1.775543,-2.45973 -0.1263,-0.30482 -0.270395,-0.50279 -0.320211,-0.43994 -0.04981,0.0629 -0.135684,-0.14487 -0.190822,-0.46159 -0.05514,-0.31671 -0.159707,-0.57585 -0.232378,-0.57585 -0.07267,0 -0.09364,-0.12654 -0.0466,-0.28122 0.05373,-0.17665 -0.0015,-0.28122 -0.148602,-0.28122 -0.147068,0 -0.202328,-0.10457 -0.148599,-0.28122 0.04704,-0.15467 0.01361,-0.28123 -0.0743,-0.28123 -0.08791,0 -0.12102,-0.12762 -0.07357,-0.2836 0.04744,-0.15598 0.012,-0.39651 -0.07877,-0.53449 -0.09077,-0.13798 -0.208637,-0.6642 -0.261935,-1.16937 -0.0533,-0.50517 -0.18601,-0.98517 -0.294913,-1.06667 -0.156563,-0.11716 -0.160887,-0.22316 -0.02066,-0.50644 0.137519,-0.27781 0.136961,-0.60493 -0.0024,-1.4567 -0.252547,-1.54264 -0.26053,-57.40601 -0.0084,-58.66939 0.125959,-0.63109 0.127721,-0.94734 0.0067,-1.19192 -0.124933,-0.25239 -0.116495,-0.38348 0.03489,-0.54199 0.109823,-0.115 0.245381,-0.67057 0.30124,-1.23462 0.05586,-0.56404 0.170868,-1.02553 0.255576,-1.02553 0.09142,0 0.11485,-0.1969 0.05765,-0.48441 -0.05784,-0.29075 -0.03941,-0.44 0.0461,-0.37333 0.07835,0.0611 0.186656,-0.14275 0.240666,-0.45299 0.05401,-0.31025 0.145096,-0.56409 0.202414,-0.56409 0.05732,0 0.183317,-0.232 0.279998,-0.51557 0.21069,-0.61794 0.466801,-1.11166 0.818131,-1.57714 0.143028,-0.18949 0.26533,-0.53437 0.271783,-0.76637 0.0064,-0.23201 0.04278,-0.32652 0.08073,-0.21002 0.04134,0.1269 0.260048,-0.0111 0.545522,-0.3442 0.793805,-0.92622 0.909326,-1.03367 1.256678,-1.16886 0.183894,-0.0716 0.334351,-0.20499 0.334351,-0.29648 0,-0.0915 0.234047,-0.22175 0.520103,-0.28946 0.286057,-0.0677 0.520104,-0.20338 0.520104,-0.3015 0,-0.0981 0.117023,-0.16013 0.260051,-0.1378 0.143029,0.0223 0.36086,-0.0157 0.484073,-0.0846 0.4058156,-0.22675 51.710959,-0.0493 51.828879,0.17928 0.05834,0.11302 0.305964,0.26735 0.550338,0.34296 0.244365,0.0756 0.48443,0.21937 0.533472,0.31948 0.04906,0.1001 0.233601,0.19574 0.410141,0.21251 0.176539,0.0168 0.320982,0.0969 0.320982,0.1781 0,0.0812 0.100299,0.14758 0.2229,0.14758 0.122599,0 0.206184,0.0688 0.185754,0.15294 -0.02045,0.0841 0.263765,0.53657 0.631547,1.00546 0.367792,0.46887 0.835883,1.19926 1.04021,1.62308 0.204326,0.42382 0.447661,0.77285 0.540743,0.77562 0.09308,0.003 0.166138,0.1105 0.162341,0.23939 -0.01768,0.60251 0.0552,0.89057 0.225675,0.89091 0.10332,2e-4 0.200835,0.27002 0.219746,0.60799 0.01872,0.33419 0.09519,0.63335 0.169982,0.6648 0.07478,0.0314 0.101834,0.22187 0.06007,0.42316 -0.04175,0.20129 -0.0063,0.36598 0.07824,0.36598 0.08475,0 0.196031,0.56947 0.247267,1.26549 0.05127,0.69603 0.156874,1.41199 0.234733,1.59105 0.08402,0.19323 0.141558,3.91471 0.141558,9.15637 v 8.83084 l 0.482959,-0.51381 c 0.265619,-0.2826 0.463546,-0.62622 0.439831,-0.76361 -0.02406,-0.13951 0.04207,-0.20855 0.149798,-0.15638 0.211609,0.10245 3.682641,-4.19908 3.682641,-4.56375 0,-0.12246 0.06094,-0.20158 0.135362,-0.1758 0.199389,0.0691 8.556586,-10.58437 8.564733,-10.91796 0.0039,-0.15623 0.0914,-0.26127 0.194616,-0.23345 0.103226,0.0278 0.443684,-0.29577 0.756576,-0.71912 0.325206,-0.43999 0.609671,-0.68648 0.664084,-0.5754 0.140848,0.28753 0.114123,59.68472 -0.02697,59.86269 -0.06629,0.0835 -0.482552,-0.28992 -0.925126,-0.82999 -0.442577,-0.54008 -0.857994,-0.96086 -0.923161,-0.93508 -0.06518,0.0258 -0.118488,-0.0618 -0.118488,-0.19454 0,-0.3045 -1.359595,-2.00838 -1.602569,-2.00838 -0.09936,0 -0.163928,-0.0665 -0.143492,-0.14783 0.05598,-0.22267 -2.742024,-3.78796 -2.885146,-3.67636 -0.06825,0.0532 -0.124024,-0.0375 -0.124024,-0.20162 0,-0.16408 -0.150457,-0.37463 -0.334357,-0.46789 -0.18389,-0.0933 -0.27169,-0.1749 -0.195095,-0.18144 0.07658,-0.007 -0.05064,-0.26199 -0.282793,-0.56766 -0.232122,-0.30568 -0.471078,-0.51754 -0.531011,-0.47082 -0.05992,0.0467 -0.145504,-0.0913 -0.190158,-0.30674 -0.04466,-0.21548 -0.15255,-0.33608 -0.239796,-0.26805 -0.08723,0.068 -0.158605,0.0173 -0.158605,-0.11277 0,-0.25378 -5.694352,-7.55888 -6.13214,-7.86672 -0.249343,-0.17533 -0.262042,0.29366 -0.254981,9.41706 0.0047,5.8847 -0.04733,9.64427 -0.133993,9.71185 -0.07776,0.0606 -0.171938,0.68861 -0.209242,1.39546 -0.03853,0.72977 -0.147006,1.34693 -0.251056,1.42806 -0.114335,0.0892 -0.143334,0.30149 -0.07714,0.56472 0.07226,0.28737 0.0537,0.38096 -0.05842,0.29357 -0.09414,-0.0734 -0.164517,1.9e-4 -0.164517,0.17203 0,0.16517 -0.233145,0.84509 -0.518091,1.51092 -0.284954,0.66582 -0.482521,1.2106 -0.439052,1.2106 0.04348,0 -0.07447,0.20278 -0.262066,0.45061 -0.187603,0.24784 -0.606432,0.83842 -0.930725,1.31238 -0.324294,0.47396 -0.644749,0.86174 -0.712127,0.86174 -0.119886,0 -0.319017,0.18428 -0.810358,0.74992 -0.134355,0.15468 -0.282493,0.27024 -0.329192,0.25682 -0.04671,-0.0134 -0.239726,0.0499 -0.428942,0.14061 -0.189214,0.0908 -0.406546,0.16502 -0.482951,0.16502 -0.07643,0 -0.13893,0.0843 -0.13893,0.18749 0,0.10311 -0.184333,0.18747 -0.409631,0.18747 -0.225305,0 -0.609805,0.0633 -0.854461,0.14062 -0.244649,0.0773 -11.831949,0.0984 -25.749562,0.0468 z"
         id="path1023" />
    </clipPath>
    <inkscape:path-effect
       effect="bspline"
       id="path-effect837"
       is_visible="true"
       lpeversion="1"
       weight="33.333333"
       steps="2"
       helper_size="0"
       apply_no_weight="true"
       apply_with_weight="true"
       only_selected="false" />
    <inkscape:path-effect
       effect="bspline"
       id="path-effect841"
       is_visible="true"
       lpeversion="1"
       weight="33.333333"
       steps="2"
       helper_size="0"
       apply_no_weight="true"
       apply_with_weight="true"
       only_selected="false" />
    <inkscape:path-effect
       effect="bspline"
       id="path-effect845"
       is_visible="true"
       lpeversion="1"
       weight="33.333333"
       steps="2"
       helper_size="0"
       apply_no_weight="true"
       apply_with_weight="true"
       only_selected="false" />
    <inkscape:path-effect
       effect="bspline"
       id="path-effect849"
       is_visible="true"
       lpeversion="1"
       weight="33.333333"
       steps="2"
       helper_size="0"
       apply_no_weight="true"
       apply_with_weight="true"
       only_selected="false" />
    <inkscape:path-effect
       effect="bspline"
       id="path-effect889"
       is_visible="true"
       lpeversion="1"
       weight="33.333333"
       steps="2"
       helper_size="0"
       apply_no_weight="true"
       apply_with_weight="true"
       only_selected="false" />
    <inkscape:path-effect
       effect="bspline"
       id="path-effect893"
       is_visible="true"
       lpeversion="1"
       weight="33.333333"
       steps="2"
       helper_size="0"
       apply_no_weight="true"
       apply_with_weight="true"
       only_selected="false" />
    <inkscape:path-effect
       effect="bspline"
       id="path-effect899"
       is_visible="true"
       lpeversion="1"
       weight="33.333333"
       steps="2"
       helper_size="0"
       apply_no_weight="true"
       apply_with_weight="true"
       only_selected="false" />
    <inkscape:path-effect
       effect="bspline"
       id="path-effect909"
       is_visible="true"
       lpeversion="1"
       weight="33.333333"
       steps="2"
       helper_size="0"
       apply_no_weight="true"
       apply_with_weight="true"
       only_selected="false" />
    <inkscape:path-effect
       effect="bspline"
       id="path-effect903"
       is_visible="true"
       lpeversion="1"
       weight="33.333333"
       steps="2"
       helper_size="0"
       apply_no_weight="true"
       apply_with_weight="true"
       only_selected="false" />
    <inkscape:path-effect
       effect="bspline"
       id="path-effect913"
       is_visible="true"
       lpeversion="1"
       weight="33.333333"
       steps="2"
       helper_size="0"
       apply_no_weight="true"
       apply_with_weight="true"
       only_selected="false" />
    <inkscape:path-effect
       effect="bspline"
       id="path-effect917"
       is_visible="true"
       lpeversion="1"
       weight="33.333333"
       steps="2"
       helper_size="0"
       apply_no_weight="true"
       apply_with_weight="true"
       only_selected="false" />
    <inkscape:path-effect
       effect="bspline"
       id="path-effect921"
       is_visible="true"
       lpeversion="1"
       weight="33.333333"
       steps="2"
       helper_size="0"
       apply_no_weight="true"
       apply_with_weight="true"
       only_selected="false" />
  </defs>
  <sodipodi:namedview
     id="base"
     pagecolor="#ffffff"
     bordercolor="#666666"
     borderopacity="1.0"
     inkscape:pageopacity="0.0"
     inkscape:pageshadow="2"
     inkscape:zoom="0.35"
     inkscape:cx="491.27563"
     inkscape:cy="375.77636"
     inkscape:document-units="mm"
     inkscape:current-layer="layer1"
     inkscape:document-rotation="0"
     showgrid="false"
     inkscape:window-width="1920"
     inkscape:window-height="995"
     inkscape:window-x="0"
     inkscape:window-y="24"
     inkscape:window-maximized="1" />
  <metadata
     id="metadata2222">
    <rdf:RDF>
      <cc:Work
         rdf:about="">
        <dc:format>image/svg+xml</dc:format>
        <dc:type
           rdf:resource="http://purl.org/dc/dcmitype/StillImage" />
        <dc:title></dc:title>
      </cc:Work>
    </rdf:RDF>
  </metadata>
  <g
     inkscape:label="Calque 1"
     inkscape:groupmode="layer"
     id="layer1"
     transform="translate(24.150009,-19.722316)">
    <g
       id="g1956"
       transform="matrix(22.774675,0,0,22.774675,-1717.3035,-25472.728)">
      <g
         id="g1046"
         style="stroke:#000000;stroke-width:0;stroke-miterlimit:4;stroke-dasharray:none;stroke-opacity:1"
         transform="matrix(0.07184869,0,0,0.07214829,71.34693,1059.9832)">
        <g
           id="g1040"
           transform="matrix(2.032668,0,0,1.6111282,78.740879,176.25807)"
           clip-path="url(#clipPath1021)"
           style="stroke:#000000;stroke-width:0;stroke-miterlimit:4;stroke-dasharray:none;stroke-opacity:1">
          <g
             id="g3080"
             transform="matrix(1.5327198,0,0,1.5327198,-340.93705,-309.19592)"
             style="stroke:#000000;stroke-width:0;stroke-miterlimit:4;stroke-dasharray:none;stroke-opacity:1">
            <g
               id="g3064"
               transform="matrix(0.79865976,0,0,1,42.184367,0)"
               style="stroke:#000000;stroke-width:0;stroke-miterlimit:4;stroke-dasharray:none;stroke-opacity:1">
              <rect
                 style="fill:#aaaaff;fill-opacity:1;stroke:#000000;stroke-width:0;stroke-linecap:round;stroke-linejoin:round;stroke-miterlimit:4;stroke-dasharray:none;stroke-opacity:1"
                 id="rect833"
                 width="74.579796"
                 height="74.579796"
                 x="209.67174"
                 y="462.10468" />
              <path
                 style="fill:none;stroke:#000000;stroke-width:0;stroke-linecap:butt;stroke-linejoin:miter;stroke-miterlimit:4;stroke-dasharray:none;stroke-opacity:1"
                 d="m 284.29934,474.30146 c -4.31772,-1.8359 -8.63555,-3.67185 -14.10859,-2.77249 -5.47304,0.89935 -12.10095,4.53392 -18.18893,6.22165 -6.08799,1.68773 -11.63575,1.42853 -17.01371,2.32905 -5.37797,0.90052 -10.58578,2.9607 -14.8025,3.58657 -4.21671,0.62588 -7.44215,-0.1826 -10.66777,-0.99113"
                 id="path835"
                 inkscape:path-effect="#path-effect837"
                 inkscape:original-d="m 284.29934,474.30146 c -4.31774,-1.83586 -8.63557,-3.67181 -12.95349,-5.50784 -6.62809,3.6348 -13.25599,7.26938 -19.88413,10.90394 -5.54789,-0.25913 -11.09565,-0.51833 -16.6436,-0.77762 -5.20794,2.06034 -10.41575,4.12054 -15.62375,6.18067 -3.22549,-0.80843 -6.45093,-1.61691 -9.67653,-2.4255" />
              <path
                 style="fill:none;stroke:#000000;stroke-width:0;stroke-linecap:butt;stroke-linejoin:miter;stroke-miterlimit:4;stroke-dasharray:none;stroke-opacity:1"
                 d="m 284.35204,485.9196 c -3.48687,-1.41552 -6.97385,-2.83108 -10.84862,-2.83779 -3.87477,-0.007 -8.13711,1.39546 -12.20745,2.22015 -4.07035,0.82469 -7.94847,1.07187 -11.73774,2.4604 -3.78928,1.38853 -7.48941,3.91832 -11.4577,4.17199 -3.96829,0.25368 -8.20454,-1.76878 -12.99733,-1.87654 -4.79279,-0.10775 -10.14175,1.69922 -15.49088,3.50626"
                 id="path839"
                 inkscape:path-effect="#path-effect841"
                 inkscape:original-d="m 284.35204,485.9196 c -3.48689,-1.41548 -6.97387,-2.83104 -10.46094,-4.24669 -4.26242,1.4023 -8.52476,2.80446 -12.78727,4.20656 -3.8782,0.24727 -7.75632,0.49444 -11.63462,0.74155 -3.7002,2.52996 -7.40033,5.05975 -11.10063,7.58951 -4.23635,-2.02247 -8.47261,-4.04492 -12.70904,-6.06751 -5.3491,1.80714 -10.69806,3.61411 -16.04722,5.42105" />
              <path
                 style="fill:none;stroke:#000000;stroke-width:0;stroke-linecap:butt;stroke-linejoin:miter;stroke-miterlimit:4;stroke-dasharray:none;stroke-opacity:1"
                 d="m 284.32433,500.87503 c -5.09729,-0.38101 -10.19468,-0.76203 -13.89237,0.65411 -3.69768,1.41615 -5.99547,4.62932 -10.07082,4.57574 -4.07535,-0.0536 -9.92812,-3.37392 -13.42375,-4.35621 -3.49564,-0.9823 -4.63389,0.37351 -8.88599,1.47667 -4.25211,1.10316 -11.61784,1.95364 -16.88388,3.69413 -5.26603,1.7405 -8.43201,4.37088 -11.59807,7.00132"
                 id="path843"
                 inkscape:path-effect="#path-effect845"
                 inkscape:original-d="m 284.32433,500.87503 c -5.0973,-0.38093 -10.19469,-0.76194 -15.29216,-1.14306 -2.29779,3.21339 -4.59558,6.42656 -6.8935,9.63972 -5.8529,-3.32037 -11.70566,-6.6407 -17.55863,-9.96118 -1.1382,1.35594 -2.27644,2.71175 -3.41479,4.06749 -7.36595,0.8506 -14.73168,1.70108 -22.09765,2.55148 -3.16603,2.63058 -6.33201,5.26097 -9.49815,7.89131" />
              <path
                 style="fill:none;stroke:#000000;stroke-width:0;stroke-linecap:butt;stroke-linejoin:miter;stroke-miterlimit:4;stroke-dasharray:none;stroke-opacity:1"
                 d="m 284.17348,519.96403 c -4.80908,-1.54751 -9.61827,-3.09505 -14.61097,-2.81341 -4.9927,0.28165 -10.16866,2.39245 -14.50432,2.20564 -4.33567,-0.18681 -7.83084,-2.67125 -11.3671,-2.40785 -3.53626,0.26339 -7.11331,3.27463 -11.14494,4.41087 -4.03162,1.13624 -8.51764,0.39742 -12.40484,0.98384 -3.88719,0.58641 -7.17526,2.49804 -10.46342,4.40971"
                 id="path847"
                 inkscape:path-effect="#path-effect849"
                 inkscape:original-d="m 284.17348,519.96403 c -4.8091,-1.54745 -9.61829,-3.095 -14.42756,-4.64263 -5.17607,2.11097 -10.35203,4.22177 -15.52817,6.33253 -3.49524,-2.48446 -6.99041,-4.9689 -10.48574,-7.45348 -3.57711,3.01144 -7.15416,6.02268 -10.73136,9.0339 -4.48613,-0.73876 -8.97215,-1.47758 -13.45836,-2.2165 -3.28811,1.91179 -6.57618,3.82341 -9.8644,5.73498" />
              <path
                 style="fill:#57de48;fill-opacity:1;stroke:#000000;stroke-width:0;stroke-linecap:butt;stroke-linejoin:miter;stroke-miterlimit:4;stroke-dasharray:none;stroke-opacity:1"
                 d="m 209.61232,493.56407 c -0.0315,-3.82891 -0.063,-7.658 -0.0945,-11.487 0,0 3.35901,1.26419 3.35901,1.26419 2.24704,0.11488 4.49416,0.22977 6.79028,-0.01 2.29611,-0.23963 4.64123,-0.83371 6.81039,-1.45637 2.16916,-0.62265 4.16223,-1.27383 6.84242,-1.79382 2.6802,-0.51999 6.04732,-0.90876 9.37175,-1.39188 3.32443,-0.48311 6.60597,-1.06053 9.8241,-1.99556 3.21812,-0.93503 6.37267,-2.22761 9.15722,-3.38196 2.78454,-1.15434 5.19895,-2.17038 6.40615,-2.6784 1.2072,-0.50802 6.16857,-0.50802 7.35854,-0.27021 1.18997,0.23782 3.56962,0.71339 5.94942,1.18899 0,0 2.91222,1.69133 2.91222,1.69133 0,0 0.0527,12.25623 0.0527,12.25623 0,0 -5.44369,-2.33577 -5.44369,-2.33577 -2.36341,-0.23164 -4.72673,-0.46328 -7.2482,-0.29826 -2.52146,0.16502 -5.20084,0.7267 -7.93272,1.40776 -2.73187,0.68107 -5.51608,1.48149 -7.77784,1.92275 -2.26176,0.44126 -4.00096,0.52334 -6.19106,1.3285 -2.1901,0.80517 -4.83089,2.33337 -7.51647,3.07965 -2.68557,0.74628 -5.41584,0.71059 -8.28472,0.35268 -2.86888,-0.35791 -5.87622,-1.03803 -8.7449,-0.99459 -2.86868,0.0434 -5.59847,0.81045 -8.17537,1.53132 -2.57691,0.72087 -5.00078,1.39556 -7.42475,2.07027"
                 id="path887"
                 inkscape:path-effect="#path-effect889"
                 inkscape:original-d="m 209.61232,493.56407 c -0.0314,-3.82891 -0.0945,-11.487 -0.0945,-11.487 l 3.35901,1.26419 c 0,0 4.49416,0.22986 6.74112,0.34465 2.3453,-0.59401 4.69042,-1.1881 7.03551,-1.7823 1.99323,-0.65112 3.9863,-1.3023 5.97933,-1.95358 3.36734,-0.38871 6.73446,-0.77748 10.10157,-1.16635 3.28176,-0.57735 6.5633,-1.15476 9.84482,-1.73228 3.15476,-1.29254 6.3093,-2.58513 9.46381,-3.87782 2.41459,-1.01599 4.82899,-2.03204 7.24335,-3.04818 h 4.96137 c 2.37993,0.4757 7.13939,1.4268 7.13939,1.4268 l 2.91222,1.69133 0.0527,12.25623 -5.44369,-2.33577 c 0,0 -4.72674,-0.4632 -7.09024,-0.69493 -2.6794,0.56179 -5.35878,1.12347 -8.0383,1.68507 -2.78422,0.80053 -5.56843,1.60095 -8.35278,2.4013 -1.73919,0.0822 -3.4784,0.16424 -5.21773,0.24623 -2.64081,1.52835 -5.2816,3.05656 -7.92254,4.58471 -2.73027,-0.0357 -5.46054,-0.0713 -8.19094,-0.10709 -3.00738,-0.68005 -6.01472,-1.36016 -9.02222,-2.04039 -2.72981,0.76714 -5.4596,1.53415 -8.18953,2.30109 -2.42388,0.6748 -4.84775,1.34948 -7.27175,2.02409"
                 sodipodi:nodetypes="cccccccccccccccccccccccc" />
              <path
                 style="fill:#fff785;fill-opacity:1;stroke:#000000;stroke-width:0;stroke-linecap:butt;stroke-linejoin:miter;stroke-miterlimit:4;stroke-dasharray:none;stroke-opacity:1"
                 d="m 209.73932,500.60213 c 0.007,-2.45576 0.0215,-7.36741 0.0358,-12.279 0,0 4.89848,-0.78668 4.89848,-0.78668 2.97465,0.25916 5.94933,0.51833 8.40621,0.22779 2.45688,-0.29053 4.39591,-1.13072 6.31986,-1.39119 1.92395,-0.26047 3.83266,0.0587 5.66766,0.20388 1.835,0.14515 3.59619,0.11625 5.34616,-0.012 1.74998,-0.12827 3.48864,-0.35588 5.28123,-0.81661 1.7926,-0.46074 3.63902,-1.15456 5.71922,-1.63342 2.0802,-0.47886 4.39403,-0.74274 6.66335,-1.05389 2.26933,-0.31116 4.49404,-0.66957 6.65308,-0.99992 2.15905,-0.33035 4.25232,-0.63262 6.63155,-0.77359 2.37922,-0.14097 5.04415,-0.12063 7.70923,-0.1003 0,0 5.44369,1.60268 5.44369,1.60268 0,0 -0.0277,10.82517 -0.0277,10.82517 0,0 -8.80913,-0.33255 -8.80913,-0.33255 -1.77213,0.29539 -3.54419,0.59077 -5.48996,1.22483 -1.94578,0.63405 -4.06509,1.60674 -5.91472,2.12737 -1.84962,0.52063 -3.42949,0.58917 -5.67781,0.21768 -2.24832,-0.37148 -5.16494,-1.183 -7.47551,-1.74198 -2.31056,-0.55898 -4.01494,-0.8654 -5.30131,-0.97668 -1.28637,-0.11128 -2.15464,-0.0274 -3.13347,0.17189 -0.97883,0.1993 -2.06815,0.51401 -3.55214,0.81951 -1.48399,0.30551 -3.36257,0.60179 -5.7711,2.12602 -2.40853,1.52424 -5.34673,4.27627 -8.57547,4.93422 -3.22875,0.65795 -6.74787,-0.77832 -9.30537,-0.98195 -2.55749,-0.20363 -4.15315,0.82542 -4.95102,1.33998 -0.79787,0.51455 -0.79791,0.51452 -0.79076,-1.94125 z"
                 id="path891"
                 inkscape:path-effect="#path-effect893"
                 inkscape:original-d="m 209.73217,503.0579 c 0.0144,-4.91153 0.0429,-14.73477 0.0429,-14.73477 l 4.89848,-0.78668 c 0,0 5.94932,0.51841 8.92395,0.77749 1.93919,-0.84012 3.87821,-1.68032 5.81718,-2.5206 1.90888,0.31927 3.81759,0.63849 5.72625,0.95764 1.76135,-0.0289 3.52254,-0.0578 5.28368,-0.0867 1.73882,-0.22755 3.47748,-0.45516 5.2161,-0.68284 1.84659,-0.69379 3.69301,-1.3876 5.53939,-2.08151 2.314,-0.26382 4.62783,-0.5277 6.9416,-0.79165 2.22488,-0.35836 4.44959,-0.71677 6.67425,-1.07526 2.09343,-0.30222 4.1867,-0.6045 6.27992,-0.90683 2.66522,0.0204 7.99523,0.061 7.99523,0.061 l 5.44369,1.60268 -0.0277,10.82517 -8.80913,-0.33255 c 0,0 -3.54418,0.59084 -5.3164,0.88618 -2.1193,0.97278 -4.23861,1.94548 -6.35804,2.91812 -1.57986,0.0686 -3.15973,0.13714 -4.73973,0.20561 -2.91665,-0.81147 -5.83327,-1.62299 -8.75004,-2.43458 -1.70436,-0.30637 -3.40874,-0.61278 -5.11325,-0.91927 -0.86822,0.0839 -1.73648,0.16783 -2.60486,0.25165 -1.08927,0.31478 -2.17859,0.62948 -3.26801,0.94414 -1.87857,0.29635 -3.75715,0.59263 -5.63585,0.88885 -2.93828,2.75228 -5.87648,5.5043 -8.81493,8.25638 -3.51915,-1.43622 -7.03827,-2.87249 -10.55754,-4.30888 -1.59565,1.02916 -3.19131,2.05821 -4.7871,3.08724 z"
                 sodipodi:nodetypes="scccccccccccccccccccccccccss" />
              <path
                 style="fill:#fda047;fill-opacity:1;stroke:#000000;stroke-width:0;stroke-linecap:butt;stroke-linejoin:miter;stroke-miterlimit:4;stroke-dasharray:none;stroke-opacity:1"
                 d="m 209.57159,524.6548 c 0,0 0.16985,-25.11185 0.16985,-25.11185 3.29366,0.46863 6.58742,0.93727 9.66347,0.33737 3.07604,-0.5999 5.93449,-2.26827 8.97813,-3.62108 3.04364,-1.35282 6.2722,-2.38996 8.83849,-3.25762 2.56629,-0.86766 4.47019,-1.56578 7.00491,-1.71493 2.53473,-0.14915 5.70005,0.25064 8.46474,0.95097 2.7647,0.70033 5.12859,1.70111 7.92935,1.7331 2.80077,0.032 6.03832,-0.90472 8.62043,-1.81996 2.58212,-0.91524 4.50872,-1.80897 6.94016,-2.17939 2.43143,-0.37042 5.36756,-0.21754 8.30376,-0.0647 0,0 -0.16269,14.06975 -0.16269,14.06975 -3.36291,-0.086 -6.72574,-0.17206 -9.88746,0.63778 -3.16172,0.80985 -6.12218,2.5156 -8.16372,4.02163 -2.04153,1.50602 -3.16408,2.81226 -5.72947,2.47214 -2.56539,-0.34013 -6.5736,-2.3266 -9.65375,-3.87555 -3.08016,-1.54895 -5.23212,-2.66031 -7.62729,-2.14303 -2.39518,0.51728 -5.0333,2.66319 -8.27059,3.61302 -3.23728,0.94983 -7.07362,0.70356 -11.40993,3.16294 -4.33631,2.45938 -9.17234,7.62436 -14.00839,12.78937 z"
                 id="path897"
                 inkscape:path-effect="#path-effect899"
                 inkscape:original-d="m 209.57159,524.6548 0.16985,-25.11185 c 0,0 6.58741,0.93737 9.88099,1.40588 2.85859,-1.66829 5.71704,-3.33666 8.57551,-5.0052 3.22878,-1.03707 6.45734,-2.07423 9.68588,-3.11151 1.90406,-0.69801 3.80795,-1.39613 5.71179,-2.0944 3.16554,0.39995 6.33086,0.79974 9.49616,1.1994 2.36407,1.00096 4.72796,2.00174 7.09182,3.0024 3.23775,-0.93662 6.4753,-1.87333 9.7128,-2.8102 1.92675,-0.89363 3.85334,-1.78737 5.77988,-2.68121 2.93628,0.15298 8.80861,0.45864 8.80861,0.45864 l -0.16269,14.06975 c 0,0 -6.72574,-0.17196 -10.08874,-0.2581 -2.96036,1.70586 -5.92082,3.41162 -8.88136,5.11722 -1.1225,1.30641 -2.24505,2.61265 -3.3677,3.91878 -4.00828,-1.9864 -8.01648,-3.97288 -12.02486,-5.95952 -2.15194,-1.11125 -4.3039,-2.22261 -6.45598,-3.33413 -2.63813,2.14612 -5.27625,4.29204 -7.91451,6.43785 -3.83642,-0.24617 -7.67276,-0.49243 -11.50929,-0.73883 -4.83598,5.16514 -14.50816,15.49503 -14.50816,15.49503 z"
                 sodipodi:nodetypes="ccsccccccsccscccccscc" />
              <path
                 style="fill:#dac1bb;fill-opacity:1;stroke:#000000;stroke-width:0;stroke-linecap:butt;stroke-linejoin:miter;stroke-miterlimit:4;stroke-dasharray:none;stroke-opacity:1"
                 d="m 209.67789,526.75283 c 2.5848,-2.03338 5.16959,-4.06674 7.40153,-5.48697 2.23195,-1.42022 4.1109,-2.22724 6.60345,-2.39074 2.49254,-0.16351 5.59841,0.31646 9.11692,-0.92016 3.51851,-1.23662 7.44956,-4.18972 11.46841,-5.38421 4.01886,-1.19449 8.12516,-0.63035 12.35074,-0.52792 4.22559,0.10242 8.57024,-0.25684 11.95074,-0.49292 3.38051,-0.23608 5.79669,-0.34895 8.23668,0.29179 2.43999,0.64075 4.90347,2.03492 7.36712,3.42919 0,0 -0.14723,14.45592 -0.14723,14.45592 -2.60484,-0.15171 -5.20958,-0.30341 -8.83076,-0.44789 -3.62118,-0.14448 -8.25851,-0.28173 -12.03609,-0.95437 -3.77758,-0.67265 -6.69523,-1.88069 -8.53083,-0.9062 -1.83559,0.97449 -2.58888,4.13137 -5.47084,4.35885 -2.88197,0.22748 -7.89257,-2.47432 -12.22389,-2.15574 -4.33132,0.31858 -7.98295,3.6575 -12.41235,5.35847 -4.4294,1.70097 -9.63649,1.76395 -14.8436,1.82693 0,0 0,-10.05403 0,-10.05403 z"
                 id="path907"
                 inkscape:path-effect="#path-effect909"
                 inkscape:original-d="m 209.67789,526.75283 c 0,0 5.16969,-4.06661 7.75441,-6.10013 1.87913,-0.80691 3.75809,-1.61392 5.637,-2.4211 3.10609,0.48014 6.21196,0.96011 9.31781,1.43994 3.93129,-2.95306 7.86234,-5.90616 11.79338,-8.85946 4.10655,0.56432 8.21285,1.12846 12.31914,1.69246 4.34491,-0.35914 8.68956,-0.71838 13.0342,-1.07782 2.41637,-0.11272 4.83255,-0.22561 7.24869,-0.33864 2.46379,1.39445 7.39096,4.18281 7.39096,4.18281 l -0.14723,14.45592 c 0,0 -5.20959,-0.30327 -7.81452,-0.45512 -4.63742,-0.13709 -9.27475,-0.27436 -13.91226,-0.41175 -2.91769,-1.20794 -5.83534,-2.41599 -8.75315,-3.6242 -0.75323,3.15713 -1.50651,6.31401 -2.25989,9.47077 -5.01071,-2.70175 -10.02132,-5.40354 -15.0321,-8.10554 -3.65169,3.3392 -7.30333,6.67811 -10.95512,10.01695 -5.20712,0.0631 -15.62132,0.18894 -15.62132,0.18894 z"
                 sodipodi:nodetypes="cccccccccccccccccc" />
              <path
                 style="fill:#78543d;fill-opacity:1;stroke:#000000;stroke-width:0;stroke-linecap:butt;stroke-linejoin:miter;stroke-miterlimit:4;stroke-dasharray:none;stroke-opacity:1"
                 d="m 209.57159,517.22052 c 2.73566,-2.05684 5.47134,-4.11369 8.25553,-5.9706 2.78419,-1.85691 5.61677,-3.51382 8.80334,-4.44872 3.18656,-0.93491 6.72685,-1.14778 9.60498,-1.75844 2.87812,-0.61066 5.09394,-1.61904 8.86666,-1.58788 3.77272,0.0312 9.10189,1.10177 12.87759,1.6122 3.7757,0.51042 5.99752,0.4606 8.80323,-0.28031 2.80571,-0.74091 6.19517,-2.17284 9.21575,-2.88764 3.02058,-0.71481 5.67198,-0.71247 8.32352,-0.71014 0,0 -0.14871,18.77508 -0.14871,18.77508 -3.56923,-1.44979 -7.13836,-2.89954 -10.51319,-3.08494 -3.37483,-0.1854 -6.55507,0.8936 -10.81345,1.17262 -4.25839,0.27901 -9.59467,-0.24202 -13.28062,-0.69583 -3.68596,-0.4538 -5.7214,-0.84038 -8.13811,0.0689 -2.41672,0.9093 -5.21447,3.11442 -8.12387,3.93544 -2.9094,0.82102 -5.93034,0.25788 -8.46337,0.17894 -2.53303,-0.0789 -4.57797,0.32634 -7.02383,1.27599 -2.44586,0.94966 -5.2925,2.44366 -8.13915,3.93766 0,0 -0.1063,-9.5323 -0.1063,-9.5323 0,0 0,-5e-5 0,-5e-5 z"
                 id="path901"
                 inkscape:path-effect="#path-effect903"
                 inkscape:original-d="m 209.57159,517.22052 c 0,0 5.47142,-4.11358 8.20699,-6.17052 2.83279,-1.65688 5.66537,-3.31379 8.49792,-4.97082 3.54053,-0.2128 7.08082,-0.42568 10.6211,-0.63864 2.21601,-1.00834 4.43183,-2.01672 6.64762,-3.02521 5.32959,1.07078 10.65876,2.14139 15.98818,3.21199 2.22199,-0.0497 4.44381,-0.0995 6.66559,-0.14945 3.38968,-1.43191 6.77915,-2.86383 10.16859,-4.29588 2.65167,0.002 7.95461,0.007 7.95461,0.007 l -0.14871,18.77508 c 0,0 -7.13838,-2.8995 -10.7077,-4.34938 -3.18028,1.07915 -6.36052,2.15815 -9.54093,3.2371 -5.33641,-0.52096 -10.67269,-1.04197 -16.00917,-1.5631 -2.03543,-0.3865 -4.07087,-0.77308 -6.10644,-1.15976 -2.79777,2.20531 -5.59553,4.41043 -8.39343,6.61552 -3.02098,-0.56308 -6.04192,-1.12621 -9.06301,-1.68946 -2.04494,0.40538 -4.08988,0.81066 -6.13495,1.21587 -2.84662,1.49411 -8.53996,4.48201 -8.53996,4.48201 l -0.1063,-9.5323 z"
                 sodipodi:nodetypes="cccccccccccccccccccc" />
              <path
                 style="fill:none;stroke:#000000;stroke-width:0;stroke-linecap:butt;stroke-linejoin:miter;stroke-miterlimit:4;stroke-dasharray:none;stroke-opacity:1"
                 d="m 209.67789,526.75283 c 0,0 0,0 0,0 0,0 0,0 0,0 z"
                 id="path911"
                 inkscape:path-effect="#path-effect913"
                 inkscape:original-d="m 209.67789,526.75283 c 9e-5,8e-5 9e-5,8e-5 0,0 9e-5,8e-5 9e-5,8e-5 0,0 z"
                 sodipodi:nodetypes="ccc" />
              <path
                 style="fill:#d5a291;fill-opacity:1;stroke:#000000;stroke-width:0;stroke-linecap:butt;stroke-linejoin:miter;stroke-miterlimit:4;stroke-dasharray:none;stroke-opacity:1"
                 d="m 209.67173,536.68446 c 0,0 0.006,-4.27609 0.006,-4.27609 2.03114,0.16259 4.06237,0.32519 6.56141,-0.0467 2.49904,-0.37186 5.4659,-1.2781 8.96878,-2.65457 3.50289,-1.37646 7.54159,-3.22304 11.55103,-3.71892 4.00943,-0.49588 7.9893,0.35892 10.96706,0.10062 2.97775,-0.25829 4.95332,-1.62961 8.3908,-1.94089 3.43748,-0.31128 8.33656,0.43745 13.2318,1.01484 4.89524,0.5774 9.78626,0.98344 14.67747,1.38949 0,0 0.22527,10.13218 0.22527,10.13218 -4.70023,-0.0619 -9.40037,-0.12376 -21.83053,-0.12376 -12.43017,0 -32.58956,0.0619 -52.74926,0.12376 0,0 1.7e-4,0 1.7e-4,0 z"
                 id="path915"
                 inkscape:path-effect="#path-effect917"
                 inkscape:original-d="m 209.67173,536.68446 0.006,-4.27609 c 0,0 4.06236,0.32527 6.09341,0.48778 2.96707,-0.90619 5.93393,-1.81244 8.90076,-2.71879 4.03896,-1.84657 8.07766,-3.69316 12.11636,-5.53987 3.98011,0.85492 7.95998,1.70971 11.93984,2.56444 1.97573,-1.37128 3.9513,-2.7426 5.92682,-4.11403 4.89936,0.74885 9.79844,1.49758 14.69752,2.24622 4.8914,0.40615 14.67364,1.21816 14.67364,1.21816 l 0.22527,10.13218 c 0,0 -9.40037,-0.12367 -14.10069,-0.18564 -20.16001,0.062 -60.4791,0.18564 -60.4791,0.18564 z"
                 sodipodi:nodetypes="ccccccccccccc" />
              <path
                 style="fill:#6c2bff;fill-opacity:1;stroke:#000000;stroke-width:0;stroke-linecap:butt;stroke-linejoin:miter;stroke-miterlimit:4;stroke-dasharray:none;stroke-opacity:1"
                 d="m 210.02609,476.244 c 0,0 -0.2148,-6.70305 -0.2148,-6.70305 6.85569,-0.22727 13.71147,-0.45455 18.6947,-1.02542 4.98324,-0.57087 8.09392,-1.48529 12.85509,-2.06103 4.76118,-0.57575 11.17249,-0.8128 16.98491,-1.11238 5.81243,-0.29958 11.02564,-0.66165 15.22562,-0.67338 4.19997,-0.0117 7.38634,0.32687 10.57288,0.66548 0,0 -0.0901,3.78202 -0.0901,3.78202 -1.86797,-0.59685 -3.7358,-1.19365 -7.4424,-1.27596 -3.7066,-0.0823 -9.25131,0.34992 -13.54262,1.43202 -4.2913,1.08209 -7.32818,2.81381 -10.35269,3.64787 -3.02452,0.83406 -6.03587,0.77018 -9.60526,1.01528 -3.5694,0.2451 -7.69627,0.79918 -11.58064,1.57041 -3.88438,0.77123 -7.52576,1.75951 -11.06954,1.91872 -3.54377,0.15921 -6.98948,-0.5108 -10.43516,-1.1808 0,0 1e-5,2.2e-4 1e-5,2.2e-4 z"
                 id="path919"
                 inkscape:path-effect="#path-effect921"
                 inkscape:original-d="m 210.02609,476.244 -0.2148,-6.70305 c 0,0 13.71147,-0.45444 20.56707,-0.68182 3.1109,-0.91436 6.22158,-1.82877 9.33224,-2.74331 6.41166,-0.23696 12.82297,-0.47402 19.23433,-0.71118 5.2135,-0.36198 10.42671,-0.72406 15.63994,-1.08625 3.1867,0.33873 9.55962,1.01583 9.55962,1.01583 l -0.0901,3.78202 c 0,0 -3.73581,-1.19361 -5.6039,-1.79054 -5.54509,0.4324 -11.0898,0.86464 -16.63522,1.29679 -3.03711,1.73206 -6.07399,3.46378 -9.11147,5.19563 -3.01164,-0.0638 -6.02299,-0.12765 -9.03483,-0.19166 -4.12693,0.55423 -8.2538,1.10832 -12.38088,1.66228 -3.64164,0.98852 -7.28303,1.97678 -10.92498,2.96504 -3.44566,-0.66989 -10.33703,-2.01 -10.33703,-2.01 z"
                 sodipodi:nodetypes="cccccccccccccccc" />
            </g>
          </g>
          <rect
             style="opacity:1;fill:#2e2e2e;fill-opacity:0;stroke:#000000;stroke-width:0;stroke-linecap:round;stroke-linejoin:round;stroke-miterlimit:4;stroke-dasharray:none;stroke-opacity:1"
             id="rect976"
             width="91.294731"
             height="114.30989"
             x="-19.616528"
             y="399.08105" />
        </g>
      </g>
      <g
         id="g1059"
         transform="matrix(0.07177201,0,0,0.07177201,71.295602,1060.2892)"
         style="stroke-width:4.1799;stroke-miterlimit:4;stroke-dasharray:none">
        <path
           style="fill:none;stroke:#000000;stroke-width:4.1799;stroke-linecap:round;stroke-linejoin:round;stroke-miterlimit:4;stroke-dasharray:none;stroke-opacity:1"
           d="m 57.069657,824.75077 c 0,0 -3.934904,1.7201 -5.586788,3.05215 -1.131484,0.91241 -1.982913,2.13327 -2.854143,3.29676 -0.740309,0.98865 -1.485629,1.9953 -2.005473,3.11568 -0.514166,1.10814 -1.072319,3.50446 -1.072319,3.50446 l -0.9408,2.58183 -0.05108,100.43435 c 0,0 0.955977,3.68923 1.635514,5.46523 0.435252,1.13755 0.874748,2.29657 1.556671,3.30576 1.042125,1.54225 2.381145,2.88677 3.799684,4.09189 0.795252,0.67561 1.682736,1.24911 2.60808,1.73141 0.993873,0.51802 3.128798,1.23115 3.128798,1.23115 l 105.124189,0.38968 c 0,0 2.542,-1.00535 3.67574,-1.75149 2.00279,-1.31808 3.90322,-2.87506 5.41016,-4.7399 1.04688,-1.29551 1.82476,-2.81437 2.43045,-4.36597 0.72445,-1.85584 1.16475,-3.83216 1.39967,-5.81049 0.049,-0.41303 -0.002,-0.83187 0,-1.2478 0.0579,-10.24094 0.3475,-30.72135 0.3475,-30.72135"
           id="path1051"
           sodipodi:nodetypes="cssscccssssccsssssc" />
        <path
           style="fill:none;stroke:#000000;stroke-width:4.1799;stroke-linecap:round;stroke-linejoin:round;stroke-miterlimit:4;stroke-dasharray:none;stroke-opacity:1"
           d="m 175.67551,908.31412 30.13779,29.69789 0.19441,-97.13465 -28.60052,30.04178 -2.18696,-30.34331 c 0,0 -0.67736,-2.97689 -1.19349,-4.40945 -0.53958,-1.49762 -1.1642,-2.97871 -1.97902,-4.34622 -0.64614,-1.08443 -1.41516,-2.10497 -2.28405,-3.02068 -1.08958,-1.14829 -2.25044,-2.28541 -3.62529,-3.06927 -0.0198,-0.0113 -0.0396,-0.0225 -0.0595,-0.0336 -0.023,-0.0129 -0.0469,-0.0257 -0.0717,-0.0385 -0.72089,-0.37197 -2.1807,-0.71128 -2.1807,-0.71128 v 0 l -2.74903,-0.0421 -76.00211,-0.10386 -28.005683,-0.0501"
           id="path1053"
           sodipodi:nodetypes="cccccssssssccccc" />
      </g>
    </g>
  </g>
</svg>

