<?xml version="1.0" encoding="UTF-8" standalone="no"?>
<svg
   xmlns:dc="http://purl.org/dc/elements/1.1/"
   xmlns:cc="http://creativecommons.org/ns#"
   xmlns:rdf="http://www.w3.org/1999/02/22-rdf-syntax-ns#"
   xmlns:svg="http://www.w3.org/2000/svg"
   xmlns="http://www.w3.org/2000/svg"
   xmlns:sodipodi="http://sodipodi.sourceforge.net/DTD/sodipodi-0.dtd"
   xmlns:inkscape="http://www.inkscape.org/namespaces/inkscape"
   width="142.92265mm"
   height="152.09126mm"
   viewBox="0 0 142.92265 152.09126"
   version="1.1"
   id="svg6"
   sodipodi:docname="BleuFoncé.Vert(blanc).svg"
   inkscape:version="1.0.1 (3bc2e813f5, 2020-09-07)">
  <metadata
     id="metadata12">
    <rdf:RDF>
      <cc:Work
         rdf:about="">
        <dc:format>image/svg+xml</dc:format>
        <dc:type
           rdf:resource="http://purl.org/dc/dcmitype/StillImage" />
        <dc:title></dc:title>
      </cc:Work>
    </rdf:RDF>
  </metadata>
  <defs
     id="defs10" />
  <sodipodi:namedview
     pagecolor="#ffffff"
     bordercolor="#666666"
     borderopacity="1"
     objecttolerance="10"
     gridtolerance="10"
     guidetolerance="10"
     inkscape:pageopacity="0"
     inkscape:pageshadow="2"
     inkscape:window-width="1920"
     inkscape:window-height="995"
     id="namedview8"
     showgrid="false"
     inkscape:zoom="1.3089093"
     inkscape:cx="344.86082"
     inkscape:cy="270.79276"
     inkscape:window-x="0"
     inkscape:window-y="24"
     inkscape:window-maximized="1"
     inkscape:current-layer="svg6"
     inkscape:document-rotation="0" />
  <g
     id="g11569">
    <rect
       style="fill:#fff9f9;stroke-width:5.14599;stroke-linecap:round;stroke-linejoin:round"
       id="rect11552"
       width="142.39702"
       height="151.46974"
       x="0.40904325"
       y="0.32158187" />
    <g
       id="g1339">
      <g
         id="g1150">
        <g
           id="g1084">
          <path
             style="fill:#001e7c;fill-opacity:1;stroke:#000000;stroke-width:0.460818px;stroke-linecap:butt;stroke-linejoin:miter;stroke-opacity:1"
             d="m 0.23041171,0.230409 c 4.4e-4,48.178896 0,144.535211 0,144.535211 L 132.45995,0.230409 Z"
             id="path841" />
          <path
             style="fill:#fffa40;fill-opacity:1;stroke:#000000;stroke-width:0.460818px;stroke-linecap:butt;stroke-linejoin:miter;stroke-opacity:1"
             d="m 142.69225,151.86085 c -4.5e-4,-48.17889 0,-144.5352072 0,-144.5352072 L 10.462708,151.86085 Z"
             id="path841-3" />
        </g>
        <path
           style="fill:#ff001f;fill-opacity:1;stroke-width:1.37447;stroke-linecap:round;stroke-linejoin:round"
           d="M 1.5459904,336.40694 V 127.27458 H 193.08899 384.63198 l -3.49764,3.62898 c -1.9237,1.99593 -86.78614,94.73536 -188.58319,206.08761 C 90.754096,448.34342 6.1336824,540.81995 4.5057917,542.49455 l -2.9598013,3.04475 z"
           id="path1138"
           transform="scale(0.26458332)" />
        <path
           style="fill:#ff001f;fill-opacity:1;stroke-width:1.37447;stroke-linecap:round;stroke-linejoin:round"
           d="M 1.5459904,64.245004 V 1.2154277 H 250.28998 c 142.79363,0 248.63553,0.2862055 248.48934,0.6719363 -0.14007,0.369565 -25.8676,28.711147 -57.17228,62.981295 l -56.91762,62.309361 -191.57172,0.0483 -191.5717096,0.0483 z"
           id="path1140"
           transform="scale(0.26458332)" />
        <path
           style="fill:#ff001f;fill-opacity:1;stroke-width:1.37447;stroke-linecap:round;stroke-linejoin:round"
           d="M 1.5459904,273.75591 V 1.2154277 H 231.76673 c 126.62141,0 238.5122,0.2264689 248.6462,0.5032642 l 18.42547,0.5032643 -1.97182,2.3617165 C 494.35206,7.5954 452.13074,54.022984 414.10322,95.592287 159.36131,374.06014 5.5097772,542.18234 3.740112,544.01909 l -2.1941216,2.27729 z"
           id="path1142"
           transform="scale(0.26458332)" />
      </g>
      <path
         style="fill:#00fb3a;fill-opacity:1;stroke-width:1.37447;stroke-linecap:round;stroke-linejoin:round"
         d="m 41.56324,572.8456 c 0.156505,-0.46952 96.33201,-105.84351 213.72334,-234.16443 L 468.72536,105.37041 h 35.02066 35.02066 v 234.16442 234.16443 h -248.744 c -182.90881,0 -248.668682,-0.22594 -248.45944,-0.85366 z"
         id="path1206"
         transform="scale(0.26458332)" />
      <path
         style="fill:#00fb3a;fill-opacity:1;stroke-width:1.37447;stroke-linecap:round;stroke-linejoin:round"
         d="m 471.6272,102.31733 c 5.71765,-6.761038 66.03346,-72.479636 66.56648,-72.529169 0.31515,-0.02929 0.573,16.964738 0.573,37.764499 v 37.81775 h -34.8607 -34.86069 z"
         id="path1208"
         transform="scale(0.26458332)" />
      <path
         style="fill:#0087fa;fill-opacity:1;stroke-width:1.37447;stroke-linecap:round;stroke-linejoin:round"
         d="M 1.5050611,273.46994 V 0.55733217 L 247.32041,0.94437123 C 382.51885,1.1572427 494.50686,1.624957 496.18266,1.9837365 l 3.04689,0.6523263 -14.49717,16.0324092 C 445.60548,61.938896 4.6643637,543.79228 2.7839498,545.334 1.5885247,546.31411 1.5050611,528.57156 1.5050611,273.46994 Z"
         id="path1266"
         transform="scale(0.26458332)" />
      <path
         style="fill:#0087fa;fill-opacity:1;stroke-width:1.37447;stroke-linecap:round;stroke-linejoin:round"
         d="m 58.55045,572.9578 -16.680116,-0.40453 1.949668,-1.83004 c 1.072318,-1.00653 1.781499,-2.10215 1.575958,-2.43473 -0.205541,-0.33256 1.0489,-1.74373 2.787647,-3.13592 1.738747,-1.39218 3.378652,-3.08642 3.644235,-3.76498 0.265583,-0.67855 10.963193,-12.71147 23.772468,-26.73982 98.19735,-107.5429 388.76317,-425.32385 394.25997,-431.18736 1.96959,-2.10099 10.91468,-11.899222 19.87797,-21.773855 8.9633,-9.874634 23.36468,-25.619008 32.00306,-34.987499 l 15.70615,-17.033619 0.69937,3.281711 c 0.4127,1.936576 0.80803,113.433212 0.96448,272.016912 L 539.37643,573.69926 307.3035,573.5308 C 179.66339,573.4381 67.724513,573.1803 58.55045,572.9578 Z"
         id="path1268"
         transform="scale(0.26458332)" />
      <path
         style="fill:#001e7c;fill-opacity:1;stroke-width:1.37447;stroke-linecap:round;stroke-linejoin:round"
         d="M 2.5897007,544.60099 C 2.1870835,543.96876 1.7860771,430.86024 1.6218848,271.61726 L 1.3415295,-0.28694678 69.609837,0.27055793 C 107.15741,0.57718552 218.77162,1.0900511 317.64142,1.4102592 c 128.26014,0.4153941 180.00241,0.8213451 180.59798,1.416906 0.60362,0.6036159 -5.40248,7.6695498 -21.69402,25.5221508 -12.3908,13.578092 -26.60455,29.156811 -31.58613,34.619374 -10.22625,11.213626 -79.00574,86.51554 -105.0219,114.98123 -16.32464,17.86166 -35.91659,39.27233 -61.87019,67.61354 -6.54155,7.14336 -19.28148,21.06716 -28.31095,30.9418 -16.53557,18.0833 -54.69654,59.77806 -99.29259,108.48727 -13.27265,14.4968 -48.98655,53.51784 -79.364229,86.71342 -30.377676,33.19557 -57.085113,62.24648 -59.34986,64.55756 -2.2647475,2.31109 -5.0975179,5.37536 -6.2950458,6.80949 -1.7272778,2.06855 -2.3194196,2.38439 -2.8647845,1.52799 z"
         id="path1322"
         transform="scale(0.26458332)" />
      <path
         style="fill:#00fb3a;fill-opacity:1;stroke-width:1.37447;stroke-linecap:round;stroke-linejoin:round"
         d="M 238.34347,572.92484 C 130.98309,572.69575 43.003548,572.43249 42.833373,572.3398 c -0.170175,-0.0927 0.340897,-0.88711 1.135716,-1.76537 0.794818,-0.87827 1.449748,-2.15626 1.4554,-2.83999 0.0057,-0.68373 0.781454,-1.62872 1.724005,-2.09996 2.511883,-1.25587 4.786074,-3.48233 6.046355,-5.91944 1.049293,-2.02911 13.20117,-15.82025 30.425164,-34.52945 4.255243,-4.62217 17.312767,-18.88978 29.016727,-31.70579 11.70395,-12.81601 26.15012,-28.63071 32.10261,-35.14376 5.95248,-6.51306 20.56241,-22.49965 32.4665,-35.52577 24.28447,-26.57338 35.59418,-38.94683 60.42798,-66.11157 9.42455,-10.30914 29.68415,-32.47948 45.02134,-49.26742 15.3372,-16.78794 35.44241,-38.77928 44.67825,-48.86965 9.23584,-10.09037 24.10607,-26.33852 33.04496,-36.107 40.80953,-44.59693 49.82454,-54.44788 65.54952,-71.62762 9.23131,-10.08534 27.61383,-30.18641 40.85004,-44.66905 53.14815,-58.152996 69.6243,-76.050628 70.19704,-76.25327 0.3299,-0.116721 0.65607,0.227076 0.72483,0.763995 0.2269,1.771753 1.6303,339.735815 1.83696,442.374385 l 0.20268,100.65646 -53.09765,-0.17909 c -29.2037,-0.0985 -140.93795,-0.36652 -248.29833,-0.5956 z"
         id="path1324"
         transform="scale(0.26458332)" />
    </g>
  </g>
</svg>
