<?xml version="1.0" encoding="UTF-8" standalone="no"?>
<svg
   xmlns:dc="http://purl.org/dc/elements/1.1/"
   xmlns:cc="http://creativecommons.org/ns#"
   xmlns:rdf="http://www.w3.org/1999/02/22-rdf-syntax-ns#"
   xmlns:svg="http://www.w3.org/2000/svg"
   xmlns="http://www.w3.org/2000/svg"
   xmlns:sodipodi="http://sodipodi.sourceforge.net/DTD/sodipodi-0.dtd"
   xmlns:inkscape="http://www.inkscape.org/namespaces/inkscape"
   width="142.92265mm"
   height="152.09126mm"
   viewBox="0 0 142.92265 152.09126"
   version="1.1"
   id="svg6"
   sodipodi:docname="BleuVif.Vert(blanc).svg"
   inkscape:version="1.0.1 (3bc2e813f5, 2020-09-07)">
  <metadata
     id="metadata12">
    <rdf:RDF>
      <cc:Work
         rdf:about="">
        <dc:format>image/svg+xml</dc:format>
        <dc:type
           rdf:resource="http://purl.org/dc/dcmitype/StillImage" />
        <dc:title></dc:title>
      </cc:Work>
    </rdf:RDF>
  </metadata>
  <defs
     id="defs10" />
  <sodipodi:namedview
     pagecolor="#ffffff"
     bordercolor="#666666"
     borderopacity="1"
     objecttolerance="10"
     gridtolerance="10"
     guidetolerance="10"
     inkscape:pageopacity="0"
     inkscape:pageshadow="2"
     inkscape:window-width="1920"
     inkscape:window-height="995"
     id="namedview8"
     showgrid="false"
     inkscape:zoom="1.3089093"
     inkscape:cx="344.86082"
     inkscape:cy="267.9721"
     inkscape:window-x="0"
     inkscape:window-y="24"
     inkscape:window-maximized="1"
     inkscape:current-layer="svg6"
     inkscape:document-rotation="0" />
  <path
     style="fill:#003cf9;fill-opacity:1;stroke-width:1.37447;stroke-linecap:round;stroke-linejoin:round"
     d=""
     id="path1467"
     transform="scale(0.26458332)" />
  <path
     style="fill:#003cf9;fill-opacity:1;stroke-width:1.37447;stroke-linecap:round;stroke-linejoin:round"
     d=""
     id="path1469"
     transform="scale(0.26458332)" />
  <path
     style="fill:#fffa40;fill-opacity:1;stroke-width:1.37447;stroke-linecap:round;stroke-linejoin:round"
     d=""
     id="path1569"
     transform="scale(0.26458332)" />
  <g
     id="g9304">
    <rect
       style="fill:#fff9f9;stroke-width:5.14599;stroke-linecap:round;stroke-linejoin:round"
       id="rect9271"
       width="142.68437"
       height="151.43549"
       x="0.40904325"
       y="0.32158187" />
    <g
       id="g1339">
      <g
         id="g1150">
        <g
           id="g1084">
          <path
             style="fill:#001e7c;fill-opacity:1;stroke:#000000;stroke-width:0.460818px;stroke-linecap:butt;stroke-linejoin:miter;stroke-opacity:1"
             d="m 0.23041171,0.230409 c 4.4e-4,48.178896 0,144.535211 0,144.535211 L 132.45995,0.230409 Z"
             id="path841" />
          <path
             style="fill:#fffa40;fill-opacity:1;stroke:#000000;stroke-width:0.460818px;stroke-linecap:butt;stroke-linejoin:miter;stroke-opacity:1"
             d="m 142.69225,151.86085 c -4.5e-4,-48.17889 0,-144.5352072 0,-144.5352072 L 10.462708,151.86085 Z"
             id="path841-3" />
        </g>
        <path
           style="fill:#ff001f;fill-opacity:1;stroke-width:1.37447;stroke-linecap:round;stroke-linejoin:round"
           d="M 1.5459904,336.40694 V 127.27458 H 193.08899 384.63198 l -3.49764,3.62898 c -1.9237,1.99593 -86.78614,94.73536 -188.58319,206.08761 C 90.754096,448.34342 6.1336824,540.81995 4.5057917,542.49455 l -2.9598013,3.04475 z"
           id="path1138"
           transform="scale(0.26458332)" />
        <path
           style="fill:#ff001f;fill-opacity:1;stroke-width:1.37447;stroke-linecap:round;stroke-linejoin:round"
           d="M 1.5459904,64.245004 V 1.2154277 H 250.28998 c 142.79363,0 248.63553,0.2862055 248.48934,0.6719363 -0.14007,0.369565 -25.8676,28.711147 -57.17228,62.981295 l -56.91762,62.309361 -191.57172,0.0483 -191.5717096,0.0483 z"
           id="path1140"
           transform="scale(0.26458332)" />
        <path
           style="fill:#ff001f;fill-opacity:1;stroke-width:1.37447;stroke-linecap:round;stroke-linejoin:round"
           d="M 1.5459904,273.75591 V 1.2154277 H 231.76673 c 126.62141,0 238.5122,0.2264689 248.6462,0.5032642 l 18.42547,0.5032643 -1.97182,2.3617165 C 494.35206,7.5954 452.13074,54.022984 414.10322,95.592287 159.36131,374.06014 5.5097772,542.18234 3.740112,544.01909 l -2.1941216,2.27729 z"
           id="path1142"
           transform="scale(0.26458332)" />
      </g>
      <path
         style="fill:#00fb3a;fill-opacity:1;stroke-width:1.37447;stroke-linecap:round;stroke-linejoin:round"
         d="m 41.56324,572.8456 c 0.156505,-0.46952 96.33201,-105.84351 213.72334,-234.16443 L 468.72536,105.37041 h 35.02066 35.02066 v 234.16442 234.16443 h -248.744 c -182.90881,0 -248.668682,-0.22594 -248.45944,-0.85366 z"
         id="path1206"
         transform="scale(0.26458332)" />
      <path
         style="fill:#00fb3a;fill-opacity:1;stroke-width:1.37447;stroke-linecap:round;stroke-linejoin:round"
         d="m 471.6272,102.31733 c 5.71765,-6.761038 66.03346,-72.479636 66.56648,-72.529169 0.31515,-0.02929 0.573,16.964738 0.573,37.764499 v 37.81775 h -34.8607 -34.86069 z"
         id="path1208"
         transform="scale(0.26458332)" />
      <path
         style="fill:#0087fa;fill-opacity:1;stroke-width:1.37447;stroke-linecap:round;stroke-linejoin:round"
         d="M 1.5050611,273.46994 V 0.55733217 L 247.32041,0.94437123 C 382.51885,1.1572427 494.50686,1.624957 496.18266,1.9837365 l 3.04689,0.6523263 -14.49717,16.0324092 C 445.60548,61.938896 4.6643637,543.79228 2.7839498,545.334 1.5885247,546.31411 1.5050611,528.57156 1.5050611,273.46994 Z"
         id="path1266"
         transform="scale(0.26458332)" />
      <path
         style="fill:#0087fa;fill-opacity:1;stroke-width:1.37447;stroke-linecap:round;stroke-linejoin:round"
         d="m 58.55045,572.9578 -16.680116,-0.40453 1.949668,-1.83004 c 1.072318,-1.00653 1.781499,-2.10215 1.575958,-2.43473 -0.205541,-0.33256 1.0489,-1.74373 2.787647,-3.13592 1.738747,-1.39218 3.378652,-3.08642 3.644235,-3.76498 0.265583,-0.67855 10.963193,-12.71147 23.772468,-26.73982 98.19735,-107.5429 388.76317,-425.32385 394.25997,-431.18736 1.96959,-2.10099 10.91468,-11.899222 19.87797,-21.773855 8.9633,-9.874634 23.36468,-25.619008 32.00306,-34.987499 l 15.70615,-17.033619 0.69937,3.281711 c 0.4127,1.936576 0.80803,113.433212 0.96448,272.016912 L 539.37643,573.69926 307.3035,573.5308 C 179.66339,573.4381 67.724513,573.1803 58.55045,572.9578 Z"
         id="path1268"
         transform="scale(0.26458332)" />
      <path
         style="fill:#001e7c;fill-opacity:1;stroke-width:1.37447;stroke-linecap:round;stroke-linejoin:round"
         d="M 2.5897007,544.60099 C 2.1870835,543.96876 1.7860771,430.86024 1.6218848,271.61726 L 1.3415295,-0.28694678 69.609837,0.27055793 C 107.15741,0.57718552 218.77162,1.0900511 317.64142,1.4102592 c 128.26014,0.4153941 180.00241,0.8213451 180.59798,1.416906 0.60362,0.6036159 -5.40248,7.6695498 -21.69402,25.5221508 -12.3908,13.578092 -26.60455,29.156811 -31.58613,34.619374 -10.22625,11.213626 -79.00574,86.51554 -105.0219,114.98123 -16.32464,17.86166 -35.91659,39.27233 -61.87019,67.61354 -6.54155,7.14336 -19.28148,21.06716 -28.31095,30.9418 -16.53557,18.0833 -54.69654,59.77806 -99.29259,108.48727 -13.27265,14.4968 -48.98655,53.51784 -79.364229,86.71342 -30.377676,33.19557 -57.085113,62.24648 -59.34986,64.55756 -2.2647475,2.31109 -5.0975179,5.37536 -6.2950458,6.80949 -1.7272778,2.06855 -2.3194196,2.38439 -2.8647845,1.52799 z"
         id="path1322"
         transform="scale(0.26458332)" />
      <path
         style="fill:#00fb3a;fill-opacity:1;stroke-width:1.37447;stroke-linecap:round;stroke-linejoin:round"
         d="M 238.34347,572.92484 C 130.98309,572.69575 43.003548,572.43249 42.833373,572.3398 c -0.170175,-0.0927 0.340897,-0.88711 1.135716,-1.76537 0.794818,-0.87827 1.449748,-2.15626 1.4554,-2.83999 0.0057,-0.68373 0.781454,-1.62872 1.724005,-2.09996 2.511883,-1.25587 4.786074,-3.48233 6.046355,-5.91944 1.049293,-2.02911 13.20117,-15.82025 30.425164,-34.52945 4.255243,-4.62217 17.312767,-18.88978 29.016727,-31.70579 11.70395,-12.81601 26.15012,-28.63071 32.10261,-35.14376 5.95248,-6.51306 20.56241,-22.49965 32.4665,-35.52577 24.28447,-26.57338 35.59418,-38.94683 60.42798,-66.11157 9.42455,-10.30914 29.68415,-32.47948 45.02134,-49.26742 15.3372,-16.78794 35.44241,-38.77928 44.67825,-48.86965 9.23584,-10.09037 24.10607,-26.33852 33.04496,-36.107 40.80953,-44.59693 49.82454,-54.44788 65.54952,-71.62762 9.23131,-10.08534 27.61383,-30.18641 40.85004,-44.66905 53.14815,-58.152996 69.6243,-76.050628 70.19704,-76.25327 0.3299,-0.116721 0.65607,0.227076 0.72483,0.763995 0.2269,1.771753 1.6303,339.735815 1.83696,442.374385 l 0.20268,100.65646 -53.09765,-0.17909 c -29.2037,-0.0985 -140.93795,-0.36652 -248.29833,-0.5956 z"
         id="path1324"
         transform="scale(0.26458332)" />
    </g>
    <path
       style="fill:#003cf9;fill-opacity:1;stroke-width:1.37447;stroke-linecap:round;stroke-linejoin:round"
       d="M 2.410997,539.7996 C 2.1994085,536.94329 1.93865,450.80563 1.8315337,348.38256 L 1.6367768,162.15881 H 178.37383 355.11089 l -3.10425,3.24698 C 350.2993,167.19163 280.35085,243.59035 196.56561,335.18072 20.35573,527.80571 5.0351934,544.45854 3.7484191,544.76557 3.0855978,544.92371 2.6786442,543.41266 2.410997,539.7996 Z"
       id="path1449"
       transform="scale(0.26458332)" />
    <path
       style="fill:#003cf9;fill-opacity:1;stroke-width:1.37447;stroke-linecap:round;stroke-linejoin:round"
       d="m 414.00235,573.10933 c -69.33253,-0.25339 -180.98756,-0.51124 -248.12228,-0.57299 l -122.063117,-0.11228 0.36061,-1.98864 c 0.414629,-2.28655 2.486822,-5.71706 3.312704,-5.48418 1.725919,0.48667 7.410189,-5.59982 7.430027,-7.95577 0.0075,-0.88546 13.082189,-15.4115 63.818856,-70.90283 26.70146,-29.2037 85.46806,-93.49387 130.59247,-142.86704 45.12441,-49.37317 100.80721,-110.29805 123.73955,-135.38862 l 41.69518,-45.61922 61.56781,-0.0295 61.56781,-0.0295 0.51379,80.02847 c 0.28258,44.01565 0.56876,110.62645 0.63596,148.024 0.0672,37.39755 0.37235,93.95227 0.67811,125.67716 0.30575,31.72489 0.50546,57.68161 0.4438,57.68161 -0.0617,0 -56.83874,-0.20732 -126.17128,-0.46072 z"
       id="path1451"
       transform="scale(0.26458332)" />
    <path
       style="fill:#003cf9;fill-opacity:1;stroke-width:1.37447;stroke-linecap:round;stroke-linejoin:round"
       d="M 2.2406877,539.38128 C 1.9762511,536.33485 1.6890701,413.59907 1.6025077,266.63511 L 1.4451214,-0.5721102 16.343021,-0.5643232 c 8.193845,0.004286 44.980198,0.3512102 81.747451,0.77094944 C 134.85773,0.62636566 217.54107,1.1258851 281.83124,1.3166696 422.27619,1.7334475 495.3366,2.3904945 496.87349,3.2505882 c 0.99685,0.5578624 0.98642,0.8079863 -0.0849,2.0356405 -0.67176,0.7697965 -1.3522,1.8069592 -1.51208,2.3048066 -0.38442,1.1970416 -7.11766,8.6625517 -78.7578,87.3230977 -33.49237,36.774477 -71.82581,78.883817 -85.18543,93.576307 -37.25729,40.97443 -270.575407,295.83512 -300.248629,327.971 -14.452869,15.65234 -26.7471171,28.4588 -27.3205516,28.4588 -0.7407311,0 -1.181817,-1.60375 -1.5234017,-5.53896 z"
       id="path1453"
       transform="scale(0.26458332)" />
    <path
       style="fill:#003cf9;fill-opacity:1;stroke-width:1.37447;stroke-linecap:round;stroke-linejoin:round"
       d="m 417.55872,159.29383 c 1.49626,-1.57574 26.92111,-29.33311 56.49967,-61.683065 62.07984,-67.896465 62.29701,-68.130235 62.81655,-67.619586 0.21572,0.212011 0.64346,30.036461 0.95056,66.276555 l 0.55835,65.891076 h -61.77281 -61.7728 z"
       id="path1455"
       transform="scale(0.26458332)" />
    <path
       style="fill:#003cf9;fill-opacity:1;stroke-width:1.37447;stroke-linecap:round;stroke-linejoin:round"
       d="m 469.39198,573.10828 c -38.86824,-0.25398 -150.45029,-0.51183 -247.96012,-0.573 l -177.290594,-0.11122 0.16583,-2.39528 c 0.09121,-1.31741 0.570019,-2.64509 1.06403,-2.9504 0.494011,-0.30532 0.855219,-0.86048 0.802686,-1.23369 -0.05253,-0.37322 0.691647,-0.79467 1.653735,-0.93655 2.970195,-0.43804 6.428042,-4.28925 7.131688,-7.94298 0.170302,-0.88431 1.124478,-2.49503 2.120392,-3.57939 0.995913,-1.08437 8.307411,-9.19132 16.247772,-18.01546 C 96.092397,510.07152 365.15056,215.71415 471.68396,99.556772 503.40885,64.965935 530.68156,35.162096 532.29,33.326021 c 1.60843,-1.836075 3.19935,-3.338319 3.53537,-3.338319 1.47678,0 1.75025,32.50489 2.67071,317.439868 0.23755,73.53451 0.80264,143.49734 1.25576,155.47296 0.45313,11.97562 0.70817,32.77538 0.56676,46.22169 l -0.2571,24.44783 z"
       id="path1457"
       transform="scale(0.26458332)" />
    <path
       style="fill:#003cf9;fill-opacity:1;stroke-width:1.37447;stroke-linecap:round;stroke-linejoin:round"
       d="m 537.91797,96.264257 c -0.25653,-4.727218 -0.17222,-9.798234 0.18736,-11.268924 0.46178,-1.888712 0.67674,0.635369 0.73198,8.594942 0.043,6.197908 -0.0413,11.268925 -0.18736,11.268925 -0.14606,0 -0.47545,-3.86772 -0.73198,-8.594943 z"
       id="path1459"
       transform="scale(0.26458332)" />
    <path
       style="fill:#003cf9;fill-opacity:1;stroke-width:1.37447;stroke-linecap:round;stroke-linejoin:round"
       d="m 537.50581,59.592503 c -0.0751,-8.610135 0.16063,-13.560909 0.64571,-13.560909 0.88124,0 0.9035,10.815988 0.0425,20.627862 -0.4949,5.639561 -0.58544,4.709779 -0.68817,-7.066953 z"
       id="path1461"
       transform="scale(0.26458332)" />
    <path
       style="fill:#003cf9;fill-opacity:1;stroke-width:1.37447;stroke-linecap:round;stroke-linejoin:round"
       d="m 449.52811,573.1081 c -49.79336,-0.25406 -161.37542,-0.51191 -247.96012,-0.57299 l -157.426724,-0.11105 0.151364,-2.18634 c 0.221101,-3.19364 1.672268,-5.45361 3.50185,-5.45361 2.169931,0 6.748285,-4.97664 6.748285,-7.33534 0,-1.28503 2.10771,-4.22486 6.670897,-9.30454 C 87.160761,519.26025 260.21763,329.804 447.98364,124.72281 484.33976,85.014044 518.71876,47.454146 524.3814,41.256376 c 5.66266,-6.197771 10.73367,-11.268674 11.26893,-11.268674 0.71371,0 0.97465,1.782478 0.97863,6.684955 0.008,9.623832 0.84728,17.697301 1.64499,15.820675 0.35425,-0.833377 0.38335,0.365049 0.0657,2.706201 -0.31358,2.311084 -0.51409,28.611608 -0.44558,58.445607 0.49761,216.71198 1.16452,351.78504 1.8578,376.26747 0.4462,15.7574 0.69841,41.02653 0.56046,56.15363 l -0.25084,27.50381 z"
       id="path1463"
       transform="scale(0.26458332)" />
    <path
       style="fill:#003cf9;fill-opacity:1;stroke-width:1.37447;stroke-linecap:round;stroke-linejoin:round"
       d="m 429.28225,573.14581 c -60.5084,-0.2752 -171.95626,-0.55017 -247.66192,-0.61106 l -137.646657,-0.11069 0.217106,-2.73623 c 0.220376,-2.77743 1.617949,-4.83046 3.554386,-5.22139 3.232779,-0.65263 5.793407,-3.32749 6.450198,-6.73792 0.712743,-3.70098 -4.504103,2.17869 89.319217,-100.66769 23.95825,-26.26232 95.12481,-104.1325 158.14793,-173.04483 63.02312,-68.91234 138.62618,-151.59569 168.00681,-183.74077 55.86717,-61.123765 64.45414,-70.287528 65.86347,-70.287528 0.56606,0 1.01464,3.529691 1.32711,10.442658 0.25961,5.743462 0.82125,10.658495 1.24809,10.922297 0.52475,0.324316 0.50912,4.797803 -0.0483,13.814179 -0.45339,7.333997 -0.66112,15.397327 -0.46162,17.91851 0.19949,2.521183 0.58908,86.483334 0.86575,186.582544 0.27667,100.09922 0.82773,191.7213 1.22457,203.60463 0.86128,25.79099 0.99705,100.74411 0.1821,100.52659 -0.31515,-0.0841 -50.07987,-0.3781 -110.58826,-0.6533 z"
       id="path1465"
       transform="scale(0.26458332)" />
    <path
       style="fill:#003cf9;fill-opacity:1;stroke-width:1.37447;stroke-linecap:round;stroke-linejoin:round"
       d="m 397.19446,573.14595 c -62.60938,-0.27493 -167.72552,-0.54982 -233.59143,-0.61088 L 43.846837,572.42406 v -2.67398 c 0,-2.97619 2.164985,-5.72996 4.504825,-5.72996 1.966083,0 6.168055,-4.88736 5.711123,-6.64267 C 53.511166,555.2584 60.525986,547.25642 120.2372,481.89067 402.17438,173.25456 515.49341,49.439611 529.76793,34.428042 c 5.64718,-5.938771 6.84135,-5.880881 6.90283,0.334628 0.026,2.626233 0.32766,7.353451 0.6704,10.50493 0.34274,3.151478 0.84134,91.67938 1.10799,196.72868 0.26666,105.04929 0.81644,202.00024 1.22172,215.44655 0.4053,13.44631 0.74494,45.16165 0.75476,70.47853 l 0.0179,46.03069 -14.7069,-0.15312 c -8.0888,-0.0842 -65.93276,-0.37806 -128.54214,-0.65298 z"
       id="path1471"
       transform="scale(0.26458332)" />
    <path
       style="fill:#003cf9;fill-opacity:1;stroke-width:1.37447;stroke-linecap:round;stroke-linejoin:round"
       d="m 537.53419,40.68363 c -0.0921,-3.151478 -0.38151,-6.589455 -0.64303,-7.639948 -0.35907,-1.44227 -0.25525,-1.705829 0.42394,-1.076279 0.60033,0.556458 0.81418,3.09712 0.64304,7.639948 l -0.25641,6.806241 z"
       id="path1473"
       transform="scale(0.26458332)" />
    <path
       style="fill:#003cf9;fill-opacity:1;stroke-width:1.37447;stroke-linecap:round;stroke-linejoin:round"
       d="m 538.38046,41.447625 c 0,-2.311084 0.14322,-3.256528 0.31827,-2.100986 0.17505,1.155543 0.17505,3.04643 0,4.201972 -0.17505,1.155542 -0.31827,0.210099 -0.31827,-2.100986 z"
       id="path1475"
       transform="scale(0.26458332)" />
    <path
       style="fill:#fffa40;fill-opacity:1;stroke-width:1.37447;stroke-linecap:round;stroke-linejoin:round"
       d="m 362.81469,573.14616 c -70.59312,-0.27432 -171.2399,-0.54902 -223.65949,-0.61044 l -95.308363,-0.11166 v -2.93757 c 0,-3.26961 1.442616,-5.04 4.787051,-5.87471 2.561414,-0.63927 5.144882,-3.73194 5.144882,-6.15893 0,-3.69189 -10.037071,7.45235 217.71514,-241.73107 223.86868,-244.934432 257.03735,-281.10437 260.445,-284.011294 3.99275,-3.406059 4.37503,-2.762426 5.21608,8.782146 0.45605,6.259878 0.97413,83.982898 1.28205,192.335708 0.28422,100.00693 0.84614,194.0356 1.24873,208.9526 0.40258,14.917 0.73777,50.75791 0.74485,79.64646 l 0.0129,52.52465 -24.63883,-0.15356 c -13.55136,-0.0845 -82.39685,-0.37801 -152.98998,-0.65233 z"
       id="path1563"
       transform="scale(0.26458332)" />
    <path
       style="fill:#fffa40;fill-opacity:1;stroke-width:1.37447;stroke-linecap:round;stroke-linejoin:round"
       d="m 403.68842,573.14582 c -58.61751,-0.27529 -163.56175,-0.5503 -233.20943,-0.61115 L 43.846837,572.42406 v -3.42037 c 0,-3.67353 1.538044,-5.40891 5.303109,-5.9835 2.265902,-0.3458 4.603396,-3.13426 4.133536,-4.931 -0.737914,-2.82179 3.928494,-8.27071 57.391548,-67.01549 59.7115,-65.61053 365.35833,-399.857623 395.43426,-432.43619 26.02179,-28.187089 29.26278,-31.301709 29.61334,-28.458809 1.28387,10.411471 1.67156,43.6126 2.37526,203.413629 0.4672,106.09362 1.16357,193.89096 1.59067,200.54866 0.41782,6.51305 0.75861,40.63498 0.75731,75.82649 l -0.002,63.98457 -15.0889,-0.15285 c -8.29889,-0.0841 -63.04867,-0.37809 -121.66618,-0.65338 z"
       id="path1565"
       transform="scale(0.26458332)" />
    <path
       style="fill:#fffa40;fill-opacity:1;stroke-width:1.37447;stroke-linecap:round;stroke-linejoin:round"
       d="M 375.42061,573.14596 C 314.70212,572.87095 215.25864,572.59602 154.43509,572.535 l -110.588253,-0.11094 0.0117,-3.24698 c 0.0064,-1.78584 0.276331,-3.66339 0.59977,-4.17234 0.665349,-1.04696 6.264484,-3.55968 6.264484,-2.81132 0,0.26719 0.515697,0.0578 1.145993,-0.46529 0.630296,-0.5231 1.145992,-2.07776 1.145992,-3.45481 0,-4.12331 3.606345,-8.43384 46.96612,-56.13679 C 148.85768,448.36396 381.33141,193.97859 473.16222,93.781274 c 54.78832,-59.779948 60.77747,-65.96808 62.33725,-64.408303 1.45089,1.450887 1.91114,35.697975 2.61622,194.669429 0.43517,98.11604 1.14045,187.50344 1.56727,198.63867 0.66692,17.39882 0.89342,55.77075 0.78578,133.1261 l -0.0252,18.14488 -27.31281,-0.15304 c -15.02205,-0.0842 -76.99159,-0.37804 -137.71008,-0.65305 z"
       id="path1567"
       transform="scale(0.26458332)" />
    <path
       style="fill:#00fb3a;fill-opacity:1;stroke-width:1.37447;stroke-linecap:round;stroke-linejoin:round"
       d="M 348.68079,573.14982 C 285.44112,572.87355 190.9827,572.59724 138.7732,572.53579 l -94.926362,-0.11173 v -3.8312 c 0,-3.49802 0.215936,-3.96477 2.482984,-5.367 1.365641,-0.84468 3.084287,-1.3876 3.819213,-1.20648 1.640036,0.40417 2.12617,-0.32319 2.561436,-3.83253 0.577001,-4.65206 4.898995,-10.00975 33.807535,-41.90894 C 138.64424,458.75911 471.94464,94.135282 503.44756,60.165498 c 18.94713,-20.430811 30.16836,-31.705787 31.55463,-31.705787 0.47155,0 0.86961,0.429747 0.8846,0.954994 0.015,0.525246 0.34439,4.39297 0.732,8.594942 0.3876,4.201972 1.05462,82.759743 1.48226,174.572833 0.42764,91.81308 1.14677,181.02858 1.59808,198.25667 0.45131,17.22808 0.88937,60.89039 0.97347,97.02735 l 0.15291,65.70356 -38.58175,0.041 c -21.21995,0.0225 -90.32329,-0.18501 -153.56297,-0.46127 z"
       id="path875"
       transform="scale(0.26458332)" />
  </g>
  <path
     style="fill:#00fb3a;fill-opacity:1;stroke-width:1.37447;stroke-linecap:round;stroke-linejoin:round"
     d=""
     id="path877"
     transform="scale(0.26458332)" />
</svg>
