<?xml version="1.0" encoding="UTF-8" standalone="no"?>
<svg
   xmlns:dc="http://purl.org/dc/elements/1.1/"
   xmlns:cc="http://creativecommons.org/ns#"
   xmlns:rdf="http://www.w3.org/1999/02/22-rdf-syntax-ns#"
   xmlns:svg="http://www.w3.org/2000/svg"
   xmlns="http://www.w3.org/2000/svg"
   xmlns:sodipodi="http://sodipodi.sourceforge.net/DTD/sodipodi-0.dtd"
   xmlns:inkscape="http://www.inkscape.org/namespaces/inkscape"
   width="142.92265mm"
   height="152.09126mm"
   viewBox="0 0 142.92265 152.09126"
   version="1.1"
   id="svg6"
   sodipodi:docname="Bleuclair(blanc).svg"
   inkscape:version="1.0.1 (3bc2e813f5, 2020-09-07)">
  <metadata
     id="metadata12">
    <rdf:RDF>
      <cc:Work
         rdf:about="">
        <dc:format>image/svg+xml</dc:format>
        <dc:type
           rdf:resource="http://purl.org/dc/dcmitype/StillImage" />
        <dc:title></dc:title>
      </cc:Work>
    </rdf:RDF>
  </metadata>
  <defs
     id="defs10" />
  <sodipodi:namedview
     pagecolor="#ffffff"
     bordercolor="#666666"
     borderopacity="1"
     objecttolerance="10"
     gridtolerance="10"
     guidetolerance="10"
     inkscape:pageopacity="0"
     inkscape:pageshadow="2"
     inkscape:window-width="1920"
     inkscape:window-height="995"
     id="namedview8"
     showgrid="false"
     inkscape:zoom="1.3089093"
     inkscape:cx="302.01405"
     inkscape:cy="245.7056"
     inkscape:window-x="0"
     inkscape:window-y="24"
     inkscape:window-maximized="1"
     inkscape:current-layer="svg6"
     inkscape:document-rotation="0" />
  <g
     id="g12250">
    <rect
       style="fill:#fff9f9;stroke-width:5.14599;stroke-linecap:round;stroke-linejoin:round"
       id="rect12236"
       width="142.46184"
       height="151.63043"
       x="0.23041171"
       y="0.230409" />
    <g
       id="g1150">
      <g
         id="g1084">
        <path
           style="fill:#001e7c;fill-opacity:1;stroke:#000000;stroke-width:0.460818px;stroke-linecap:butt;stroke-linejoin:miter;stroke-opacity:1"
           d="m 0.23041171,0.230409 c 4.4e-4,48.178896 0,144.535211 0,144.535211 L 132.45995,0.230409 Z"
           id="path841" />
        <path
           style="fill:#fffa40;fill-opacity:1;stroke:#000000;stroke-width:0.460818px;stroke-linecap:butt;stroke-linejoin:miter;stroke-opacity:1"
           d="m 142.69225,151.86085 c -4.5e-4,-48.17889 0,-144.5352072 0,-144.5352072 L 10.462708,151.86085 Z"
           id="path841-3" />
      </g>
      <path
         style="fill:#ff001f;fill-opacity:1;stroke-width:1.37447;stroke-linecap:round;stroke-linejoin:round"
         d="M 1.5459904,336.40694 V 127.27458 H 193.08899 384.63198 l -3.49764,3.62898 c -1.9237,1.99593 -86.78614,94.73536 -188.58319,206.08761 C 90.754096,448.34342 6.1336824,540.81995 4.5057917,542.49455 l -2.9598013,3.04475 z"
         id="path1138"
         transform="scale(0.26458332)" />
      <path
         style="fill:#ff001f;fill-opacity:1;stroke-width:1.37447;stroke-linecap:round;stroke-linejoin:round"
         d="M 1.5459904,64.245004 V 1.2154277 H 250.28998 c 142.79363,0 248.63553,0.2862055 248.48934,0.6719363 -0.14007,0.369565 -25.8676,28.711147 -57.17228,62.981295 l -56.91762,62.309361 -191.57172,0.0483 -191.5717096,0.0483 z"
         id="path1140"
         transform="scale(0.26458332)" />
      <path
         style="fill:#ff001f;fill-opacity:1;stroke-width:1.37447;stroke-linecap:round;stroke-linejoin:round"
         d="M 1.5459904,273.75591 V 1.2154277 H 231.76673 c 126.62141,0 238.5122,0.2264689 248.6462,0.5032642 l 18.42547,0.5032643 -1.97182,2.3617165 C 494.35206,7.5954 452.13074,54.022984 414.10322,95.592287 159.36131,374.06014 5.5097772,542.18234 3.740112,544.01909 l -2.1941216,2.27729 z"
         id="path1142"
         transform="scale(0.26458332)" />
    </g>
    <path
       style="fill:#00fb3a;fill-opacity:1;stroke-width:1.37447;stroke-linecap:round;stroke-linejoin:round"
       d="m 41.56324,572.8456 c 0.156505,-0.46952 96.33201,-105.84351 213.72334,-234.16443 L 468.72536,105.37041 h 35.02066 35.02066 v 234.16442 234.16443 h -248.744 c -182.90881,0 -248.668682,-0.22594 -248.45944,-0.85366 z"
       id="path1206"
       transform="scale(0.26458332)" />
    <path
       style="fill:#00fb3a;fill-opacity:1;stroke-width:1.37447;stroke-linecap:round;stroke-linejoin:round"
       d="m 471.6272,102.31733 c 5.71765,-6.761038 66.03346,-72.479636 66.56648,-72.529169 0.31515,-0.02929 0.573,16.964738 0.573,37.764499 v 37.81775 h -34.8607 -34.86069 z"
       id="path1208"
       transform="scale(0.26458332)" />
    <path
       style="fill:#0087fa;fill-opacity:1;stroke-width:1.37447;stroke-linecap:round;stroke-linejoin:round"
       d="M 1.5050611,273.46994 V 0.55733217 L 247.32041,0.94437123 C 382.51885,1.1572427 494.50686,1.624957 496.18266,1.9837365 l 3.04689,0.6523263 -14.49717,16.0324092 C 445.60548,61.938896 4.6643637,543.79228 2.7839498,545.334 1.5885247,546.31411 1.5050611,528.57156 1.5050611,273.46994 Z"
       id="path1266"
       transform="scale(0.26458332)" />
    <path
       style="fill:#0087fa;fill-opacity:1;stroke-width:1.37447;stroke-linecap:round;stroke-linejoin:round"
       d="m 58.55045,572.9578 -16.680116,-0.40453 1.949668,-1.83004 c 1.072318,-1.00653 1.781499,-2.10215 1.575958,-2.43473 -0.205541,-0.33256 1.0489,-1.74373 2.787647,-3.13592 1.738747,-1.39218 3.378652,-3.08642 3.644235,-3.76498 0.265583,-0.67855 10.963193,-12.71147 23.772468,-26.73982 98.19735,-107.5429 388.76317,-425.32385 394.25997,-431.18736 1.96959,-2.10099 10.91468,-11.899222 19.87797,-21.773855 8.9633,-9.874634 23.36468,-25.619008 32.00306,-34.987499 l 15.70615,-17.033619 0.69937,3.281711 c 0.4127,1.936576 0.80803,113.433212 0.96448,272.016912 L 539.37643,573.69926 307.3035,573.5308 C 179.66339,573.4381 67.724513,573.1803 58.55045,572.9578 Z"
       id="path1268"
       transform="scale(0.26458332)" />
  </g>
</svg>
