<?xml version="1.0" encoding="UTF-8" standalone="no"?>
<svg
   xmlns:dc="http://purl.org/dc/elements/1.1/"
   xmlns:cc="http://creativecommons.org/ns#"
   xmlns:rdf="http://www.w3.org/1999/02/22-rdf-syntax-ns#"
   xmlns:svg="http://www.w3.org/2000/svg"
   xmlns="http://www.w3.org/2000/svg"
   xmlns:sodipodi="http://sodipodi.sourceforge.net/DTD/sodipodi-0.dtd"
   xmlns:inkscape="http://www.inkscape.org/namespaces/inkscape"
   width="142.92265mm"
   height="152.09126mm"
   viewBox="0 0 142.92265 152.09126"
   version="1.1"
   id="svg6"
   sodipodi:docname="Rougevif(blanc).svg"
   inkscape:version="1.0.1 (3bc2e813f5, 2020-09-07)">
  <metadata
     id="metadata12">
    <rdf:RDF>
      <cc:Work
         rdf:about="">
        <dc:format>image/svg+xml</dc:format>
        <dc:type
           rdf:resource="http://purl.org/dc/dcmitype/StillImage" />
        <dc:title></dc:title>
      </cc:Work>
    </rdf:RDF>
  </metadata>
  <defs
     id="defs10" />
  <sodipodi:namedview
     pagecolor="#ffffff"
     bordercolor="#666666"
     borderopacity="1"
     objecttolerance="10"
     gridtolerance="10"
     guidetolerance="10"
     inkscape:pageopacity="0"
     inkscape:pageshadow="2"
     inkscape:window-width="1920"
     inkscape:window-height="995"
     id="namedview8"
     showgrid="false"
     inkscape:zoom="1.3089093"
     inkscape:cx="344.86082"
     inkscape:cy="295.45715"
     inkscape:window-x="0"
     inkscape:window-y="24"
     inkscape:window-maximized="1"
     inkscape:current-layer="svg6"
     inkscape:document-rotation="0" />
  <path
     style="fill:#003cf9;fill-opacity:1;stroke-width:1.37447;stroke-linecap:round;stroke-linejoin:round"
     d=""
     id="path1467"
     transform="scale(0.26458332)" />
  <path
     style="fill:#003cf9;fill-opacity:1;stroke-width:1.37447;stroke-linecap:round;stroke-linejoin:round"
     d=""
     id="path1469"
     transform="scale(0.26458332)" />
  <path
     style="fill:#fffa40;fill-opacity:1;stroke-width:1.37447;stroke-linecap:round;stroke-linejoin:round"
     d=""
     id="path1569"
     transform="scale(0.26458332)" />
  <path
     style="fill:#00fb3a;fill-opacity:1;stroke-width:1.37447;stroke-linecap:round;stroke-linejoin:round"
     d=""
     id="path877"
     transform="scale(0.26458332)" />
  <g
     id="g2788">
    <rect
       style="fill:#fff9f9;stroke-width:5.14599;stroke-linecap:round;stroke-linejoin:round"
       id="rect2750"
       width="142.79243"
       height="152.20284"
       x="0.01361081"
       y="-0.4115113" />
    <g
       id="g1458">
      <g
         id="g1339">
        <g
           id="g1150">
          <g
             id="g1084">
            <path
               style="fill:#001e7c;fill-opacity:1;stroke:#000000;stroke-width:0.460818px;stroke-linecap:butt;stroke-linejoin:miter;stroke-opacity:1"
               d="m 0.23041171,0.230409 c 4.4e-4,48.178896 0,144.535211 0,144.535211 L 132.45995,0.230409 Z"
               id="path841" />
            <path
               style="fill:#fffa40;fill-opacity:1;stroke:#000000;stroke-width:0.460818px;stroke-linecap:butt;stroke-linejoin:miter;stroke-opacity:1"
               d="m 142.69225,151.86085 c -4.5e-4,-48.17889 0,-144.5352072 0,-144.5352072 L 10.462708,151.86085 Z"
               id="path841-3" />
          </g>
          <path
             style="fill:#ff001f;fill-opacity:1;stroke-width:1.37447;stroke-linecap:round;stroke-linejoin:round"
             d="M 1.5459904,336.40694 V 127.27458 H 193.08899 384.63198 l -3.49764,3.62898 c -1.9237,1.99593 -86.78614,94.73536 -188.58319,206.08761 C 90.754096,448.34342 6.1336824,540.81995 4.5057917,542.49455 l -2.9598013,3.04475 z"
             id="path1138"
             transform="scale(0.26458332)" />
          <path
             style="fill:#ff001f;fill-opacity:1;stroke-width:1.37447;stroke-linecap:round;stroke-linejoin:round"
             d="M 1.5459904,64.245004 V 1.2154277 H 250.28998 c 142.79363,0 248.63553,0.2862055 248.48934,0.6719363 -0.14007,0.369565 -25.8676,28.711147 -57.17228,62.981295 l -56.91762,62.309361 -191.57172,0.0483 -191.5717096,0.0483 z"
             id="path1140"
             transform="scale(0.26458332)" />
          <path
             style="fill:#ff001f;fill-opacity:1;stroke-width:1.37447;stroke-linecap:round;stroke-linejoin:round"
             d="M 1.5459904,273.75591 V 1.2154277 H 231.76673 c 126.62141,0 238.5122,0.2264689 248.6462,0.5032642 l 18.42547,0.5032643 -1.97182,2.3617165 C 494.35206,7.5954 452.13074,54.022984 414.10322,95.592287 159.36131,374.06014 5.5097772,542.18234 3.740112,544.01909 l -2.1941216,2.27729 z"
             id="path1142"
             transform="scale(0.26458332)" />
        </g>
        <path
           style="fill:#00fb3a;fill-opacity:1;stroke-width:1.37447;stroke-linecap:round;stroke-linejoin:round"
           d="m 41.56324,572.8456 c 0.156505,-0.46952 96.33201,-105.84351 213.72334,-234.16443 L 468.72536,105.37041 h 35.02066 35.02066 v 234.16442 234.16443 h -248.744 c -182.90881,0 -248.668682,-0.22594 -248.45944,-0.85366 z"
           id="path1206"
           transform="scale(0.26458332)" />
        <path
           style="fill:#00fb3a;fill-opacity:1;stroke-width:1.37447;stroke-linecap:round;stroke-linejoin:round"
           d="m 471.6272,102.31733 c 5.71765,-6.761038 66.03346,-72.479636 66.56648,-72.529169 0.31515,-0.02929 0.573,16.964738 0.573,37.764499 v 37.81775 h -34.8607 -34.86069 z"
           id="path1208"
           transform="scale(0.26458332)" />
        <path
           style="fill:#0087fa;fill-opacity:1;stroke-width:1.37447;stroke-linecap:round;stroke-linejoin:round"
           d="M 1.5050611,273.46994 V 0.55733217 L 247.32041,0.94437123 C 382.51885,1.1572427 494.50686,1.624957 496.18266,1.9837365 l 3.04689,0.6523263 -14.49717,16.0324092 C 445.60548,61.938896 4.6643637,543.79228 2.7839498,545.334 1.5885247,546.31411 1.5050611,528.57156 1.5050611,273.46994 Z"
           id="path1266"
           transform="scale(0.26458332)" />
        <path
           style="fill:#0087fa;fill-opacity:1;stroke-width:1.37447;stroke-linecap:round;stroke-linejoin:round"
           d="m 58.55045,572.9578 -16.680116,-0.40453 1.949668,-1.83004 c 1.072318,-1.00653 1.781499,-2.10215 1.575958,-2.43473 -0.205541,-0.33256 1.0489,-1.74373 2.787647,-3.13592 1.738747,-1.39218 3.378652,-3.08642 3.644235,-3.76498 0.265583,-0.67855 10.963193,-12.71147 23.772468,-26.73982 98.19735,-107.5429 388.76317,-425.32385 394.25997,-431.18736 1.96959,-2.10099 10.91468,-11.899222 19.87797,-21.773855 8.9633,-9.874634 23.36468,-25.619008 32.00306,-34.987499 l 15.70615,-17.033619 0.69937,3.281711 c 0.4127,1.936576 0.80803,113.433212 0.96448,272.016912 L 539.37643,573.69926 307.3035,573.5308 C 179.66339,573.4381 67.724513,573.1803 58.55045,572.9578 Z"
           id="path1268"
           transform="scale(0.26458332)" />
        <path
           style="fill:#001e7c;fill-opacity:1;stroke-width:1.37447;stroke-linecap:round;stroke-linejoin:round"
           d="M 2.5897007,544.60099 C 2.1870835,543.96876 1.7860771,430.86024 1.6218848,271.61726 L 1.3415295,-0.28694678 69.609837,0.27055793 C 107.15741,0.57718552 218.77162,1.0900511 317.64142,1.4102592 c 128.26014,0.4153941 180.00241,0.8213451 180.59798,1.416906 0.60362,0.6036159 -5.40248,7.6695498 -21.69402,25.5221508 -12.3908,13.578092 -26.60455,29.156811 -31.58613,34.619374 -10.22625,11.213626 -79.00574,86.51554 -105.0219,114.98123 -16.32464,17.86166 -35.91659,39.27233 -61.87019,67.61354 -6.54155,7.14336 -19.28148,21.06716 -28.31095,30.9418 -16.53557,18.0833 -54.69654,59.77806 -99.29259,108.48727 -13.27265,14.4968 -48.98655,53.51784 -79.364229,86.71342 -30.377676,33.19557 -57.085113,62.24648 -59.34986,64.55756 -2.2647475,2.31109 -5.0975179,5.37536 -6.2950458,6.80949 -1.7272778,2.06855 -2.3194196,2.38439 -2.8647845,1.52799 z"
           id="path1322"
           transform="scale(0.26458332)" />
        <path
           style="fill:#00fb3a;fill-opacity:1;stroke-width:1.37447;stroke-linecap:round;stroke-linejoin:round"
           d="M 238.34347,572.92484 C 130.98309,572.69575 43.003548,572.43249 42.833373,572.3398 c -0.170175,-0.0927 0.340897,-0.88711 1.135716,-1.76537 0.794818,-0.87827 1.449748,-2.15626 1.4554,-2.83999 0.0057,-0.68373 0.781454,-1.62872 1.724005,-2.09996 2.511883,-1.25587 4.786074,-3.48233 6.046355,-5.91944 1.049293,-2.02911 13.20117,-15.82025 30.425164,-34.52945 4.255243,-4.62217 17.312767,-18.88978 29.016727,-31.70579 11.70395,-12.81601 26.15012,-28.63071 32.10261,-35.14376 5.95248,-6.51306 20.56241,-22.49965 32.4665,-35.52577 24.28447,-26.57338 35.59418,-38.94683 60.42798,-66.11157 9.42455,-10.30914 29.68415,-32.47948 45.02134,-49.26742 15.3372,-16.78794 35.44241,-38.77928 44.67825,-48.86965 9.23584,-10.09037 24.10607,-26.33852 33.04496,-36.107 40.80953,-44.59693 49.82454,-54.44788 65.54952,-71.62762 9.23131,-10.08534 27.61383,-30.18641 40.85004,-44.66905 53.14815,-58.152996 69.6243,-76.050628 70.19704,-76.25327 0.3299,-0.116721 0.65607,0.227076 0.72483,0.763995 0.2269,1.771753 1.6303,339.735815 1.83696,442.374385 l 0.20268,100.65646 -53.09765,-0.17909 c -29.2037,-0.0985 -140.93795,-0.36652 -248.29833,-0.5956 z"
           id="path1324"
           transform="scale(0.26458332)" />
      </g>
      <path
         style="fill:#003cf9;fill-opacity:1;stroke-width:0.363662;stroke-linecap:round;stroke-linejoin:round"
         d="M 0.63790959,142.82197 C 0.5819268,142.06624 0.51293445,119.27565 0.48459327,92.176214 L 0.43306384,42.904516 H 47.19474 93.956418 l -0.821333,0.859097 C 92.683352,44.236117 74.176159,64.449944 52.007982,88.683228 5.3857866,139.64859 1.3322282,144.05465 0.99176917,144.13588 c -0.17537146,0.0418 -0.28304459,-0.35795 -0.35385958,-1.31391 z"
         id="path1449" />
      <path
         style="fill:#003cf9;fill-opacity:1;stroke-width:0.363662;stroke-linecap:round;stroke-linejoin:round"
         d="M 0.59284859,142.71129 C 0.52288308,141.90526 0.44689977,109.43142 0.42399681,70.547203 l -0.0416418,-70.69857382 3.94173579,0.00206 c 2.1679547,0.001134 11.9010102,0.09292436 21.6290122,0.20398037 9.728003,0.11105605 31.604636,0.24322056 48.614742,0.29369895 37.159395,0.11027248 56.489955,0.28411616 56.896595,0.51168261 0.26375,0.14760109 0.26099,0.21377969 -0.0225,0.53859649 -0.17773,0.2036754 -0.35777,0.4780913 -0.40007,0.6098134 -0.10171,0.3167173 -1.88321,2.2919667 -20.838,23.104235 -8.86152,9.729914 -19.003908,20.871343 -22.538641,24.75873 -9.857657,10.841151 -71.589739,78.273034 -79.4407788,86.775654 -3.8239881,4.14135 -7.0768411,7.52973 -7.22856229,7.52973 -0.1959851,0 -0.31268907,-0.42433 -0.40306668,-1.46552 z"
         id="path1453" />
      <path
         style="fill:#003cf9;fill-opacity:1;stroke-width:0.363662;stroke-linecap:round;stroke-linejoin:round"
         d="m 142.32412,25.469917 c -0.0679,-1.250743 -0.0456,-2.59245 0.0496,-2.98157 0.12218,-0.499721 0.17906,0.168108 0.19367,2.274079 0.0114,1.639863 -0.0109,2.981569 -0.0496,2.981569 -0.0386,0 -0.12579,-1.023334 -0.19367,-2.274078 z"
         id="path1459" />
      <path
         style="fill:#003cf9;fill-opacity:1;stroke-width:0.363662;stroke-linecap:round;stroke-linejoin:round"
         d="m 142.21507,15.767182 c -0.0199,-2.278098 0.0425,-3.58799 0.17085,-3.58799 0.23316,0 0.23905,2.86173 0.0112,5.457788 -0.13094,1.492134 -0.1549,1.246129 -0.18208,-1.869798 z"
         id="path1461" />
      <path
         style="fill:#003cf9;fill-opacity:1;stroke-width:0.363662;stroke-linecap:round;stroke-linejoin:round"
         d="m 142.22258,10.76421 c -0.0244,-0.8338286 -0.10094,-1.74346 -0.17013,-2.0214029 -0.095,-0.3816006 -0.0675,-0.4513339 0.11216,-0.2847655 0.15884,0.1472295 0.21542,0.8194463 0.17014,2.0214024 l -0.0678,1.800818 z"
         id="path1473" />
      <path
         style="fill:#003cf9;fill-opacity:1;stroke-width:0.363662;stroke-linecap:round;stroke-linejoin:round"
         d="m 142.44649,10.96635 c 0,-0.611474 0.0379,-0.861623 0.0842,-0.555886 0.0463,0.305738 0.0463,0.806035 0,1.111772 -0.0463,0.305737 -0.0842,0.05559 -0.0842,-0.555886 z"
         id="path1475" />
      <path
         style="fill:#ff5459;fill-opacity:1;stroke-width:0.363662;stroke-linecap:round;stroke-linejoin:round"
         d="M 0.60847523,142.91343 C 0.54837737,142.21857 0.45161674,117.61305 0.39345162,88.234481 L 0.28769682,34.818906 H 50.836412 c 27.801791,0 50.518398,0.0769 50.481338,0.170894 -0.18587,0.471403 -93.0053049,101.87387 -97.6377228,106.6663 -1.3401029,1.38639 -2.5548406,2.52071 -2.69941696,2.52071 -0.17603358,0 -0.29896093,-0.41733 -0.37213501,-1.26338 z"
         id="path933" />
      <path
         style="fill:#ff5459;fill-opacity:1;stroke-width:0.363662;stroke-linecap:round;stroke-linejoin:round"
         d="M 0.28128519,17.33377 V -0.1513666 H 8.3982797 c 4.4643473,0 18.2680043,0.08669416 30.6747893,0.19265367 12.406789,0.10595955 34.746857,0.24743509 49.644597,0.31439009 32.458204,0.14587714 42.591464,0.26159345 42.818844,0.48896768 0.28657,0.28656796 -0.4206,1.37706496 -2.15116,3.31721796 -0.90858,1.0186275 -7.54616,8.3331732 -14.75017,16.2545462 l -13.0982,14.402497 H 50.90913 0.28128519 Z"
         id="path935" />
      <path
         style="fill:#ff5459;fill-opacity:1;stroke-width:0.363662;stroke-linecap:round;stroke-linejoin:round"
         d="m 109.53812,151.63517 c -18.344235,-0.067 -47.886291,-0.13527 -65.649018,-0.1516 l -32.295867,-0.0297 0.09541,-0.52616 c 0.109704,-0.60498 0.657971,-1.51264 0.876486,-1.45102 0.329105,0.0928 1.048571,-0.4874 1.492979,-1.20397 0.259435,-0.41833 0.472232,-0.82163 0.472882,-0.89623 0.0018,-0.2042 3.047337,-3.63231 9.217801,-10.37565 3.051963,-3.33532 18.143418,-19.84513 33.536568,-36.68847 C 126.70447,24.353268 141.75465,7.9342455 141.96198,7.9342455 c 0.0723,0 0.13559,0.3865933 0.14068,0.8590962 0.0958,8.8959893 0.48953,80.5657933 0.51665,94.0457783 0.0203,10.11712 0.10322,25.26248 0.18415,33.65636 0.0809,8.39387 0.13379,15.26159 0.11748,15.26159 -0.0163,0 -15.03859,-0.0549 -33.38282,-0.1219 z"
         id="path937" />
      <path
         style="fill:#ff5459;fill-opacity:1;stroke-width:0.363662;stroke-linecap:round;stroke-linejoin:round"
         d="M 0.82449131,143.69722 C 0.65940884,143.26702 0.49545902,110.69097 0.36670981,52.738213 L 0.24911736,-0.19265517 24.572572,-0.07295112 c 13.377899,0.06583724 28.325833,0.15678891 33.217629,0.20211485 4.891794,0.0453259 22.083828,0.17777062 38.204517,0.29432156 16.120692,0.11655091 30.695722,0.27178948 32.388972,0.34497455 l 3.07863,0.1330638 -0.0421,0.50828186 c -0.0231,0.2795551 -0.15777,0.552684 -0.2992,0.6069532 -0.14142,0.05427 -0.25713,0.1895122 -0.25713,0.30054 0,0.2348605 -0.51733,0.8692433 -2.50204,3.0681482 -0.79183,0.8772924 -1.58782,1.7653531 -1.76887,1.9734677 -0.27377,0.3146989 -3.02749,3.3530804 -3.71363,4.0975224 -1.88561,2.04582 -4.98225,5.457322 -6.16528,6.792166 -0.83383,0.940826 -1.97578,2.21143 -2.53767,2.823563 -2.23567,2.435593 -3.03038,3.299856 -3.23254,3.515424 -1.02034,1.088043 -7.73346,8.506836 -8.5722,9.47329 l -0.65785,0.758026 -18.222227,0.04943 -18.222221,0.04943 18.055547,0.05272 18.055551,0.05272 -1.682185,1.881677 c -0.9252,1.03492 -2.910186,3.228893 -4.411078,4.87549 -1.500891,1.646597 -3.764107,4.14225 -5.029369,5.545894 -1.265261,1.403641 -2.725512,3.006892 -3.245003,3.562776 -0.519491,0.555887 -1.935371,2.10226 -3.146398,3.436387 -1.211027,1.334124 -2.570631,2.824763 -3.021343,3.31253 -0.450716,0.487767 -0.91145,0.988065 -1.023861,1.111771 -3.26894,3.597529 -4.808839,5.28365 -5.651421,6.188064 -0.569671,0.611474 -1.577313,1.706232 -2.239208,2.432796 -3.404383,3.737007 -5.160322,5.656326 -6.271707,6.855264 -0.675177,0.728366 -1.630291,1.779122 -2.122471,2.335006 -0.492183,0.555887 -0.946079,1.056182 -1.008655,1.111771 -0.06258,0.05559 -1.103739,1.192628 -2.313697,2.526755 -1.209953,1.334127 -2.568683,2.824766 -3.019396,3.312533 -0.450715,0.487765 -0.912883,0.988063 -1.027038,1.111771 -0.11416,0.123706 -8.246946,9.002866 -18.072856,19.731459 -9.825912,10.7286 -18.332921,20.00684 -18.904463,20.61831 -0.571542,0.61147 -2.035368,2.20333 -3.252947,3.53746 -1.217578,1.33412 -2.311835,2.51664 -2.431681,2.62782 -0.119847,0.11118 -1.209388,1.2937 -2.421203,2.62782 -1.2118144,1.33413 -2.296279,2.52558 -2.409921,2.64766 -5.2778681,5.67013 -5.6699978,6.07162 -6.8412579,7.00454 -0.8011602,0.63814 -0.86413996,0.65552 -1.00883979,0.27844 z"
         id="path939" />
      <path
         style="fill:#ff5459;fill-opacity:1;stroke-width:0.363662;stroke-linecap:round;stroke-linejoin:round"
         d="M 0.78821654,143.81934 C 0.60661769,143.36493 0.09288691,2.4661279 0.26340221,-0.1193066 c 0.014627,-0.22178244 0.81835759,-0.24964563 4.41443459,-0.15303668 2.4181034,0.0649626 17.5407242,0.16879081 33.6058242,0.2307294 16.065103,0.0619386 30.664686,0.15220381 32.443519,0.20058934 1.778833,0.0483855 15.468787,0.17983467 30.42212,0.2921092 14.95332,0.11227451 27.89283,0.26180694 28.75445,0.33229432 1.37092,0.11215124 1.56659,0.17707977 1.56659,0.51982522 0,0.4306545 -0.81135,1.62402 -1.58791,2.3355599 -0.273,0.2501485 -0.43044,0.4548156 -0.34985,0.4548156 0.0806,0 -0.29186,0.4710146 -0.82766,1.046699 -2.71365,2.9156635 -3.41482,3.6899893 -4.18229,4.6185929 -0.31916,0.3861704 -1.56195,1.7527604 -2.76175,3.0368674 -1.19981,1.284107 -2.57602,2.780927 -3.05824,3.326268 -0.89308,1.00997 -4.30793,4.812075 -5.61387,6.250502 -0.39638,0.436586 -1.27848,1.391699 -1.96023,2.122473 -1.44754,1.551635 -1.90818,2.056399 -3.81397,4.179227 -0.77824,0.866873 -1.90922,2.126504 -2.51329,2.799181 -0.60407,0.672674 -1.36418,1.495933 -1.68912,1.829464 -0.32494,0.333531 -0.72805,0.811088 -0.8958,1.061236 -0.30495,0.454742 -0.30611,0.454824 -7.002917,0.501073 l -6.697916,0.04626 6.450393,0.105347 6.4504,0.105346 -0.6894,0.733812 c -0.746164,0.794239 -1.43995,1.566751 -3.788703,4.218627 -1.629347,1.839627 -2.910234,3.239707 -4.126717,4.510728 -0.416645,0.435324 -1.043847,1.122129 -1.393785,1.526233 -0.900713,1.040138 -4.13404,4.569941 -5.294447,5.779923 -0.537504,0.560464 -0.947314,1.019024 -0.910693,1.019024 0.03662,0 -0.342271,0.445159 -0.841984,0.989238 -1.565624,1.704623 -3.515601,3.808642 -4.041746,4.361031 -0.524936,0.551119 -2.934353,3.226184 -3.575026,3.969186 -0.201692,0.233905 -1.283626,1.416426 -2.4043,2.627824 -1.120672,1.211397 -2.616541,2.839285 -3.324153,3.617526 -0.707613,0.77824 -1.473515,1.602007 -1.702007,1.830596 -0.228494,0.228589 -1.097666,1.178753 -1.931495,2.111473 -0.833826,0.932722 -2.028026,2.246587 -2.653773,2.9197 -0.625745,0.673114 -1.708526,1.860585 -2.406179,2.638825 -0.697651,0.77824 -1.689055,1.869797 -2.203119,2.425681 -0.514065,0.555887 -2.289133,2.488854 -3.944594,4.295484 -1.655458,1.806628 -3.085642,3.284778 -3.178183,3.284778 -0.09254,0 -0.168253,0.101886 -0.168253,0.226409 0,0.124526 -0.523037,0.767202 -1.162307,1.428171 -0.639268,0.660969 -1.29875,1.359871 -1.465516,1.553114 -0.870845,1.009116 -4.089072,4.513863 -5.090184,5.543368 -0.631645,0.649562 -1.155898,1.219255 -1.165003,1.265991 -0.01799,0.09231 -1.142291,1.335058 -2.740056,3.028722 -0.555887,0.58924 -1.27204,1.37434 -1.59145,1.74466 -0.319411,0.37031 -1.365486,1.52578 -2.324614,2.56769 -0.959127,1.04192 -1.92579,2.09408 -2.148146,2.33813 -1.899118,2.08445 -4.218797,4.60381 -5.053507,5.48853 -0.555887,0.58919 -1.55648,1.67864 -2.223543,2.421 -0.667064,0.74235 -1.734559,1.90712 -2.372212,2.58838 -0.637654,0.68126 -1.160692,1.31224 -1.162307,1.40219 -0.0016,0.0899 -0.0939,0.10731 -0.205077,0.0386 -0.111177,-0.0687 -0.202141,-0.005 -0.202141,0.14093 0,0.14622 -0.489567,0.73842 -1.087927,1.31599 -0.598361,0.57758 -1.056039,1.08203 -1.017065,1.12101 0.03898,0.039 -0.465953,0.58918 -1.12206,1.22268 -0.656109,0.63351 -1.135494,1.15183 -1.065301,1.15183 0.07019,0 -0.430419,0.55117 -1.112473,1.22482 -0.682054,0.67365 -1.268623,1.2987 -1.303486,1.38899 -0.03486,0.0903 -1.11652,1.29017 -2.403683,2.66638 -1.287162,1.37622 -2.966853,3.18443 -3.732647,4.01826 -2.1983433,2.39365 -3.3418419,3.63362 -4.5608739,4.94563 -0.6232723,0.67081 -1.6238666,1.75396 -2.2235434,2.40701 -0.5996768,0.65305 -1.6042705,1.58374 -2.2324312,2.06821 -0.9893018,0.763 -1.16082552,0.83402 -1.28199296,0.53084 z"
         id="path941" />
      <path
         style="fill:#ff5459;fill-opacity:1;stroke-width:0.363662;stroke-linecap:round;stroke-linejoin:round"
         d="m 94.836031,34.874547 c 0.363318,-0.04499 0.909095,-0.04406 1.212842,0.0021 0.303747,0.04612 0.0065,0.08293 -0.660577,0.0818 -0.667063,-0.0011 -0.91558,-0.03887 -0.552265,-0.08386 z"
         id="path943" />
      <path
         style="fill:#ff5459;fill-opacity:1;stroke-width:0.363662;stroke-linecap:round;stroke-linejoin:round"
         d="M 0.81423262,143.81718 C 0.68588704,143.60951 0.50932361,116.82163 0.37826289,77.672648 0.32001477,60.273422 0.21882856,35.656738 0.15340468,22.968903 0.07399772,7.5692917 0.10214097,-0.14171952 0.23805922,-0.22572163 0.46605608,-0.36663144 71.063336,-0.0220358 76.286039,0.14547969 c 1.834422,0.0588382 14.159927,0.19566465 27.390011,0.30405883 13.23008,0.10839417 24.8961,0.25343055 25.92449,0.32230302 1.74937,0.11715746 1.8698,0.15365885 1.8698,0.56673126 0,0.2428297 -0.15487,0.6664155 -0.34415,0.9413018 -0.48073,0.6981406 -2.53647,3.1140538 -3.77936,4.4415292 -0.57251,0.6114742 -1.67545,1.8394766 -2.45098,2.7288938 -0.77553,0.8894174 -1.54821,1.7535674 -1.71708,1.9203334 -0.31141,0.307537 -4.31388,4.683332 -5.63987,6.165917 -0.39805,0.44506 -1.5424,1.717079 -2.54299,2.82671 -1.0006,1.109629 -1.91023,2.11859 -2.02141,2.242132 -0.11117,0.123542 -1.11177,1.214237 -2.22354,2.423764 -1.11177,1.209526 -2.5217,2.752719 -3.13317,3.429311 -0.61148,0.676593 -2.15785,2.383155 -3.43639,3.792361 l -2.32461,2.56219 -5.255652,0.04978 -5.255646,0.04978 5.002971,0.05776 c 2.751635,0.03177 5.002967,0.11122 5.002967,0.176554 0,0.06534 -0.79592,1.001646 -1.768722,2.080691 -0.972801,1.079045 -2.450065,2.729558 -3.282814,3.667808 -0.832747,0.938249 -2.025695,2.251688 -2.650996,2.91875 -0.6253,0.667063 -1.581298,1.709418 -2.124437,2.316343 -0.543142,0.606925 -1.988127,2.18287 -3.211076,3.502099 -1.222946,1.319228 -2.713495,2.960285 -3.312324,3.646794 -0.896268,1.027501 -4.595378,5.061175 -5.391798,5.879457 -0.117824,0.12106 -1.063222,1.175223 -2.100879,2.342583 -1.037656,1.16736 -2.896959,3.213436 -4.131786,4.546833 -1.234826,1.333397 -2.745435,2.970644 -3.356908,3.638328 -0.611476,0.667686 -1.158886,1.259543 -1.21647,1.315238 -0.05758,0.0557 -1.054841,1.147342 -2.216131,2.42588 -1.161288,1.278538 -2.487822,2.733947 -2.947853,3.234245 -0.460031,0.500298 -1.910953,2.092153 -3.22427,3.537455 -1.313318,1.445302 -3.497098,3.810344 -4.85285,5.255649 -1.355749,1.445302 -2.728021,2.941521 -3.049492,3.324929 -0.321469,0.383405 -0.766418,0.885703 -0.988772,1.116216 -0.918278,0.951965 -6.752751,7.309418 -7.782403,8.479982 -0.993129,1.129049 -2.380475,2.64776 -9.985869,10.93143 -3.379121,3.68048 -4.213609,4.58708 -5.392701,5.85872 -0.62022,0.6689 -1.575331,1.71103 -2.122472,2.31584 -0.547137,0.6048 -1.317493,1.43821 -1.711906,1.85201 -0.39441,0.41379 -1.014196,1.10147 -1.377303,1.52817 -0.363106,0.4267 -1.26841,1.41436 -2.011785,2.1948 -1.157401,1.21511 -2.172284,2.32494 -4.866175,5.32139 -0.265365,0.29517 -1.374243,1.49911 -2.464173,2.67541 -1.08993,1.17631 -2.26835,2.44979 -2.618711,2.82996 -0.350361,0.38018 -1.062201,1.14605 -1.5818668,1.70194 -0.5196655,0.55588 -1.9894673,2.14564 -3.2662263,3.5328 -2.5380565,2.7575 -3.7869931,3.9589 -4.6803455,4.50218 -0.6606081,0.40174 -0.71321418,0.41392 -0.84768278,0.19635 z"
         id="path945" />
      <path
         style="fill:#ff5459;fill-opacity:1;stroke-width:0.363662;stroke-linecap:round;stroke-linejoin:round"
         d="m 99.586556,34.880964 c 0.196675,-0.05125 0.469564,-0.04788 0.606424,0.0075 0.13685,0.05537 -0.0241,0.0973 -0.357597,0.09318 -0.333531,-0.0041 -0.445503,-0.04942 -0.248827,-0.100674 z"
         id="path947" />
      <path
         style="fill:#ff5459;fill-opacity:1;stroke-width:0.363662;stroke-linecap:round;stroke-linejoin:round"
         d="m 100.7994,34.880964 c 0.19667,-0.05125 0.46956,-0.04788 0.60642,0.0075 0.13685,0.05537 -0.0241,0.0973 -0.3576,0.09318 -0.33353,-0.0041 -0.4455,-0.04942 -0.24882,-0.100674 z"
         id="path949" />
      <path
         style="fill:#ff5459;fill-opacity:1;stroke-width:0.363662;stroke-linecap:round;stroke-linejoin:round"
         d="M 0.78690479,143.77296 C 0.62412401,143.50958 0.24550227,69.09972 0.20885403,30.169679 l -0.028639,-30.42211575 29.71462297,0.0588625 c 16.343045,0.0323744 35.854638,0.14538148 43.359097,0.25112692 7.504459,0.10574543 22.92271,0.28183202 34.262785,0.3913035 11.34007,0.10947151 21.37919,0.255648 22.30915,0.32483662 l 1.69085,0.12579749 -0.11277,0.69494422 c -0.0786,0.4842766 -0.61975,1.2901158 -1.78517,2.6582812 -1.90081,2.2315063 -1.64287,1.94409 -7.56726,8.4318263 -2.43656,2.668253 -6.10637,6.716112 -8.15514,8.995244 -2.04876,2.279132 -3.8675,4.289694 -4.04164,4.467915 -0.17414,0.178221 -0.68047,0.724236 -1.12518,1.21336 -5.34297,5.876623 -6.83453,7.459371 -7.03764,7.467907 -0.13168,0.0055 -1.46742,0.02363 -2.968308,0.04019 l -2.728894,0.03013 2.678358,0.06658 c 1.473094,0.03662 2.678354,0.119111 2.678354,0.183306 0,0.264692 -2.340764,2.884811 -14.134854,15.821715 -0.953233,1.045604 -1.826969,2.000716 -1.941631,2.122474 -0.114663,0.121759 -0.751404,0.815682 -1.414981,1.54205 -0.663581,0.726369 -1.994845,2.181778 -2.95837,3.234245 -0.963522,1.052465 -1.918636,2.105332 -2.122471,2.339698 -0.203838,0.234367 -1.098317,1.223152 -1.987733,2.197295 -0.889418,0.974148 -1.79905,1.971847 -2.021403,2.217113 -3.32532,3.667977 -4.285403,4.716163 -5.65993,6.179328 -0.889418,0.946769 -2.845125,3.075381 -4.346016,4.730247 -1.500891,1.654863 -2.822882,3.108827 -2.937759,3.231033 -0.114874,0.122206 -1.206431,1.310622 -2.425681,2.640931 -1.219253,1.330306 -2.353265,2.562476 -2.520032,2.738156 -0.636476,0.6705 -4.246787,4.613355 -5.579914,6.093881 -0.766659,0.851424 -3.342211,3.671281 -5.723448,6.266349 -2.381236,2.595067 -5.032861,5.491491 -5.892495,6.436501 -2.315983,2.54599 -6.044713,6.62146 -6.656697,7.27572 -0.166767,0.17829 -1.258324,1.36572 -2.425684,2.63874 -3.591157,3.91621 -3.934462,4.28902 -5.389201,5.85248 -1.436039,1.54336 -5.801459,6.31401 -7.122783,7.78396 -0.400513,0.44557 -1.728801,1.89933 -2.95175,3.23058 -1.222948,1.33126 -2.314506,2.5222 -2.425683,2.64653 -0.111177,0.12434 -1.292888,1.39947 -2.626023,2.83363 -5.9661037,6.4182 -7.3496866,7.81992 -8.2895535,8.39821 -0.6960136,0.42824 -0.8376554,0.45248 -1.01043271,0.17292 z"
         id="path951" />
      <path
         style="fill:#de001a;fill-opacity:1;stroke-width:0.363662;stroke-linecap:round;stroke-linejoin:round"
         d="M 0.80186441,143.79717 C 0.74152881,143.69954 0.64498069,135.67205 0.58731303,125.95829 0.52964538,116.24453 0.43704529,101.92949 0.38153505,94.147085 0.32602481,86.364681 0.22053313,61.90529 0.14710908,39.792874 L 0.01361081,-0.41151131 32.641501,-0.26781986 c 17.94534,0.0790303 38.540495,0.22673733 45.767012,0.32823786 7.226514,0.10150054 21.462245,0.27511858 31.634957,0.38581783 10.17271,0.11069928 19.15532,0.25669358 19.96135,0.3244318 1.44353,0.12131243 1.46552,0.13171003 1.46552,0.69295117 0,0.569839 -1.58171,2.7374121 -3.54167,4.8535043 -0.46339,0.5002971 -1.3731,1.5008917 -2.02157,2.2235431 -2.05485,2.2898888 -4.60033,5.0940238 -5.95876,6.5642418 -0.72265,0.782123 -2.04161,2.240318 -2.93103,3.240433 -0.88942,1.000116 -1.66702,1.863874 -1.72801,1.919463 -0.18846,0.171771 -2.43983,2.661575 -4.03014,4.456951 -0.83226,0.93958 -2.06552,2.299589 -2.74057,3.02224 -0.67506,0.722651 -1.67693,1.807168 -2.2264,2.410037 -0.54946,0.602866 -1.77666,1.910619 -2.72712,2.906114 l -1.7281,1.809991 -2.011493,0.01249 -2.011497,0.01249 1.768728,0.07055 c 0.972802,0.0388 1.768722,0.145294 1.768722,0.236646 0,0.167976 -0.93755,1.300242 -2.618055,3.161784 -0.505667,0.560142 -1.276903,1.424292 -1.713857,1.920333 -0.436954,0.496041 -1.255623,1.402852 -1.819262,2.015135 -0.563639,0.612283 -1.797574,1.976729 -2.742073,3.032106 -0.944499,1.055373 -2.313024,2.555605 -3.04116,3.333846 -0.728141,0.77824 -2.229448,2.415383 -3.336237,3.638097 -1.106789,1.222714 -2.477243,2.723605 -3.045454,3.335313 -0.568209,0.611712 -2.443083,2.675168 -4.166383,4.585462 -1.723303,1.910294 -4.161899,4.593706 -5.419106,5.963139 -2.650029,2.886586 -3.379457,3.681455 -6.261631,6.8234 -1.16653,1.271665 -2.257404,2.458747 -2.424171,2.637954 -0.166764,0.179211 -1.076396,1.180579 -2.021403,2.225265 -0.945005,1.044686 -2.225905,2.450055 -2.846443,3.123044 -4.304768,4.66862 -6.587196,7.151952 -8.170204,8.889359 -1.000593,1.09819 -1.912344,2.096736 -2.026115,2.218989 -0.69324,0.744953 -2.979214,3.239024 -3.835953,4.185155 -2.21438,2.445425 -4.91445,5.402856 -6.070515,6.649126 -0.670533,0.72286 -2.125943,2.31104 -3.234245,3.5293 -1.108303,1.21826 -2.151542,2.36241 -2.318308,2.54256 -0.407316,0.44001 -1.83187,1.98805 -3.527587,3.83338 -0.766222,0.83383 -1.812276,1.97087 -2.324563,2.52676 -1.528593,1.65868 -5.681399,6.19135 -6.669841,7.27993 -0.506185,0.55746 -1.882456,2.05836 -3.058379,3.33531 -1.175922,1.27696 -3.850565,4.18648 -5.943651,6.46561 -6.5427468,7.12431 -10.0534266,10.72744 -10.8462714,11.13193 -0.87282959,0.44528 -0.91917808,0.4545 -1.06869819,0.21257 z"
         id="path1129" />
      <path
         style="fill:#ff001f;fill-opacity:1;stroke-width:1.37447;stroke-linecap:round;stroke-linejoin:round"
         d="M 205.62275,572.4226 C 64.871599,572.25252 44.610833,572.08732 44.610833,571.10975 c 0,-1.75412 2.474023,-6.49577 3.166088,-6.06806 1.585809,0.98009 6.103944,-3.79342 6.896714,-7.28653 0.138121,-0.60859 1.188617,-1.9217 2.334435,-2.91801 1.145819,-0.99633 2.005314,-2.06331 1.909988,-2.37109 -0.09533,-0.30776 1.106738,-1.68664 2.671253,-3.06416 1.564514,-1.37752 2.767806,-2.77981 2.673982,-3.11619 -0.09383,-0.33638 1.454919,-2.05041 3.441652,-3.80895 1.986733,-1.75854 3.533823,-3.47753 3.437977,-3.81997 -0.09585,-0.34246 1.460219,-2.06934 3.457923,-3.83753 1.997703,-1.7682 3.466371,-3.4832 3.263707,-3.81112 -0.202664,-0.32792 1.690484,-2.38704 4.206995,-4.57584 2.516512,-2.1888 4.408398,-4.24997 4.204192,-4.58038 -0.204206,-0.33041 1.344201,-2.04727 3.440905,-3.81523 2.096704,-1.76797 3.633762,-3.50319 3.415683,-3.85605 -0.218079,-0.35286 1.836015,-2.60161 4.564654,-4.99722 2.728639,-2.39562 4.787689,-4.63635 4.575659,-4.97942 -0.21203,-0.34306 1.49743,-2.24937 3.7988,-4.23623 2.30137,-1.98685 4.02036,-3.87774 3.81998,-4.20197 -0.20039,-0.32422 1.5186,-2.21511 3.81997,-4.20197 2.30137,-1.98685 4.0241,-3.87169 3.82829,-4.18852 -0.19581,-0.31683 1.8765,-2.5361 4.60514,-4.93171 2.72863,-2.39562 4.79654,-4.62202 4.59534,-4.94757 -0.2012,-0.32554 1.52399,-2.20641 3.83374,-4.1797 2.30976,-1.97328 4.0226,-3.8741 3.80633,-4.22404 -0.21627,-0.34994 1.49658,-2.25076 3.80633,-4.22405 2.30976,-1.97329 4.02977,-3.86252 3.82224,-4.1983 -0.20752,-0.33578 1.85521,-2.57055 4.58385,-4.96617 2.72864,-2.39561 4.79404,-4.62607 4.58977,-4.95657 -0.20426,-0.33051 1.16592,-1.88569 3.04487,-3.45596 1.87894,-1.57028 3.25152,-3.12159 3.05017,-3.44737 -0.20134,-0.32578 1.86645,-2.55237 4.59509,-4.94798 2.72864,-2.39562 4.79341,-4.62709 4.58838,-4.95883 -0.20504,-0.33175 1.68904,-2.38938 4.20906,-4.57251 2.52001,-2.18312 4.41009,-4.24722 4.20017,-4.58688 -0.20992,-0.33966 1.33798,-2.05733 3.43978,-3.81706 2.10179,-1.75972 3.64649,-3.48258 3.43266,-3.82857 -0.21383,-0.34599 2.01365,-2.76422 4.94996,-5.37386 2.93631,-2.60964 5.17733,-5.00597 4.98004,-5.32518 -0.19727,-0.31922 1.53111,-2.1949 3.84087,-4.16819 2.30975,-1.97329 4.02874,-3.86417 3.81997,-4.20197 -0.20877,-0.3378 1.51022,-2.22868 3.81998,-4.20198 2.30975,-1.97328 4.02362,-3.87245 3.80859,-4.22036 -0.21502,-0.34793 1.84157,-2.59264 4.57021,-4.98825 2.72863,-2.39561 4.80612,-4.60651 4.61663,-4.9131 -0.18948,-0.3066 1.53841,-2.18307 3.83979,-4.16993 2.30136,-1.98686 4.01077,-3.89325 3.79868,-4.23642 -0.21209,-0.34318 1.50418,-2.23846 3.81393,-4.21176 2.30976,-1.97328 4.0288,-3.86408 3.8201,-4.20177 -0.20871,-0.33768 1.85306,-2.57402 4.5817,-4.96963 2.72864,-2.39562 4.80095,-4.61488 4.60514,-4.93172 -0.19581,-0.31683 1.52691,-2.20166 3.82828,-4.18852 2.30137,-1.98686 4.01078,-3.89325 3.79869,-4.23643 -0.2121,-0.34317 1.50417,-2.23845 3.81393,-4.21175 2.30975,-1.97328 4.02879,-3.86408 3.82009,-4.20177 -0.2087,-0.33769 1.85307,-2.57402 4.5817,-4.96963 2.72864,-2.39562 4.79629,-4.62244 4.59477,-4.9485 -0.20152,-0.32606 1.34909,-2.03936 3.4458,-3.80732 2.0967,-1.76797 3.63893,-3.49482 3.42717,-3.83745 -0.21175,-0.34263 1.84752,-2.583 4.57616,-4.97862 2.72863,-2.39561 4.80095,-4.61488 4.60514,-4.93171 -0.19582,-0.31683 1.52691,-2.20167 3.82828,-4.18852 2.30137,-1.98686 4.01469,-3.88692 3.80739,-4.22235 -0.20731,-0.33543 1.68203,-2.40071 4.19855,-4.58951 2.5165,-2.18879 4.40739,-4.25157 4.20197,-4.58397 -0.20543,-0.33238 1.68545,-2.39517 4.20197,-4.58396 2.51651,-2.1888 4.41306,-4.24241 4.21456,-4.5636 -0.1985,-0.32118 1.52202,-2.20958 3.8234,-4.19643 2.30137,-1.98686 4.01469,-3.88692 3.80738,-4.22235 -0.20731,-0.33543 1.68204,-2.40071 4.19855,-4.58951 2.51651,-2.18879 4.4074,-4.25157 4.20197,-4.58397 -0.20543,-0.33238 1.68546,-2.39517 4.20198,-4.58397 2.5165,-2.18879 4.41306,-4.24241 4.21456,-4.56359 -0.1985,-0.32118 1.52202,-2.20958 3.82339,-4.19643 2.30137,-1.98686 4.00464,-3.90318 3.78504,-4.2585 -0.21959,-0.35532 1.49053,-2.26054 3.80029,-4.23382 2.30975,-1.9733 4.02977,-3.86253 3.82224,-4.19831 -0.20752,-0.33577 1.85521,-2.57055 4.58385,-4.96616 2.72864,-2.39561 4.79148,-4.6302 4.58411,-4.96575 -0.20739,-0.33556 1.25742,-2.0568 3.25513,-3.825 1.9977,-1.76819 3.55146,-3.502 3.45279,-3.8529 -0.0987,-0.35091 1.8607,-2.43377 4.35414,-4.62859 2.49344,-2.19482 4.37386,-4.24893 4.17871,-4.5647 -0.19516,-0.31577 1.52811,-2.19973 3.82948,-4.18659 2.30137,-1.98686 4.03117,-3.86025 3.844,-4.16309 -0.18716,-0.30285 1.35839,-2.13955 3.43457,-4.08158 2.07618,-1.94202 3.53176,-3.55274 3.23461,-3.57937 -0.29715,-0.0266 0.25536,-0.36753 1.2278,-0.75754 0.97244,-0.39 1.56854,-1.03196 1.32467,-1.42655 -0.24388,-0.3946 1.28096,-2.20245 3.38851,-4.01744 2.10757,-1.81499 3.8321,-3.70946 3.83231,-4.20993 2e-4,-0.50047 2.04569,-2.71031 4.54552,-4.91075 2.49982,-2.20044 4.38618,-4.25799 4.1919,-4.57235 -0.19428,-0.31435 1.53784,-2.23008 3.84916,-4.25719 2.31132,-2.0271 4.20674,-4.08873 4.21204,-4.58139 0.005,-0.49266 1.80867,-2.4695 4.00749,-4.39297 l 3.99785,-3.49722 h 59.3225 59.3225 l 0.47578,42.21072 c 0.26167,23.21589 0.78771,102.89101 1.16896,177.05581 0.38127,74.1648 0.90773,138.62687 1.16993,143.24904 0.2622,4.62217 0.25366,18.11623 -0.019,29.9868 l -0.49573,21.58285 -86.43519,-0.18921 C 405.53047,572.70232 294.17926,572.52962 205.6227,572.4226 Z"
         id="path1418"
         transform="scale(0.26458332)" />
      <path
         style="fill:#ff001f;fill-opacity:1;stroke-width:1.37447;stroke-linecap:round;stroke-linejoin:round"
         d="m 186.90488,572.42261 -142.294047,-0.19503 0.005,-1.71698 c 0.0061,-2.07262 2.229178,-5.44256 3.81494,-5.78296 1.845422,-0.39614 5.364688,-4.1312 5.867023,-6.22678 0.626757,-2.61463 7.742959,-10.91116 32.455655,-37.83892 1.542528,-1.68079 3.727449,-4.08737 4.855381,-5.34796 1.127931,-1.26059 3.821264,-4.23318 5.985184,-6.60576 2.16392,-2.37258 5.825284,-6.44752 8.136364,-9.05543 2.31109,-2.6079 5.59181,-6.16747 7.2905,-7.91014 3.5153,-3.60632 11.02667,-11.75006 17.03544,-18.46964 2.24405,-2.50949 5.82287,-6.45361 7.95295,-8.76469 5.29575,-5.74578 10.8619,-11.84081 15.74731,-17.24356 2.25306,-2.49167 5.71773,-6.24928 7.69925,-8.35027 1.98152,-2.10098 7.4928,-8.11744 12.24728,-13.36991 4.75449,-5.25246 10.57236,-11.62857 12.92861,-14.16913 3.95005,-4.25904 13.88528,-15.14324 18.79721,-20.59264 1.13626,-1.26059 3.8364,-4.20211 6.00032,-6.5367 2.16392,-2.3346 6.85668,-7.47784 10.42835,-11.42943 3.57168,-3.95159 8.75034,-9.60502 11.50813,-12.56317 2.75779,-2.95815 6.56869,-7.09744 8.46867,-9.19843 4.81333,-5.32255 45.24528,-49.56479 53.68032,-58.73913 3.81863,-4.15331 7.45896,-8.14473 8.08964,-8.86982 1.08564,-1.24816 13.24912,-14.59178 14.91641,-16.36364 2.83919,-3.01728 11.33802,-12.30724 14.75819,-16.13199 4.60765,-5.15269 10.09604,-11.15369 15.35272,-16.78664 1.96064,-2.10098 4.79728,-5.36706 6.30363,-7.25795 2.4534,-3.07967 5.41899,-6.26165 18.15699,-19.48187 2.02436,-2.10098 3.97801,-4.39605 4.34145,-5.10016 0.36345,-0.7041 4.21544,-5.00158 8.55999,-9.54994 7.63904,-7.99739 10.61156,-11.19568 20.36863,-21.91559 2.52118,-2.76998 7.86986,-8.48234 11.88595,-12.69413 4.01609,-4.21179 7.11027,-7.67958 6.87595,-7.70622 -0.23432,-0.0267 0.36961,-0.36752 1.34204,-0.75754 0.97245,-0.39 1.56884,-1.03147 1.32534,-1.42547 -0.24351,-0.394 1.4402,-2.34197 3.74157,-4.32883 2.30137,-1.98685 4.02057,-3.87739 3.82046,-4.20118 -0.20012,-0.3238 1.68649,-2.39351 4.19247,-4.59935 2.50597,-2.20585 4.40038,-4.26294 4.20979,-4.57131 -0.19058,-0.30837 1.88601,-2.52072 4.61465,-4.91633 2.72864,-2.39561 4.78652,-4.63822 4.57308,-4.98359 -0.21344,-0.34535 1.16541,-1.92649 3.06413,-3.51362 1.89872,-1.58713 3.45221,-3.29951 3.45221,-3.80529 0,-0.50578 2.23102,-2.87832 4.95782,-5.27232 2.72679,-2.394 4.79711,-4.61274 4.6007,-4.93055 -0.19642,-0.3178 1.70184,-2.36866 4.21836,-4.557452 2.5165,-2.188795 4.42123,-4.229195 4.23271,-4.534223 -0.18851,-0.305027 1.86507,-2.529345 4.56354,-4.942928 2.69846,-2.413583 4.82583,-4.65017 4.7275,-4.970192 -0.0983,-0.320023 1.78719,-2.398864 4.19007,-4.619648 2.40289,-2.220785 4.29377,-4.277735 4.20197,-4.571001 -0.0918,-0.293266 1.97068,-2.528866 4.58329,-4.967999 2.61261,-2.439134 4.68079,-4.6592 4.59594,-4.933482 -0.0849,-0.274282 1.80455,-2.341549 4.19865,-4.593926 2.39411,-2.252379 4.30007,-4.315165 4.23548,-4.58397 -0.0646,-0.268805 2.11212,-2.723421 4.83713,-5.454703 2.72501,-2.731282 8.11936,-8.380086 11.98745,-12.552897 5.81042,-6.268177 7.02648,-7.264154 6.99608,-5.729962 -0.0202,1.021333 0.14595,18.015461 0.36932,37.764728 0.22336,19.749268 0.76177,111.371355 1.19647,203.604635 0.4347,92.23328 1.13101,184.37106 1.54735,204.75063 0.8706,42.61501 0.96209,74.88325 0.24554,86.59457 l -0.49811,8.14079 -105.12419,-0.18897 c -57.8183,-0.10394 -169.15652,-0.27674 -247.41824,-0.38401 z"
         id="path1420"
         transform="scale(0.26458332)" />
      <path
         style="fill:#ff001f;fill-opacity:1;stroke-width:1.37447;stroke-linecap:round;stroke-linejoin:round"
         d="M 2.9476192,543.92254 C 2.2933016,542.86383 0.51834463,260.5217 -0.4381587,5.3473981 l -0.0272059,-7.2579513 112.1164946,0.507626 c 108.75839,0.49242164 259.81884,1.92271761 268.35345,2.5408695 2.31109,0.1673889 26.89262,0.5048735 54.62564,0.7499657 27.73301,0.2450922 53.08809,0.652439 56.34462,0.905215 5.82791,0.4523701 5.92096,0.4923871 5.92096,2.5463135 0,4.1349022 -1.63331,6.1038435 -43.1025,51.9596135 -55.17021,61.0061 -68.07446,74.8715 -69.68136,74.8715 -0.57826,0 -1.05138,0.47853 -1.05138,1.0634 0,1.25569 -10.23624,13.04533 -33.28362,38.33458 -9.21692,10.11347 -28.95175,31.77272 -43.85517,48.13168 -14.90342,16.35896 -36.23277,39.71368 -47.39857,51.8994 -11.16579,12.18572 -39.18784,42.78372 -62.27121,67.99555 C 52.845871,496.22436 29.68442,521.35762 17.037665,534.06662 8.7521141,542.39296 4.0395724,545.68935 2.9476192,543.92254 Z"
         id="path1422"
         transform="scale(0.26458332)" />
    </g>
  </g>
</svg>
