<?xml version="1.0" encoding="UTF-8" standalone="no"?>
<svg
   xmlns:dc="http://purl.org/dc/elements/1.1/"
   xmlns:cc="http://creativecommons.org/ns#"
   xmlns:rdf="http://www.w3.org/1999/02/22-rdf-syntax-ns#"
   xmlns:svg="http://www.w3.org/2000/svg"
   xmlns="http://www.w3.org/2000/svg"
   xmlns:sodipodi="http://sodipodi.sourceforge.net/DTD/sodipodi-0.dtd"
   xmlns:inkscape="http://www.inkscape.org/namespaces/inkscape"
   width="142.92265mm"
   height="152.09126mm"
   viewBox="0 0 142.92265 152.09126"
   version="1.1"
   id="svg6"
   sodipodi:docname="RougeVif.Vert(blanc).svg"
   inkscape:version="1.0.1 (3bc2e813f5, 2020-09-07)">
  <metadata
     id="metadata12">
    <rdf:RDF>
      <cc:Work
         rdf:about="">
        <dc:format>image/svg+xml</dc:format>
        <dc:type
           rdf:resource="http://purl.org/dc/dcmitype/StillImage" />
        <dc:title></dc:title>
      </cc:Work>
    </rdf:RDF>
  </metadata>
  <defs
     id="defs10" />
  <sodipodi:namedview
     pagecolor="#ffffff"
     bordercolor="#666666"
     borderopacity="1"
     objecttolerance="10"
     gridtolerance="10"
     guidetolerance="10"
     inkscape:pageopacity="0"
     inkscape:pageshadow="2"
     inkscape:window-width="1920"
     inkscape:window-height="995"
     id="namedview8"
     showgrid="false"
     inkscape:zoom="1.3089093"
     inkscape:cx="215.46455"
     inkscape:cy="339.14512"
     inkscape:window-x="0"
     inkscape:window-y="24"
     inkscape:window-maximized="1"
     inkscape:current-layer="svg6"
     inkscape:document-rotation="0" />
  <g
     id="g1102">
    <rect
       style="fill:#fff9f9;fill-opacity:1;stroke:none;stroke-width:5.14599;stroke-linecap:round;stroke-linejoin:round;stroke-opacity:1"
       id="rect831"
       width="142.46184"
       height="151.63043"
       x="0.23041171"
       y="0.230409" />
    <g
       id="g1057"
       transform="translate(0.14356858,0.06958495)">
      <path
         style="fill:#003cf9;fill-opacity:1;stroke-width:1.37447;stroke-linecap:round;stroke-linejoin:round"
         d=""
         id="path1467"
         transform="scale(0.26458332)" />
      <path
         style="fill:#003cf9;fill-opacity:1;stroke-width:1.37447;stroke-linecap:round;stroke-linejoin:round"
         d=""
         id="path1469"
         transform="scale(0.26458332)" />
      <path
         style="fill:#fffa40;fill-opacity:1;stroke-width:1.37447;stroke-linecap:round;stroke-linejoin:round"
         d=""
         id="path1569"
         transform="scale(0.26458332)" />
      <path
         style="fill:#00fb3a;fill-opacity:1;stroke-width:1.37447;stroke-linecap:round;stroke-linejoin:round"
         d=""
         id="path877"
         transform="scale(0.26458332)" />
      <g
         id="g1769">
        <g
           id="g1339">
          <g
             id="g1150">
            <g
               id="g1084">
              <path
                 style="fill:#001e7c;fill-opacity:1;stroke:#000000;stroke-width:0.460818px;stroke-linecap:butt;stroke-linejoin:miter;stroke-opacity:1"
                 d="m 0.23041171,0.230409 c 4.4e-4,48.178896 0,144.535211 0,144.535211 L 132.45995,0.230409 Z"
                 id="path841-9" />
              <path
                 style="fill:#fffa40;fill-opacity:1;stroke:#000000;stroke-width:0.460818px;stroke-linecap:butt;stroke-linejoin:miter;stroke-opacity:1"
                 d="m 142.69225,151.86085 c -4.5e-4,-48.17889 0,-144.5352072 0,-144.5352072 L 10.462708,151.86085 Z"
                 id="path841-3-2" />
            </g>
            <path
               style="fill:#ff001f;fill-opacity:1;stroke-width:1.37447;stroke-linecap:round;stroke-linejoin:round"
               d="M 1.5459904,336.40694 V 127.27458 H 193.08899 384.63198 l -3.49764,3.62898 c -1.9237,1.99593 -86.78614,94.73536 -188.58319,206.08761 C 90.754096,448.34342 6.1336824,540.81995 4.5057917,542.49455 l -2.9598013,3.04475 z"
               id="path1138"
               transform="scale(0.26458332)" />
            <path
               style="fill:#ff001f;fill-opacity:1;stroke-width:1.37447;stroke-linecap:round;stroke-linejoin:round"
               d="M 1.5459904,64.245004 V 1.2154277 H 250.28998 c 142.79363,0 248.63553,0.2862055 248.48934,0.6719363 -0.14007,0.369565 -25.8676,28.711147 -57.17228,62.981295 l -56.91762,62.309361 -191.57172,0.0483 -191.5717096,0.0483 z"
               id="path1140"
               transform="scale(0.26458332)" />
            <path
               style="fill:#ff001f;fill-opacity:1;stroke-width:1.37447;stroke-linecap:round;stroke-linejoin:round"
               d="M 1.5459904,273.75591 V 1.2154277 H 231.76673 c 126.62141,0 238.5122,0.2264689 248.6462,0.5032642 l 18.42547,0.5032643 -1.97182,2.3617165 C 494.35206,7.5954 452.13074,54.022984 414.10322,95.592287 159.36131,374.06014 5.5097772,542.18234 3.740112,544.01909 l -2.1941216,2.27729 z"
               id="path1142"
               transform="scale(0.26458332)" />
          </g>
          <path
             style="fill:#00fb3a;fill-opacity:1;stroke-width:1.37447;stroke-linecap:round;stroke-linejoin:round"
             d="m 41.56324,572.8456 c 0.156505,-0.46952 96.33201,-105.84351 213.72334,-234.16443 L 468.72536,105.37041 h 35.02066 35.02066 v 234.16442 234.16443 h -248.744 c -182.90881,0 -248.668682,-0.22594 -248.45944,-0.85366 z"
             id="path1206"
             transform="scale(0.26458332)" />
          <path
             style="fill:#00fb3a;fill-opacity:1;stroke-width:1.37447;stroke-linecap:round;stroke-linejoin:round"
             d="m 471.6272,102.31733 c 5.71765,-6.761038 66.03346,-72.479636 66.56648,-72.529169 0.31515,-0.02929 0.573,16.964738 0.573,37.764499 v 37.81775 h -34.8607 -34.86069 z"
             id="path1208"
             transform="scale(0.26458332)" />
          <path
             style="fill:#0087fa;fill-opacity:1;stroke-width:1.37447;stroke-linecap:round;stroke-linejoin:round"
             d="M 1.5050611,273.46994 V 0.55733217 L 247.32041,0.94437123 C 382.51885,1.1572427 494.50686,1.624957 496.18266,1.9837365 l 3.04689,0.6523263 -14.49717,16.0324092 C 445.60548,61.938896 4.6643637,543.79228 2.7839498,545.334 1.5885247,546.31411 1.5050611,528.57156 1.5050611,273.46994 Z"
             id="path1266"
             transform="scale(0.26458332)" />
          <path
             style="fill:#0087fa;fill-opacity:1;stroke-width:1.37447;stroke-linecap:round;stroke-linejoin:round"
             d="m 58.55045,572.9578 -16.680116,-0.40453 1.949668,-1.83004 c 1.072318,-1.00653 1.781499,-2.10215 1.575958,-2.43473 -0.205541,-0.33256 1.0489,-1.74373 2.787647,-3.13592 1.738747,-1.39218 3.378652,-3.08642 3.644235,-3.76498 0.265583,-0.67855 10.963193,-12.71147 23.772468,-26.73982 98.19735,-107.5429 388.76317,-425.32385 394.25997,-431.18736 1.96959,-2.10099 10.91468,-11.899222 19.87797,-21.773855 8.9633,-9.874634 23.36468,-25.619008 32.00306,-34.987499 l 15.70615,-17.033619 0.69937,3.281711 c 0.4127,1.936576 0.80803,113.433212 0.96448,272.016912 L 539.37643,573.69926 307.3035,573.5308 C 179.66339,573.4381 67.724513,573.1803 58.55045,572.9578 Z"
             id="path1268"
             transform="scale(0.26458332)" />
          <path
             style="fill:#001e7c;fill-opacity:1;stroke-width:1.37447;stroke-linecap:round;stroke-linejoin:round"
             d="M 2.5897007,544.60099 C 2.1870835,543.96876 1.7860771,430.86024 1.6218848,271.61726 L 1.3415295,-0.28694678 69.609837,0.27055793 C 107.15741,0.57718552 218.77162,1.0900511 317.64142,1.4102592 c 128.26014,0.4153941 180.00241,0.8213451 180.59798,1.416906 0.60362,0.6036159 -5.40248,7.6695498 -21.69402,25.5221508 -12.3908,13.578092 -26.60455,29.156811 -31.58613,34.619374 -10.22625,11.213626 -79.00574,86.51554 -105.0219,114.98123 -16.32464,17.86166 -35.91659,39.27233 -61.87019,67.61354 -6.54155,7.14336 -19.28148,21.06716 -28.31095,30.9418 -16.53557,18.0833 -54.69654,59.77806 -99.29259,108.48727 -13.27265,14.4968 -48.98655,53.51784 -79.364229,86.71342 -30.377676,33.19557 -57.085113,62.24648 -59.34986,64.55756 -2.2647475,2.31109 -5.0975179,5.37536 -6.2950458,6.80949 -1.7272778,2.06855 -2.3194196,2.38439 -2.8647845,1.52799 z"
             id="path1322"
             transform="scale(0.26458332)" />
          <path
             style="fill:#00fb3a;fill-opacity:1;stroke-width:1.37447;stroke-linecap:round;stroke-linejoin:round"
             d="M 238.34347,572.92484 C 130.98309,572.69575 43.003548,572.43249 42.833373,572.3398 c -0.170175,-0.0927 0.340897,-0.88711 1.135716,-1.76537 0.794818,-0.87827 1.449748,-2.15626 1.4554,-2.83999 0.0057,-0.68373 0.781454,-1.62872 1.724005,-2.09996 2.511883,-1.25587 4.786074,-3.48233 6.046355,-5.91944 1.049293,-2.02911 13.20117,-15.82025 30.425164,-34.52945 4.255243,-4.62217 17.312767,-18.88978 29.016727,-31.70579 11.70395,-12.81601 26.15012,-28.63071 32.10261,-35.14376 5.95248,-6.51306 20.56241,-22.49965 32.4665,-35.52577 24.28447,-26.57338 35.59418,-38.94683 60.42798,-66.11157 9.42455,-10.30914 29.68415,-32.47948 45.02134,-49.26742 15.3372,-16.78794 35.44241,-38.77928 44.67825,-48.86965 9.23584,-10.09037 24.10607,-26.33852 33.04496,-36.107 40.80953,-44.59693 49.82454,-54.44788 65.54952,-71.62762 9.23131,-10.08534 27.61383,-30.18641 40.85004,-44.66905 53.14815,-58.152996 69.6243,-76.050628 70.19704,-76.25327 0.3299,-0.116721 0.65607,0.227076 0.72483,0.763995 0.2269,1.771753 1.6303,339.735815 1.83696,442.374385 l 0.20268,100.65646 -53.09765,-0.17909 c -29.2037,-0.0985 -140.93795,-0.36652 -248.29833,-0.5956 z"
             id="path1324"
             transform="scale(0.26458332)" />
        </g>
        <path
           style="fill:#003cf9;fill-opacity:1;stroke-width:0.363662;stroke-linecap:round;stroke-linejoin:round"
           d="M 0.63790959,142.82197 C 0.5819268,142.06624 0.51293445,119.27565 0.48459327,92.176214 L 0.43306384,42.904516 H 47.19474 93.956418 l -0.821333,0.859097 C 92.683352,44.236117 74.176159,64.449944 52.007982,88.683228 5.3857866,139.64859 1.3322282,144.05465 0.99176917,144.13588 c -0.17537146,0.0418 -0.28304459,-0.35795 -0.35385958,-1.31391 z"
           id="path1449" />
        <path
           style="fill:#003cf9;fill-opacity:1;stroke-width:0.363662;stroke-linecap:round;stroke-linejoin:round"
           d="M 0.59284859,142.71129 C 0.52288308,141.90526 0.44689977,109.43142 0.42399681,70.547203 l -0.0416418,-70.69857382 3.94173579,0.00206 c 2.1679547,0.001134 11.9010102,0.09292436 21.6290122,0.20398037 9.728003,0.11105605 31.604636,0.24322056 48.614742,0.29369895 37.159395,0.11027248 56.489955,0.28411616 56.896595,0.51168261 0.26375,0.14760109 0.26099,0.21377969 -0.0225,0.53859649 -0.17773,0.2036754 -0.35777,0.4780913 -0.40007,0.6098134 -0.10171,0.3167173 -1.88321,2.2919667 -20.838,23.104235 -8.86152,9.729914 -19.003908,20.871343 -22.538641,24.75873 -9.857657,10.841151 -71.589739,78.273034 -79.4407788,86.775654 -3.8239881,4.14135 -7.0768411,7.52973 -7.22856229,7.52973 -0.1959851,0 -0.31268907,-0.42433 -0.40306668,-1.46552 z"
           id="path1453" />
        <path
           style="fill:#003cf9;fill-opacity:1;stroke-width:0.363662;stroke-linecap:round;stroke-linejoin:round"
           d="m 142.32412,25.469917 c -0.0679,-1.250743 -0.0456,-2.59245 0.0496,-2.98157 0.12218,-0.499721 0.17906,0.168108 0.19367,2.274079 0.0114,1.639863 -0.0109,2.981569 -0.0496,2.981569 -0.0386,0 -0.12579,-1.023334 -0.19367,-2.274078 z"
           id="path1459" />
        <path
           style="fill:#003cf9;fill-opacity:1;stroke-width:0.363662;stroke-linecap:round;stroke-linejoin:round"
           d="m 142.21507,15.767182 c -0.0199,-2.278098 0.0425,-3.58799 0.17085,-3.58799 0.23316,0 0.23905,2.86173 0.0112,5.457788 -0.13094,1.492134 -0.1549,1.246129 -0.18208,-1.869798 z"
           id="path1461" />
        <path
           style="fill:#003cf9;fill-opacity:1;stroke-width:0.363662;stroke-linecap:round;stroke-linejoin:round"
           d="m 142.22258,10.76421 c -0.0244,-0.8338286 -0.10094,-1.74346 -0.17013,-2.0214029 -0.095,-0.3816006 -0.0675,-0.4513339 0.11216,-0.2847655 0.15884,0.1472295 0.21542,0.8194463 0.17014,2.0214024 l -0.0678,1.800818 z"
           id="path1473" />
        <path
           style="fill:#003cf9;fill-opacity:1;stroke-width:0.363662;stroke-linecap:round;stroke-linejoin:round"
           d="m 142.44649,10.96635 c 0,-0.611474 0.0379,-0.861623 0.0842,-0.555886 0.0463,0.305738 0.0463,0.806035 0,1.111772 -0.0463,0.305737 -0.0842,0.05559 -0.0842,-0.555886 z"
           id="path1475" />
        <path
           style="fill:#ff5459;fill-opacity:1;stroke-width:0.363662;stroke-linecap:round;stroke-linejoin:round"
           d="M 0.60847523,142.91343 C 0.54837737,142.21857 0.45161674,117.61305 0.39345162,88.234481 L 0.28769682,34.818906 H 50.836412 c 27.801791,0 50.518398,0.0769 50.481338,0.170894 -0.18587,0.471403 -93.0053049,101.87387 -97.6377228,106.6663 -1.3401029,1.38639 -2.5548406,2.52071 -2.69941696,2.52071 -0.17603358,0 -0.29896093,-0.41733 -0.37213501,-1.26338 z"
           id="path933" />
        <path
           style="fill:#ff5459;fill-opacity:1;stroke-width:0.363662;stroke-linecap:round;stroke-linejoin:round"
           d="M 0.28128519,17.33377 V -0.1513666 H 8.3982797 c 4.4643473,0 18.2680043,0.08669416 30.6747893,0.19265367 12.406789,0.10595955 34.746857,0.24743509 49.644597,0.31439009 32.458204,0.14587714 42.591464,0.26159345 42.818844,0.48896768 0.28657,0.28656796 -0.4206,1.37706496 -2.15116,3.31721796 -0.90858,1.0186275 -7.54616,8.3331732 -14.75017,16.2545462 l -13.0982,14.402497 H 50.90913 0.28128519 Z"
           id="path935" />
        <path
           style="fill:#ff5459;fill-opacity:1;stroke-width:0.363662;stroke-linecap:round;stroke-linejoin:round"
           d="m 109.53812,151.63517 c -18.344235,-0.067 -47.886291,-0.13527 -65.649018,-0.1516 l -32.295867,-0.0297 0.09541,-0.52616 c 0.109704,-0.60498 0.657971,-1.51264 0.876486,-1.45102 0.329105,0.0928 1.048571,-0.4874 1.492979,-1.20397 0.259435,-0.41833 0.472232,-0.82163 0.472882,-0.89623 0.0018,-0.2042 3.047337,-3.63231 9.217801,-10.37565 3.051963,-3.33532 18.143418,-19.84513 33.536568,-36.68847 C 126.70447,24.353268 141.75465,7.9342455 141.96198,7.9342455 c 0.0723,0 0.13559,0.3865933 0.14068,0.8590962 0.0958,8.8959893 0.48953,80.5657933 0.51665,94.0457783 0.0203,10.11712 0.10322,25.26248 0.18415,33.65636 0.0809,8.39387 0.13379,15.26159 0.11748,15.26159 -0.0163,0 -15.03859,-0.0549 -33.38282,-0.1219 z"
           id="path937" />
        <path
           style="fill:#ff5459;fill-opacity:1;stroke-width:0.363662;stroke-linecap:round;stroke-linejoin:round"
           d="M 0.82449131,143.69722 C 0.65940884,143.26702 0.49545902,110.69097 0.36670981,52.738213 L 0.24911736,-0.19265517 24.572572,-0.07295112 c 13.377899,0.06583724 28.325833,0.15678891 33.217629,0.20211485 4.891794,0.0453259 22.083828,0.17777062 38.204517,0.29432156 16.120692,0.11655091 30.695722,0.27178948 32.388972,0.34497455 l 3.07863,0.1330638 -0.0421,0.50828186 c -0.0231,0.2795551 -0.15777,0.552684 -0.2992,0.6069532 -0.14142,0.05427 -0.25713,0.1895122 -0.25713,0.30054 0,0.2348605 -0.51733,0.8692433 -2.50204,3.0681482 -0.79183,0.8772924 -1.58782,1.7653531 -1.76887,1.9734677 -0.27377,0.3146989 -3.02749,3.3530804 -3.71363,4.0975224 -1.88561,2.04582 -4.98225,5.457322 -6.16528,6.792166 -0.83383,0.940826 -1.97578,2.21143 -2.53767,2.823563 -2.23567,2.435593 -3.03038,3.299856 -3.23254,3.515424 -1.02034,1.088043 -7.73346,8.506836 -8.5722,9.47329 l -0.65785,0.758026 -18.222227,0.04943 -18.222221,0.04943 18.055547,0.05272 18.055551,0.05272 -1.682185,1.881677 c -0.9252,1.03492 -2.910186,3.228893 -4.411078,4.87549 -1.500891,1.646597 -3.764107,4.14225 -5.029369,5.545894 -1.265261,1.403641 -2.725512,3.006892 -3.245003,3.562776 -0.519491,0.555887 -1.935371,2.10226 -3.146398,3.436387 -1.211027,1.334124 -2.570631,2.824763 -3.021343,3.31253 -0.450716,0.487767 -0.91145,0.988065 -1.023861,1.111771 -3.26894,3.597529 -4.808839,5.28365 -5.651421,6.188064 -0.569671,0.611474 -1.577313,1.706232 -2.239208,2.432796 -3.404383,3.737007 -5.160322,5.656326 -6.271707,6.855264 -0.675177,0.728366 -1.630291,1.779122 -2.122471,2.335006 -0.492183,0.555887 -0.946079,1.056182 -1.008655,1.111771 -0.06258,0.05559 -1.103739,1.192628 -2.313697,2.526755 -1.209953,1.334127 -2.568683,2.824766 -3.019396,3.312533 -0.450715,0.487765 -0.912883,0.988063 -1.027038,1.111771 -0.11416,0.123706 -8.246946,9.002866 -18.072856,19.731459 -9.825912,10.7286 -18.332921,20.00684 -18.904463,20.61831 -0.571542,0.61147 -2.035368,2.20333 -3.252947,3.53746 -1.217578,1.33412 -2.311835,2.51664 -2.431681,2.62782 -0.119847,0.11118 -1.209388,1.2937 -2.421203,2.62782 -1.2118144,1.33413 -2.296279,2.52558 -2.409921,2.64766 -5.2778681,5.67013 -5.6699978,6.07162 -6.8412579,7.00454 -0.8011602,0.63814 -0.86413996,0.65552 -1.00883979,0.27844 z"
           id="path939" />
        <path
           style="fill:#ff5459;fill-opacity:1;stroke-width:0.363662;stroke-linecap:round;stroke-linejoin:round"
           d="M 0.78821654,143.81934 C 0.60661769,143.36493 0.09288691,2.4661279 0.26340221,-0.1193066 c 0.014627,-0.22178244 0.81835759,-0.24964563 4.41443459,-0.15303668 2.4181034,0.0649626 17.5407242,0.16879081 33.6058242,0.2307294 16.065103,0.0619386 30.664686,0.15220381 32.443519,0.20058934 1.778833,0.0483855 15.468787,0.17983467 30.42212,0.2921092 14.95332,0.11227451 27.89283,0.26180694 28.75445,0.33229432 1.37092,0.11215124 1.56659,0.17707977 1.56659,0.51982522 0,0.4306545 -0.81135,1.62402 -1.58791,2.3355599 -0.273,0.2501485 -0.43044,0.4548156 -0.34985,0.4548156 0.0806,0 -0.29186,0.4710146 -0.82766,1.046699 -2.71365,2.9156635 -3.41482,3.6899893 -4.18229,4.6185929 -0.31916,0.3861704 -1.56195,1.7527604 -2.76175,3.0368674 -1.19981,1.284107 -2.57602,2.780927 -3.05824,3.326268 -0.89308,1.00997 -4.30793,4.812075 -5.61387,6.250502 -0.39638,0.436586 -1.27848,1.391699 -1.96023,2.122473 -1.44754,1.551635 -1.90818,2.056399 -3.81397,4.179227 -0.77824,0.866873 -1.90922,2.126504 -2.51329,2.799181 -0.60407,0.672674 -1.36418,1.495933 -1.68912,1.829464 -0.32494,0.333531 -0.72805,0.811088 -0.8958,1.061236 -0.30495,0.454742 -0.30611,0.454824 -7.002917,0.501073 l -6.697916,0.04626 6.450393,0.105347 6.4504,0.105346 -0.6894,0.733812 c -0.746164,0.794239 -1.43995,1.566751 -3.788703,4.218627 -1.629347,1.839627 -2.910234,3.239707 -4.126717,4.510728 -0.416645,0.435324 -1.043847,1.122129 -1.393785,1.526233 -0.900713,1.040138 -4.13404,4.569941 -5.294447,5.779923 -0.537504,0.560464 -0.947314,1.019024 -0.910693,1.019024 0.03662,0 -0.342271,0.445159 -0.841984,0.989238 -1.565624,1.704623 -3.515601,3.808642 -4.041746,4.361031 -0.524936,0.551119 -2.934353,3.226184 -3.575026,3.969186 -0.201692,0.233905 -1.283626,1.416426 -2.4043,2.627824 -1.120672,1.211397 -2.616541,2.839285 -3.324153,3.617526 -0.707613,0.77824 -1.473515,1.602007 -1.702007,1.830596 -0.228494,0.228589 -1.097666,1.178753 -1.931495,2.111473 -0.833826,0.932722 -2.028026,2.246587 -2.653773,2.9197 -0.625745,0.673114 -1.708526,1.860585 -2.406179,2.638825 -0.697651,0.77824 -1.689055,1.869797 -2.203119,2.425681 -0.514065,0.555887 -2.289133,2.488854 -3.944594,4.295484 -1.655458,1.806628 -3.085642,3.284778 -3.178183,3.284778 -0.09254,0 -0.168253,0.101886 -0.168253,0.226409 0,0.124526 -0.523037,0.767202 -1.162307,1.428171 -0.639268,0.660969 -1.29875,1.359871 -1.465516,1.553114 -0.870845,1.009116 -4.089072,4.513863 -5.090184,5.543368 -0.631645,0.649562 -1.155898,1.219255 -1.165003,1.265991 -0.01799,0.09231 -1.142291,1.335058 -2.740056,3.028722 -0.555887,0.58924 -1.27204,1.37434 -1.59145,1.74466 -0.319411,0.37031 -1.365486,1.52578 -2.324614,2.56769 -0.959127,1.04192 -1.92579,2.09408 -2.148146,2.33813 -1.899118,2.08445 -4.218797,4.60381 -5.053507,5.48853 -0.555887,0.58919 -1.55648,1.67864 -2.223543,2.421 -0.667064,0.74235 -1.734559,1.90712 -2.372212,2.58838 -0.637654,0.68126 -1.160692,1.31224 -1.162307,1.40219 -0.0016,0.0899 -0.0939,0.10731 -0.205077,0.0386 -0.111177,-0.0687 -0.202141,-0.005 -0.202141,0.14093 0,0.14622 -0.489567,0.73842 -1.087927,1.31599 -0.598361,0.57758 -1.056039,1.08203 -1.017065,1.12101 0.03898,0.039 -0.465953,0.58918 -1.12206,1.22268 -0.656109,0.63351 -1.135494,1.15183 -1.065301,1.15183 0.07019,0 -0.430419,0.55117 -1.112473,1.22482 -0.682054,0.67365 -1.268623,1.2987 -1.303486,1.38899 -0.03486,0.0903 -1.11652,1.29017 -2.403683,2.66638 -1.287162,1.37622 -2.966853,3.18443 -3.732647,4.01826 -2.1983433,2.39365 -3.3418419,3.63362 -4.5608739,4.94563 -0.6232723,0.67081 -1.6238666,1.75396 -2.2235434,2.40701 -0.5996768,0.65305 -1.6042705,1.58374 -2.2324312,2.06821 -0.9893018,0.763 -1.16082552,0.83402 -1.28199296,0.53084 z"
           id="path941" />
        <path
           style="fill:#ff5459;fill-opacity:1;stroke-width:0.363662;stroke-linecap:round;stroke-linejoin:round"
           d="m 94.836031,34.874547 c 0.363318,-0.04499 0.909095,-0.04406 1.212842,0.0021 0.303747,0.04612 0.0065,0.08293 -0.660577,0.0818 -0.667063,-0.0011 -0.91558,-0.03887 -0.552265,-0.08386 z"
           id="path943" />
        <path
           style="fill:#ff5459;fill-opacity:1;stroke-width:0.363662;stroke-linecap:round;stroke-linejoin:round"
           d="M 0.81423262,143.81718 C 0.68588704,143.60951 0.50932361,116.82163 0.37826289,77.672648 0.32001477,60.273422 0.21882856,35.656738 0.15340468,22.968903 0.07399772,7.5692917 0.10214097,-0.14171952 0.23805922,-0.22572163 0.46605608,-0.36663144 71.063336,-0.0220358 76.286039,0.14547969 c 1.834422,0.0588382 14.159927,0.19566465 27.390011,0.30405883 13.23008,0.10839417 24.8961,0.25343055 25.92449,0.32230302 1.74937,0.11715746 1.8698,0.15365885 1.8698,0.56673126 0,0.2428297 -0.15487,0.6664155 -0.34415,0.9413018 -0.48073,0.6981406 -2.53647,3.1140538 -3.77936,4.4415292 -0.57251,0.6114742 -1.67545,1.8394766 -2.45098,2.7288938 -0.77553,0.8894174 -1.54821,1.7535674 -1.71708,1.9203334 -0.31141,0.307537 -4.31388,4.683332 -5.63987,6.165917 -0.39805,0.44506 -1.5424,1.717079 -2.54299,2.82671 -1.0006,1.109629 -1.91023,2.11859 -2.02141,2.242132 -0.11117,0.123542 -1.11177,1.214237 -2.22354,2.423764 -1.11177,1.209526 -2.5217,2.752719 -3.13317,3.429311 -0.61148,0.676593 -2.15785,2.383155 -3.43639,3.792361 l -2.32461,2.56219 -5.255652,0.04978 -5.255646,0.04978 5.002971,0.05776 c 2.751635,0.03177 5.002967,0.11122 5.002967,0.176554 0,0.06534 -0.79592,1.001646 -1.768722,2.080691 -0.972801,1.079045 -2.450065,2.729558 -3.282814,3.667808 -0.832747,0.938249 -2.025695,2.251688 -2.650996,2.91875 -0.6253,0.667063 -1.581298,1.709418 -2.124437,2.316343 -0.543142,0.606925 -1.988127,2.18287 -3.211076,3.502099 -1.222946,1.319228 -2.713495,2.960285 -3.312324,3.646794 -0.896268,1.027501 -4.595378,5.061175 -5.391798,5.879457 -0.117824,0.12106 -1.063222,1.175223 -2.100879,2.342583 -1.037656,1.16736 -2.896959,3.213436 -4.131786,4.546833 -1.234826,1.333397 -2.745435,2.970644 -3.356908,3.638328 -0.611476,0.667686 -1.158886,1.259543 -1.21647,1.315238 -0.05758,0.0557 -1.054841,1.147342 -2.216131,2.42588 -1.161288,1.278538 -2.487822,2.733947 -2.947853,3.234245 -0.460031,0.500298 -1.910953,2.092153 -3.22427,3.537455 -1.313318,1.445302 -3.497098,3.810344 -4.85285,5.255649 -1.355749,1.445302 -2.728021,2.941521 -3.049492,3.324929 -0.321469,0.383405 -0.766418,0.885703 -0.988772,1.116216 -0.918278,0.951965 -6.752751,7.309418 -7.782403,8.479982 -0.993129,1.129049 -2.380475,2.64776 -9.985869,10.93143 -3.379121,3.68048 -4.213609,4.58708 -5.392701,5.85872 -0.62022,0.6689 -1.575331,1.71103 -2.122472,2.31584 -0.547137,0.6048 -1.317493,1.43821 -1.711906,1.85201 -0.39441,0.41379 -1.014196,1.10147 -1.377303,1.52817 -0.363106,0.4267 -1.26841,1.41436 -2.011785,2.1948 -1.157401,1.21511 -2.172284,2.32494 -4.866175,5.32139 -0.265365,0.29517 -1.374243,1.49911 -2.464173,2.67541 -1.08993,1.17631 -2.26835,2.44979 -2.618711,2.82996 -0.350361,0.38018 -1.062201,1.14605 -1.5818668,1.70194 -0.5196655,0.55588 -1.9894673,2.14564 -3.2662263,3.5328 -2.5380565,2.7575 -3.7869931,3.9589 -4.6803455,4.50218 -0.6606081,0.40174 -0.71321418,0.41392 -0.84768278,0.19635 z"
           id="path945" />
        <path
           style="fill:#ff5459;fill-opacity:1;stroke-width:0.363662;stroke-linecap:round;stroke-linejoin:round"
           d="m 99.586556,34.880964 c 0.196675,-0.05125 0.469564,-0.04788 0.606424,0.0075 0.13685,0.05537 -0.0241,0.0973 -0.357597,0.09318 -0.333531,-0.0041 -0.445503,-0.04942 -0.248827,-0.100674 z"
           id="path947" />
        <path
           style="fill:#ff5459;fill-opacity:1;stroke-width:0.363662;stroke-linecap:round;stroke-linejoin:round"
           d="m 100.7994,34.880964 c 0.19667,-0.05125 0.46956,-0.04788 0.60642,0.0075 0.13685,0.05537 -0.0241,0.0973 -0.3576,0.09318 -0.33353,-0.0041 -0.4455,-0.04942 -0.24882,-0.100674 z"
           id="path949" />
        <path
           style="fill:#ff5459;fill-opacity:1;stroke-width:0.363662;stroke-linecap:round;stroke-linejoin:round"
           d="M 0.78690479,143.77296 C 0.62412401,143.50958 0.24550227,69.09972 0.20885403,30.169679 l -0.028639,-30.42211575 29.71462297,0.0588625 c 16.343045,0.0323744 35.854638,0.14538148 43.359097,0.25112692 7.504459,0.10574543 22.92271,0.28183202 34.262785,0.3913035 11.34007,0.10947151 21.37919,0.255648 22.30915,0.32483662 l 1.69085,0.12579749 -0.11277,0.69494422 c -0.0786,0.4842766 -0.61975,1.2901158 -1.78517,2.6582812 -1.90081,2.2315063 -1.64287,1.94409 -7.56726,8.4318263 -2.43656,2.668253 -6.10637,6.716112 -8.15514,8.995244 -2.04876,2.279132 -3.8675,4.289694 -4.04164,4.467915 -0.17414,0.178221 -0.68047,0.724236 -1.12518,1.21336 -5.34297,5.876623 -6.83453,7.459371 -7.03764,7.467907 -0.13168,0.0055 -1.46742,0.02363 -2.968308,0.04019 l -2.728894,0.03013 2.678358,0.06658 c 1.473094,0.03662 2.678354,0.119111 2.678354,0.183306 0,0.264692 -2.340764,2.884811 -14.134854,15.821715 -0.953233,1.045604 -1.826969,2.000716 -1.941631,2.122474 -0.114663,0.121759 -0.751404,0.815682 -1.414981,1.54205 -0.663581,0.726369 -1.994845,2.181778 -2.95837,3.234245 -0.963522,1.052465 -1.918636,2.105332 -2.122471,2.339698 -0.203838,0.234367 -1.098317,1.223152 -1.987733,2.197295 -0.889418,0.974148 -1.79905,1.971847 -2.021403,2.217113 -3.32532,3.667977 -4.285403,4.716163 -5.65993,6.179328 -0.889418,0.946769 -2.845125,3.075381 -4.346016,4.730247 -1.500891,1.654863 -2.822882,3.108827 -2.937759,3.231033 -0.114874,0.122206 -1.206431,1.310622 -2.425681,2.640931 -1.219253,1.330306 -2.353265,2.562476 -2.520032,2.738156 -0.636476,0.6705 -4.246787,4.613355 -5.579914,6.093881 -0.766659,0.851424 -3.342211,3.671281 -5.723448,6.266349 -2.381236,2.595067 -5.032861,5.491491 -5.892495,6.436501 -2.315983,2.54599 -6.044713,6.62146 -6.656697,7.27572 -0.166767,0.17829 -1.258324,1.36572 -2.425684,2.63874 -3.591157,3.91621 -3.934462,4.28902 -5.389201,5.85248 -1.436039,1.54336 -5.801459,6.31401 -7.122783,7.78396 -0.400513,0.44557 -1.728801,1.89933 -2.95175,3.23058 -1.222948,1.33126 -2.314506,2.5222 -2.425683,2.64653 -0.111177,0.12434 -1.292888,1.39947 -2.626023,2.83363 -5.9661037,6.4182 -7.3496866,7.81992 -8.2895535,8.39821 -0.6960136,0.42824 -0.8376554,0.45248 -1.01043271,0.17292 z"
           id="path951" />
        <path
           style="fill:#de001a;fill-opacity:1;stroke-width:0.363662;stroke-linecap:round;stroke-linejoin:round"
           d="M 0.80186441,143.79717 C 0.74152881,143.69954 0.64498069,135.67205 0.58731303,125.95829 0.52964538,116.24453 0.43704529,101.92949 0.38153505,94.147085 0.32602481,86.364681 0.22053313,61.90529 0.14710908,39.792874 L 0.01361081,-0.41151131 32.641501,-0.26781986 c 17.94534,0.0790303 38.540495,0.22673733 45.767012,0.32823786 7.226514,0.10150054 21.462245,0.27511858 31.634957,0.38581783 10.17271,0.11069928 19.15532,0.25669358 19.96135,0.3244318 1.44353,0.12131243 1.46552,0.13171003 1.46552,0.69295117 0,0.569839 -1.58171,2.7374121 -3.54167,4.8535043 -0.46339,0.5002971 -1.3731,1.5008917 -2.02157,2.2235431 -2.05485,2.2898888 -4.60033,5.0940238 -5.95876,6.5642418 -0.72265,0.782123 -2.04161,2.240318 -2.93103,3.240433 -0.88942,1.000116 -1.66702,1.863874 -1.72801,1.919463 -0.18846,0.171771 -2.43983,2.661575 -4.03014,4.456951 -0.83226,0.93958 -2.06552,2.299589 -2.74057,3.02224 -0.67506,0.722651 -1.67693,1.807168 -2.2264,2.410037 -0.54946,0.602866 -1.77666,1.910619 -2.72712,2.906114 l -1.7281,1.809991 -2.011493,0.01249 -2.011497,0.01249 1.768728,0.07055 c 0.972802,0.0388 1.768722,0.145294 1.768722,0.236646 0,0.167976 -0.93755,1.300242 -2.618055,3.161784 -0.505667,0.560142 -1.276903,1.424292 -1.713857,1.920333 -0.436954,0.496041 -1.255623,1.402852 -1.819262,2.015135 -0.563639,0.612283 -1.797574,1.976729 -2.742073,3.032106 -0.944499,1.055373 -2.313024,2.555605 -3.04116,3.333846 -0.728141,0.77824 -2.229448,2.415383 -3.336237,3.638097 -1.106789,1.222714 -2.477243,2.723605 -3.045454,3.335313 -0.568209,0.611712 -2.443083,2.675168 -4.166383,4.585462 -1.723303,1.910294 -4.161899,4.593706 -5.419106,5.963139 -2.650029,2.886586 -3.379457,3.681455 -6.261631,6.8234 -1.16653,1.271665 -2.257404,2.458747 -2.424171,2.637954 -0.166764,0.179211 -1.076396,1.180579 -2.021403,2.225265 -0.945005,1.044686 -2.225905,2.450055 -2.846443,3.123044 -4.304768,4.66862 -6.587196,7.151952 -8.170204,8.889359 -1.000593,1.09819 -1.912344,2.096736 -2.026115,2.218989 -0.69324,0.744953 -2.979214,3.239024 -3.835953,4.185155 -2.21438,2.445425 -4.91445,5.402856 -6.070515,6.649126 -0.670533,0.72286 -2.125943,2.31104 -3.234245,3.5293 -1.108303,1.21826 -2.151542,2.36241 -2.318308,2.54256 -0.407316,0.44001 -1.83187,1.98805 -3.527587,3.83338 -0.766222,0.83383 -1.812276,1.97087 -2.324563,2.52676 -1.528593,1.65868 -5.681399,6.19135 -6.669841,7.27993 -0.506185,0.55746 -1.882456,2.05836 -3.058379,3.33531 -1.175922,1.27696 -3.850565,4.18648 -5.943651,6.46561 -6.5427468,7.12431 -10.0534266,10.72744 -10.8462714,11.13193 -0.87282959,0.44528 -0.91917808,0.4545 -1.06869819,0.21257 z"
           id="path1129" />
        <path
           style="fill:#ff001f;fill-opacity:1;stroke-width:0.363662;stroke-linecap:round;stroke-linejoin:round"
           d="M 0.77989087,143.91283 C 0.60676935,143.63271 0.13714534,68.929696 -0.11592948,1.4148323 l -0.007198,-1.92033281 29.66415448,0.13430937 c 28.775656,0.13028656 68.743731,0.50871901 71.001843,0.67227169 0.61148,0.0442883 7.11534,0.13358111 14.45304,0.19842842 7.33769,0.0648473 14.04622,0.17262447 14.90784,0.23950479 1.54197,0.11968958 1.56659,0.13027741 1.56659,0.67371204 0,1.0940262 -0.43215,1.6149752 -11.4042,13.7476472 -14.59712,16.141196 -18.01137,19.80975 -18.43653,19.80975 -0.153,0 -0.27818,0.126611 -0.27818,0.281358 0,0.332234 -2.708334,3.451577 -8.806286,10.14269 -2.438643,2.675856 -7.66015,8.406532 -11.603346,12.73484 C 76.998601,62.457319 71.355211,68.636588 68.400927,71.860727 65.446645,75.084865 58.032478,83.180585 51.925003,89.851215 13.982136,131.29269 7.8540024,137.94253 4.507882,141.30512 c -2.1922186,2.20301 -3.4390785,3.07518 -3.72799113,2.60771 z"
           id="path1422" />
        <path
           style="fill:#00fb3a;fill-opacity:1;stroke-width:1.37447;stroke-linecap:round;stroke-linejoin:round"
           d="m 390.31852,572.72674 c -73.11431,-0.27379 -180.80894,-0.54835 -239.3214,-0.61013 -101.395692,-0.10705 -106.386287,-0.17602 -106.386287,-1.47031 0,-0.74691 0.47499,-2.03615 1.055533,-2.86498 0.580544,-0.82885 1.18219,-1.85079 1.336991,-2.27099 0.154802,-0.42019 0.579304,-0.66471 0.943338,-0.54336 1.808413,0.6028 7.192158,-5.41335 7.652772,-8.55172 0.08482,-0.57788 1.248989,-1.97189 2.587054,-3.09779 1.338065,-1.12591 2.354852,-2.28887 2.259526,-2.58435 -0.09533,-0.29549 1.277572,-1.84946 3.050885,-3.45327 1.773311,-1.60381 3.148502,-3.1509 3.055979,-3.43797 -0.09252,-0.28708 1.282667,-1.83417 3.05598,-3.43798 1.773311,-1.60381 3.148502,-3.17011 3.055979,-3.48068 -0.09252,-0.31055 1.633296,-2.20906 3.835154,-4.21888 2.201858,-2.00984 3.85237,-3.89858 3.667804,-4.19721 -0.184566,-0.29864 1.714766,-2.34775 4.220738,-4.55361 2.505972,-2.20584 4.392582,-4.27555 4.192466,-4.59935 -0.200116,-0.32379 1.519091,-2.21433 3.82046,-4.20118 2.301369,-1.98686 4.004637,-3.90318 3.785039,-4.2585 -0.219598,-0.35532 1.490532,-2.26054 3.800287,-4.23382 2.309762,-1.97329 4.026242,-3.86822 3.814422,-4.21097 -0.21183,-0.34274 1.6652,-2.42796 4.17117,-4.6338 2.50597,-2.20585 4.39664,-4.26899 4.20149,-4.58476 -0.19516,-0.31576 1.52811,-2.19973 3.82948,-4.18659 2.30136,-1.98685 4.02036,-3.87774 3.81997,-4.20197 -0.20038,-0.32423 1.51861,-2.21511 3.81997,-4.20197 2.30138,-1.98686 4.02136,-3.87613 3.82219,-4.19839 -0.19916,-0.32226 1.86554,-2.55385 4.58822,-4.95909 2.72269,-2.40524 4.79333,-4.62721 4.60144,-4.93769 -0.19189,-0.3105 1.54091,-2.17904 3.85067,-4.15233 2.30975,-1.97329 4.02362,-3.87246 3.80859,-4.22037 -0.21502,-0.34792 1.84157,-2.59263 4.57021,-4.98825 2.72863,-2.39561 4.79654,-4.62201 4.59534,-4.94756 -0.2012,-0.32554 1.52399,-2.20641 3.83374,-4.1797 2.30976,-1.97328 4.02875,-3.86417 3.81998,-4.20197 -0.20877,-0.33779 1.51022,-2.22868 3.81997,-4.20197 2.30976,-1.97329 4.01988,-3.87851 3.80029,-4.23383 -0.2196,-0.35531 1.49686,-2.28303 3.81436,-4.28381 2.31749,-2.00078 4.21363,-4.03635 4.21363,-4.52349 0,-0.48714 2.06649,-2.68308 4.5922,-4.87988 2.52572,-2.1968 4.42022,-4.27246 4.21,-4.61259 -0.21021,-0.34013 1.5076,-2.23293 3.81736,-4.20622 2.30975,-1.97329 4.02879,-3.86408 3.82009,-4.20178 -0.2087,-0.33768 1.85307,-2.57402 4.5817,-4.96963 2.72864,-2.39561 4.80096,-4.61488 4.60514,-4.93172 -0.19581,-0.31683 1.52692,-2.20166 3.82829,-4.18852 2.30137,-1.98686 4.01077,-3.89324 3.79868,-4.23642 -0.21209,-0.34317 1.50418,-2.23846 3.81393,-4.21175 2.30976,-1.97329 4.0288,-3.86408 3.8201,-4.20178 -0.20871,-0.33768 1.85306,-2.57402 4.5817,-4.96963 2.72864,-2.39561 4.79628,-4.62244 4.59476,-4.9485 -0.20151,-0.32606 1.3491,-2.03936 3.44581,-3.80732 2.09669,-1.76797 3.63574,-3.49998 3.42008,-3.84892 -0.21565,-0.34893 1.66973,-2.42063 4.18975,-4.60375 2.52001,-2.18312 4.41795,-4.2345 4.21764,-4.55862 -0.20031,-0.32411 1.69475,-2.38013 4.21127,-4.56893 2.51651,-2.18879 4.40739,-4.25157 4.20197,-4.58396 -0.20543,-0.33239 1.68546,-2.39517 4.20197,-4.58397 2.51651,-2.1888 4.4074,-4.25158 4.20197,-4.58397 -0.20543,-0.33239 1.68546,-2.39517 4.20198,-4.58397 2.5165,-2.18879 4.41306,-4.24241 4.21456,-4.5636 -0.1985,-0.32118 1.52202,-2.20958 3.8234,-4.19643 2.30136,-1.98686 4.01077,-3.89325 3.79868,-4.23643 -0.2121,-0.34317 1.50417,-2.23846 3.81393,-4.21175 2.30975,-1.97328 4.0288,-3.86408 3.82009,-4.20177 -0.2087,-0.33769 1.85307,-2.57402 4.5817,-4.96963 2.72864,-2.39562 4.80096,-4.61489 4.60514,-4.93172 -0.19581,-0.31683 1.52692,-2.20167 3.82829,-4.18852 2.30137,-1.98686 4.02036,-3.87775 3.81998,-4.20197 -0.20039,-0.32423 1.5186,-2.21512 3.81997,-4.20197 2.30137,-1.98686 4.01844,-3.88085 3.81572,-4.20885 -0.20272,-0.32801 1.85907,-2.56431 4.58176,-4.96955 2.72268,-2.40525 4.77385,-4.65873 4.55815,-5.00774 -0.21569,-0.349 1.32748,-2.07433 3.42928,-3.83405 2.10179,-1.75972 3.64969,-3.4774 3.43978,-3.81706 -0.20992,-0.33966 1.68015,-2.40376 4.20017,-4.58688 2.52001,-2.18313 4.4109,-4.24591 4.20197,-4.58397 -0.20893,-0.33806 1.68196,-2.40085 4.20197,-4.58397 2.52002,-2.18313 4.41404,-4.24084 4.20894,-4.57269 -0.2051,-0.33187 1.5169,-2.21789 3.82665,-4.19118 2.30976,-1.97329 4.01988,-3.87851 3.80029,-4.23382 -0.2196,-0.35532 1.49686,-2.28303 3.81436,-4.28382 2.31749,-2.00078 4.21363,-4.06041 4.21363,-4.57695 0,-0.51655 1.97684,-2.7011 4.39297,-4.85456 2.41613,-2.15347 4.39297,-4.1929 4.39297,-4.53207 0,-0.33917 1.28924,-2.04371 2.86498,-3.78787 1.57574,-1.74415 2.86498,-2.95621 2.86498,-2.69345 0,0.26277 0.51192,0.0529 1.13758,-0.46635 0.62567,-0.51927 0.96493,-1.22346 0.75393,-1.56487 -0.21101,-0.34142 1.50743,-2.2793 3.81875,-4.30641 2.31131,-2.0271 4.20673,-4.09631 4.21203,-4.59825 0.005,-0.50193 1.72846,-2.39282 3.82924,-4.20197 2.10078,-1.80915 3.81977,-3.67207 3.81998,-4.13981 2.1e-4,-0.46775 1.70463,-2.44459 3.78762,-4.39297 2.08298,-1.94839 3.54412,-3.56432 3.24698,-3.59096 -0.29715,-0.0267 0.25536,-0.36752 1.2278,-0.75753 0.97244,-0.39 1.57264,-1.02532 1.33378,-1.4118 -0.23886,-0.38649 1.20019,-2.14941 3.1979,-3.9176 1.9977,-1.76819 3.55172,-3.50121 3.45338,-3.85114 -0.0983,-0.34993 2.02903,-2.61099 4.72749,-5.02457 2.69847,-2.41359 4.75123,-4.63924 4.56171,-4.94589 -0.18953,-0.30666 1.54649,-2.2161 3.85781,-4.24321 2.31132,-2.0271 4.20673,-4.09631 4.21204,-4.59825 0.005,-0.50193 1.72846,-2.39281 3.82924,-4.20197 2.10078,-1.80915 3.81977,-3.67206 3.81997,-4.13981 2.1e-4,-0.46775 1.70464,-2.44459 3.78762,-4.39297 2.08299,-1.94839 3.54413,-3.56431 3.24698,-3.59095 -0.29715,-0.0267 0.25536,-0.36752 1.2278,-0.75754 0.97244,-0.39 1.56884,-1.03146 1.32534,-1.42546 -0.24351,-0.394 1.4402,-2.34198 3.74157,-4.32884 2.30137,-1.98685 4.02057,-3.87739 3.82046,-4.20118 -0.20012,-0.3238 1.68649,-2.39351 4.19247,-4.59935 2.50597,-2.20585 4.40038,-4.26294 4.20979,-4.57131 -0.19058,-0.30837 1.88601,-2.52072 4.61465,-4.91633 2.72863,-2.39561 4.7889,-4.63437 4.57837,-4.97503 -0.21054,-0.34065 1.16832,-1.89039 3.06413,-3.44386 1.8958,-1.55348 3.44692,-3.29878 3.44692,-3.87846 0,-0.57968 0.42975,-0.96801 0.95499,-0.86296 0.52525,0.10505 0.88237,-0.19878 0.7936,-0.67517 -0.0888,-0.476396 1.89178,-2.651965 4.40121,-4.834599 2.50943,-2.182634 4.40447,-4.22429 4.21119,-4.537012 -0.19326,-0.312722 1.69894,-2.373371 4.20491,-4.579219 2.50598,-2.205848 4.40075,-4.262338 4.21062,-4.569978 -0.19013,-0.30764 1.87218,-2.543082 4.58293,-4.96765 2.71074,-2.424568 4.76963,-4.665549 4.57532,-4.979958 -0.19431,-0.314409 1.68679,-2.367414 4.18024,-4.562233 2.49344,-2.19482 4.47931,-4.232757 4.41306,-4.528751 -0.0662,-0.295993 4.03911,-4.823657 9.12305,-10.061475 5.08393,-5.237818 9.17015,-9.707188 9.08047,-9.931933 -0.0897,-0.224745 2.4646,-2.914923 5.67617,-5.978174 l 5.83921,-5.569545 0.49635,39.18532 c 0.27299,21.551926 0.83888,120.837277 1.25753,220.634107 0.77621,185.02987 1.02132,214.9448 1.89357,231.10845 0.2721,5.04236 0.25922,18.70832 -0.0286,30.36879 l -0.52332,21.20086 -8.1224,-0.15387 c -4.46732,-0.0846 -67.94321,-0.37788 -141.05751,-0.65167 z"
           id="path1734"
           transform="scale(0.26458332)" />
      </g>
    </g>
  </g>
</svg>
