<?xml version="1.0" encoding="UTF-8" standalone="no"?>
<svg
   xmlns:dc="http://purl.org/dc/elements/1.1/"
   xmlns:cc="http://creativecommons.org/ns#"
   xmlns:rdf="http://www.w3.org/1999/02/22-rdf-syntax-ns#"
   xmlns:svg="http://www.w3.org/2000/svg"
   xmlns="http://www.w3.org/2000/svg"
   xmlns:sodipodi="http://sodipodi.sourceforge.net/DTD/sodipodi-0.dtd"
   xmlns:inkscape="http://www.inkscape.org/namespaces/inkscape"
   width="142.92265mm"
   height="152.09126mm"
   viewBox="0 0 142.92265 152.09126"
   version="1.1"
   id="svg6"
   sodipodi:docname="RougeFoncé.Jaune(blanc).svg"
   inkscape:version="1.0.1 (3bc2e813f5, 2020-09-07)">
  <metadata
     id="metadata12">
    <rdf:RDF>
      <cc:Work
         rdf:about="">
        <dc:format>image/svg+xml</dc:format>
        <dc:type
           rdf:resource="http://purl.org/dc/dcmitype/StillImage" />
        <dc:title></dc:title>
      </cc:Work>
    </rdf:RDF>
  </metadata>
  <defs
     id="defs10" />
  <sodipodi:namedview
     pagecolor="#ffffff"
     bordercolor="#666666"
     borderopacity="1"
     objecttolerance="10"
     gridtolerance="10"
     guidetolerance="10"
     inkscape:pageopacity="0"
     inkscape:pageshadow="2"
     inkscape:window-width="1920"
     inkscape:window-height="995"
     id="namedview8"
     showgrid="false"
     inkscape:zoom="1.3089093"
     inkscape:cx="344.86082"
     inkscape:cy="270.48207"
     inkscape:window-x="0"
     inkscape:window-y="24"
     inkscape:window-maximized="1"
     inkscape:current-layer="svg6"
     inkscape:document-rotation="0" />
  <path
     style="fill:#003cf9;fill-opacity:1;stroke-width:1.37447;stroke-linecap:round;stroke-linejoin:round"
     d=""
     id="path1467"
     transform="scale(0.26458332)" />
  <path
     style="fill:#003cf9;fill-opacity:1;stroke-width:1.37447;stroke-linecap:round;stroke-linejoin:round"
     d=""
     id="path1469"
     transform="scale(0.26458332)" />
  <path
     style="fill:#fffa40;fill-opacity:1;stroke-width:1.37447;stroke-linecap:round;stroke-linejoin:round"
     d=""
     id="path1569"
     transform="scale(0.26458332)" />
  <path
     style="fill:#00fb3a;fill-opacity:1;stroke-width:1.37447;stroke-linecap:round;stroke-linejoin:round"
     d=""
     id="path877"
     transform="scale(0.26458332)" />
  <g
     id="g4396">
    <rect
       style="fill:#fff9f9;stroke-width:5.14599;stroke-linecap:round;stroke-linejoin:round"
       id="rect4361"
       width="142.57564"
       height="151.56091"
       x="0.23041171"
       y="0.230409" />
    <g
       id="g1339">
      <g
         id="g1150">
        <g
           id="g1084">
          <path
             style="fill:#001e7c;fill-opacity:1;stroke:#000000;stroke-width:0.460818px;stroke-linecap:butt;stroke-linejoin:miter;stroke-opacity:1"
             d="m 0.23041171,0.230409 c 4.4e-4,48.178896 0,144.535211 0,144.535211 L 132.45995,0.230409 Z"
             id="path841" />
          <path
             style="fill:#fffa40;fill-opacity:1;stroke:#000000;stroke-width:0.460818px;stroke-linecap:butt;stroke-linejoin:miter;stroke-opacity:1"
             d="m 142.69225,151.86085 c -4.5e-4,-48.17889 0,-144.5352072 0,-144.5352072 L 10.462708,151.86085 Z"
             id="path841-3" />
        </g>
        <path
           style="fill:#ff001f;fill-opacity:1;stroke-width:1.37447;stroke-linecap:round;stroke-linejoin:round"
           d="M 1.5459904,336.40694 V 127.27458 H 193.08899 384.63198 l -3.49764,3.62898 c -1.9237,1.99593 -86.78614,94.73536 -188.58319,206.08761 C 90.754096,448.34342 6.1336824,540.81995 4.5057917,542.49455 l -2.9598013,3.04475 z"
           id="path1138"
           transform="scale(0.26458332)" />
        <path
           style="fill:#ff001f;fill-opacity:1;stroke-width:1.37447;stroke-linecap:round;stroke-linejoin:round"
           d="M 1.5459904,64.245004 V 1.2154277 H 250.28998 c 142.79363,0 248.63553,0.2862055 248.48934,0.6719363 -0.14007,0.369565 -25.8676,28.711147 -57.17228,62.981295 l -56.91762,62.309361 -191.57172,0.0483 -191.5717096,0.0483 z"
           id="path1140"
           transform="scale(0.26458332)" />
        <path
           style="fill:#ff001f;fill-opacity:1;stroke-width:1.37447;stroke-linecap:round;stroke-linejoin:round"
           d="M 1.5459904,273.75591 V 1.2154277 H 231.76673 c 126.62141,0 238.5122,0.2264689 248.6462,0.5032642 l 18.42547,0.5032643 -1.97182,2.3617165 C 494.35206,7.5954 452.13074,54.022984 414.10322,95.592287 159.36131,374.06014 5.5097772,542.18234 3.740112,544.01909 l -2.1941216,2.27729 z"
           id="path1142"
           transform="scale(0.26458332)" />
      </g>
      <path
         style="fill:#00fb3a;fill-opacity:1;stroke-width:1.37447;stroke-linecap:round;stroke-linejoin:round"
         d="m 41.56324,572.8456 c 0.156505,-0.46952 96.33201,-105.84351 213.72334,-234.16443 L 468.72536,105.37041 h 35.02066 35.02066 v 234.16442 234.16443 h -248.744 c -182.90881,0 -248.668682,-0.22594 -248.45944,-0.85366 z"
         id="path1206"
         transform="scale(0.26458332)" />
      <path
         style="fill:#00fb3a;fill-opacity:1;stroke-width:1.37447;stroke-linecap:round;stroke-linejoin:round"
         d="m 471.6272,102.31733 c 5.71765,-6.761038 66.03346,-72.479636 66.56648,-72.529169 0.31515,-0.02929 0.573,16.964738 0.573,37.764499 v 37.81775 h -34.8607 -34.86069 z"
         id="path1208"
         transform="scale(0.26458332)" />
      <path
         style="fill:#0087fa;fill-opacity:1;stroke-width:1.37447;stroke-linecap:round;stroke-linejoin:round"
         d="M 1.5050611,273.46994 V 0.55733217 L 247.32041,0.94437123 C 382.51885,1.1572427 494.50686,1.624957 496.18266,1.9837365 l 3.04689,0.6523263 -14.49717,16.0324092 C 445.60548,61.938896 4.6643637,543.79228 2.7839498,545.334 1.5885247,546.31411 1.5050611,528.57156 1.5050611,273.46994 Z"
         id="path1266"
         transform="scale(0.26458332)" />
      <path
         style="fill:#0087fa;fill-opacity:1;stroke-width:1.37447;stroke-linecap:round;stroke-linejoin:round"
         d="m 58.55045,572.9578 -16.680116,-0.40453 1.949668,-1.83004 c 1.072318,-1.00653 1.781499,-2.10215 1.575958,-2.43473 -0.205541,-0.33256 1.0489,-1.74373 2.787647,-3.13592 1.738747,-1.39218 3.378652,-3.08642 3.644235,-3.76498 0.265583,-0.67855 10.963193,-12.71147 23.772468,-26.73982 98.19735,-107.5429 388.76317,-425.32385 394.25997,-431.18736 1.96959,-2.10099 10.91468,-11.899222 19.87797,-21.773855 8.9633,-9.874634 23.36468,-25.619008 32.00306,-34.987499 l 15.70615,-17.033619 0.69937,3.281711 c 0.4127,1.936576 0.80803,113.433212 0.96448,272.016912 L 539.37643,573.69926 307.3035,573.5308 C 179.66339,573.4381 67.724513,573.1803 58.55045,572.9578 Z"
         id="path1268"
         transform="scale(0.26458332)" />
      <path
         style="fill:#001e7c;fill-opacity:1;stroke-width:1.37447;stroke-linecap:round;stroke-linejoin:round"
         d="M 2.5897007,544.60099 C 2.1870835,543.96876 1.7860771,430.86024 1.6218848,271.61726 L 1.3415295,-0.28694678 69.609837,0.27055793 C 107.15741,0.57718552 218.77162,1.0900511 317.64142,1.4102592 c 128.26014,0.4153941 180.00241,0.8213451 180.59798,1.416906 0.60362,0.6036159 -5.40248,7.6695498 -21.69402,25.5221508 -12.3908,13.578092 -26.60455,29.156811 -31.58613,34.619374 -10.22625,11.213626 -79.00574,86.51554 -105.0219,114.98123 -16.32464,17.86166 -35.91659,39.27233 -61.87019,67.61354 -6.54155,7.14336 -19.28148,21.06716 -28.31095,30.9418 -16.53557,18.0833 -54.69654,59.77806 -99.29259,108.48727 -13.27265,14.4968 -48.98655,53.51784 -79.364229,86.71342 -30.377676,33.19557 -57.085113,62.24648 -59.34986,64.55756 -2.2647475,2.31109 -5.0975179,5.37536 -6.2950458,6.80949 -1.7272778,2.06855 -2.3194196,2.38439 -2.8647845,1.52799 z"
         id="path1322"
         transform="scale(0.26458332)" />
      <path
         style="fill:#00fb3a;fill-opacity:1;stroke-width:1.37447;stroke-linecap:round;stroke-linejoin:round"
         d="M 238.34347,572.92484 C 130.98309,572.69575 43.003548,572.43249 42.833373,572.3398 c -0.170175,-0.0927 0.340897,-0.88711 1.135716,-1.76537 0.794818,-0.87827 1.449748,-2.15626 1.4554,-2.83999 0.0057,-0.68373 0.781454,-1.62872 1.724005,-2.09996 2.511883,-1.25587 4.786074,-3.48233 6.046355,-5.91944 1.049293,-2.02911 13.20117,-15.82025 30.425164,-34.52945 4.255243,-4.62217 17.312767,-18.88978 29.016727,-31.70579 11.70395,-12.81601 26.15012,-28.63071 32.10261,-35.14376 5.95248,-6.51306 20.56241,-22.49965 32.4665,-35.52577 24.28447,-26.57338 35.59418,-38.94683 60.42798,-66.11157 9.42455,-10.30914 29.68415,-32.47948 45.02134,-49.26742 15.3372,-16.78794 35.44241,-38.77928 44.67825,-48.86965 9.23584,-10.09037 24.10607,-26.33852 33.04496,-36.107 40.80953,-44.59693 49.82454,-54.44788 65.54952,-71.62762 9.23131,-10.08534 27.61383,-30.18641 40.85004,-44.66905 53.14815,-58.152996 69.6243,-76.050628 70.19704,-76.25327 0.3299,-0.116721 0.65607,0.227076 0.72483,0.763995 0.2269,1.771753 1.6303,339.735815 1.83696,442.374385 l 0.20268,100.65646 -53.09765,-0.17909 c -29.2037,-0.0985 -140.93795,-0.36652 -248.29833,-0.5956 z"
         id="path1324"
         transform="scale(0.26458332)" />
    </g>
    <path
       style="fill:#003cf9;fill-opacity:1;stroke-width:1.37447;stroke-linecap:round;stroke-linejoin:round"
       d="M 2.410997,539.7996 C 2.1994085,536.94329 1.93865,450.80563 1.8315337,348.38256 L 1.6367768,162.15881 H 178.37383 355.11089 l -3.10425,3.24698 C 350.2993,167.19163 280.35085,243.59035 196.56561,335.18072 20.35573,527.80571 5.0351934,544.45854 3.7484191,544.76557 3.0855978,544.92371 2.6786442,543.41266 2.410997,539.7996 Z"
       id="path1449"
       transform="scale(0.26458332)" />
    <path
       style="fill:#003cf9;fill-opacity:1;stroke-width:1.37447;stroke-linecap:round;stroke-linejoin:round"
       d="M 2.2406877,539.38128 C 1.9762511,536.33485 1.6890701,413.59907 1.6025077,266.63511 L 1.4451214,-0.5721102 16.343021,-0.5643232 c 8.193845,0.004286 44.980198,0.3512102 81.747451,0.77094944 C 134.85773,0.62636566 217.54107,1.1258851 281.83124,1.3166696 422.27619,1.7334475 495.3366,2.3904945 496.87349,3.2505882 c 0.99685,0.5578624 0.98642,0.8079863 -0.0849,2.0356405 -0.67176,0.7697965 -1.3522,1.8069592 -1.51208,2.3048066 -0.38442,1.1970416 -7.11766,8.6625517 -78.7578,87.3230977 -33.49237,36.774477 -71.82581,78.883817 -85.18543,93.576307 -37.25729,40.97443 -270.575407,295.83512 -300.248629,327.971 -14.452869,15.65234 -26.7471171,28.4588 -27.3205516,28.4588 -0.7407311,0 -1.181817,-1.60375 -1.5234017,-5.53896 z"
       id="path1453"
       transform="scale(0.26458332)" />
    <path
       style="fill:#003cf9;fill-opacity:1;stroke-width:1.37447;stroke-linecap:round;stroke-linejoin:round"
       d="m 537.91797,96.264257 c -0.25653,-4.727218 -0.17222,-9.798234 0.18736,-11.268924 0.46178,-1.888712 0.67674,0.635369 0.73198,8.594942 0.043,6.197908 -0.0413,11.268925 -0.18736,11.268925 -0.14606,0 -0.47545,-3.86772 -0.73198,-8.594943 z"
       id="path1459"
       transform="scale(0.26458332)" />
    <path
       style="fill:#003cf9;fill-opacity:1;stroke-width:1.37447;stroke-linecap:round;stroke-linejoin:round"
       d="m 537.50581,59.592503 c -0.0751,-8.610135 0.16063,-13.560909 0.64571,-13.560909 0.88124,0 0.9035,10.815988 0.0425,20.627862 -0.4949,5.639561 -0.58544,4.709779 -0.68817,-7.066953 z"
       id="path1461"
       transform="scale(0.26458332)" />
    <path
       style="fill:#003cf9;fill-opacity:1;stroke-width:1.37447;stroke-linecap:round;stroke-linejoin:round"
       d="m 537.53419,40.68363 c -0.0921,-3.151478 -0.38151,-6.589455 -0.64303,-7.639948 -0.35907,-1.44227 -0.25525,-1.705829 0.42394,-1.076279 0.60033,0.556458 0.81418,3.09712 0.64304,7.639948 l -0.25641,6.806241 z"
       id="path1473"
       transform="scale(0.26458332)" />
    <path
       style="fill:#003cf9;fill-opacity:1;stroke-width:1.37447;stroke-linecap:round;stroke-linejoin:round"
       d="m 538.38046,41.447625 c 0,-2.311084 0.14322,-3.256528 0.31827,-2.100986 0.17505,1.155543 0.17505,3.04643 0,4.201972 -0.17505,1.155542 -0.31827,0.210099 -0.31827,-2.100986 z"
       id="path1475"
       transform="scale(0.26458332)" />
    <path
       style="fill:#ff5459;fill-opacity:1;stroke-width:1.37447;stroke-linecap:round;stroke-linejoin:round"
       d="M 2.299749,540.14528 C 2.0726075,537.51905 1.706898,444.52177 1.4870613,333.48467 L 1.0873581,131.59902 H 192.13763 c 105.07764,0 190.93567,0.29066 190.7956,0.6459 -0.70248,1.78168 -351.516113,385.03512 -369.024465,403.14823 -5.0649563,5.2399 -9.656091,9.5271 -10.2025214,9.5271 -0.6653238,0 -1.1299311,-1.57732 -1.4064946,-4.77497 z"
       id="path933"
       transform="scale(0.26458332)" />
    <path
       style="fill:#ff5459;fill-opacity:1;stroke-width:1.37447;stroke-linecap:round;stroke-linejoin:round"
       d="M 1.0631252,65.513463 V -0.57209427 H 31.741531 c 16.873123,0 69.044429,0.32766297 115.936219,0.72813991 46.8918,0.40047703 131.32671,0.93518776 187.63313,1.18824606 122.67669,0.5513467 160.97563,0.9886997 161.835,1.8480669 1.08309,1.0830917 -1.58967,5.2046552 -8.13035,12.5375174 -3.43401,3.849931 -28.52092,31.495459 -55.74868,61.434508 L 383.76183,131.59902 H 192.41247 1.0631252 Z"
       id="path935"
       transform="scale(0.26458332)" />
    <path
       style="fill:#ff5459;fill-opacity:1;stroke-width:1.37447;stroke-linecap:round;stroke-linejoin:round"
       d="m 414.00236,573.10934 c -69.33254,-0.2534 -180.98756,-0.51125 -248.12228,-0.573 l -122.063125,-0.11228 0.36061,-1.98864 c 0.414629,-2.28654 2.486822,-5.71705 3.312704,-5.48417 1.243862,0.35073 3.963103,-1.84213 5.642754,-4.55044 0.980542,-1.58106 1.784815,-3.10535 1.787272,-3.38733 0.0067,-0.77175 11.517494,-13.72839 34.838935,-39.21505 11.53498,-12.60592 68.57355,-75.0052 126.75239,-138.66507 C 478.88306,92.043852 535.76564,29.987701 536.54925,29.987701 c 0.27321,0 0.51247,1.46114 0.5317,3.246978 0.36209,33.62264 1.85018,304.500651 1.95268,355.448621 0.0769,38.23794 0.39014,95.48026 0.696,127.20514 0.30587,31.72489 0.50567,57.68162 0.44401,57.68162 -0.0617,0 -56.83875,-0.20733 -126.17128,-0.46072 z"
       id="path937"
       transform="scale(0.26458332)" />
    <path
       style="fill:#ff5459;fill-opacity:1;stroke-width:1.37447;stroke-linecap:round;stroke-linejoin:round"
       d="M 3.1161878,543.10762 C 2.492254,541.48167 1.8726011,418.35959 1.3859899,199.32554 L 0.94154599,-0.72814556 92.872718,-0.27572079 c 50.562142,0.24883367 107.058272,0.59258804 125.546952,0.76389869 18.48867,0.17131057 83.46644,0.671889 144.39503,1.1123965 60.92859,0.4405074 116.01535,1.0272359 122.41502,1.3038409 l 11.63577,0.5029183 -0.15899,1.9210653 c -0.0874,1.0565863 -0.59632,2.0888847 -1.13084,2.2939967 -0.53452,0.2051128 -0.97184,0.7162666 -0.97184,1.1358992 0,0.8876619 -1.95527,3.2853292 -9.45653,11.5961512 -2.99276,3.315751 -6.00123,6.672201 -6.6855,7.458776 -1.03472,1.189413 -11.44248,12.673062 -14.03577,15.4867 -7.12671,7.732233 -18.83053,20.626101 -23.30185,25.67118 -3.15147,3.555879 -7.4675,8.35816 -9.59117,10.671735 -8.44978,9.20539 -11.45343,12.471896 -12.21748,13.286643 -3.8564,4.112286 -29.22885,32.15182 -32.39888,35.80456 l -2.48637,2.86498 -68.8714,0.18684 -68.87139,0.18684 68.24144,0.19927 68.24145,0.19927 -6.35786,7.11185 c -3.49682,3.91151 -10.99913,12.20369 -16.67179,18.42705 -5.67266,6.22336 -14.22655,15.65575 -19.00864,20.96086 -4.78209,5.3051 -10.30115,11.36463 -12.26458,13.46561 -1.96343,2.10099 -7.31479,7.94555 -11.8919,12.98792 -4.57711,5.04236 -9.71577,10.67627 -11.41925,12.5198 -1.70349,1.84353 -3.44485,3.73442 -3.86971,4.20197 -12.35505,13.59696 -18.17514,19.9697 -21.3597,23.38796 -2.15309,2.31108 -5.9615,6.44875 -8.46315,9.19482 -12.86696,14.12412 -19.50358,21.37824 -23.70409,25.90966 -2.55185,2.75288 -6.16173,6.72424 -8.02194,8.82522 -1.86022,2.10099 -3.57573,3.99187 -3.81224,4.20197 -0.23651,0.2101 -4.17161,4.50757 -8.74468,9.54994 -4.57305,5.04237 -9.70841,10.67628 -11.41189,12.51981 -1.70349,1.84352 -3.45027,3.73441 -3.88172,4.20197 -0.43147,0.46755 -31.16956,34.02658 -68.30686,74.57561 -37.13731,40.54903 -69.289784,75.61639 -71.449944,77.92747 -2.16016,2.31109 -7.692731,8.32755 -12.294603,13.36992 -4.601871,5.04236 -8.737645,9.51173 -9.190607,9.93193 -0.452964,0.4202 -4.570914,4.88957 -9.151001,9.93193 -4.580088,5.04237 -8.678852,9.54548 -9.108365,10.00691 -19.947849,21.4304 -21.429914,22.94784 -25.8567243,26.47385 -3.028007,2.41184 -3.2660409,2.47753 -3.8129379,1.05235 z"
       id="path939"
       transform="scale(0.26458332)" />
    <path
       style="fill:#ff5459;fill-opacity:1;stroke-width:1.37447;stroke-linecap:round;stroke-linejoin:round"
       d="M 2.9790863,543.56917 C 2.2927284,541.85175 0.35106864,9.320799 0.99553598,-0.45092262 1.0508193,-1.2891555 4.088541,-1.3944652 17.680014,-1.029329 c 9.139289,0.24552786 66.295655,0.63794955 127.014146,0.8720482 60.7185,0.23409865 115.89803,0.5752585 122.62118,0.75813297 6.72315,0.18287447 58.46471,0.67969013 114.98123,1.10403483 56.51652,0.4243446 105.42174,0.9895066 108.67827,1.2559156 5.18141,0.4238787 5.92096,0.6692779 5.92096,1.9646937 0,1.6276709 -3.06651,6.1380287 -6.00155,8.8273137 -1.03183,0.945443 -1.62686,1.718988 -1.32228,1.718988 0.30458,0 -1.10309,1.780213 -3.12815,3.956028 -10.2563,11.019831 -12.90642,13.946417 -15.80707,17.4561 -1.20627,1.459541 -5.90343,6.624607 -10.43814,11.477925 -4.5347,4.853317 -9.73611,10.510592 -11.55869,12.571721 -3.37541,3.81721 -16.28194,18.187373 -21.21779,23.623945 -1.49811,1.650091 -4.83204,5.259967 -7.40872,8.021946 -5.47101,5.864448 -7.21204,7.772217 -14.415,15.795507 -2.94138,3.27637 -7.21596,8.03718 -9.49907,10.57958 -2.28311,2.54239 -5.15594,5.65392 -6.38406,6.91451 -1.22813,1.26059 -2.7517,3.06553 -3.38571,4.01097 -1.15256,1.71871 -1.15696,1.71902 -26.46772,1.89382 l -25.31496,0.17484 24.37944,0.39816 24.37945,0.39816 -2.60559,2.77346 c -2.82015,3.00185 -5.44233,5.92158 -14.31951,15.94442 -6.15816,6.95292 -10.99931,12.24456 -15.59704,17.04842 -1.57472,1.64532 -3.94525,4.24112 -5.26785,5.76844 -3.40427,3.93123 -15.62472,17.27222 -20.01051,21.84538 -2.03151,2.11829 -3.5804,3.85143 -3.44199,3.85143 0.13842,0 -1.29362,1.68249 -3.1823,3.73885 -5.91732,6.44267 -13.28731,14.39487 -15.27589,16.48264 -1.98401,2.08297 -11.09047,12.19345 -13.51191,15.00165 -0.7623,0.88405 -4.8515,5.35342 -9.08712,9.93193 -4.23561,4.57851 -9.88929,10.73116 -12.56373,13.67254 -2.67444,2.94138 -5.56919,6.05483 -6.43278,6.91879 -0.8636,0.86396 -4.14866,4.45513 -7.30014,7.98037 -3.15147,3.52525 -7.66498,8.49104 -10.03001,11.03509 -2.36502,2.54405 -6.45742,7.03213 -9.09422,9.97351 -2.63679,2.94138 -6.38383,7.06695 -8.32675,9.16793 -1.94292,2.10099 -8.65184,9.40669 -14.9087,16.2349 -6.25685,6.8282 -11.66227,12.41491 -12.01203,12.41491 -0.34975,0 -0.63592,0.38508 -0.63592,0.85572 0,0.47065 -1.97683,2.89966 -4.39297,5.39781 -2.41613,2.49815 -4.90866,5.13967 -5.53896,5.87004 -3.29138,3.81398 -15.45476,17.06027 -19.23849,20.95131 -2.38732,2.45504 -4.36875,4.60821 -4.40316,4.78485 -0.068,0.3489 -4.31732,5.04589 -10.35612,11.44713 -2.10099,2.22707 -4.80771,5.19437 -6.01493,6.59399 -1.20722,1.39962 -5.16089,5.76673 -8.78594,9.70468 -3.62505,3.93797 -7.27858,7.91462 -8.11898,8.83703 -7.17777,7.87821 -15.94506,17.40022 -19.09987,20.74405 -2.10099,2.22686 -5.88276,6.34446 -8.40394,9.15021 -2.52119,2.80575 -6.555814,7.20804 -8.965843,9.78287 -2.410029,2.57483 -4.386866,4.95966 -4.392971,5.2996 -0.0061,0.33995 -0.354898,0.40561 -0.775095,0.14591 -0.420197,-0.2597 -0.763995,-0.02 -0.763995,0.53263 0,0.55265 -1.850335,2.79088 -4.111851,4.97385 -2.261524,2.18297 -3.991331,4.08956 -3.844025,4.23686 0.147306,0.14731 -1.761085,2.22683 -4.240859,4.62118 -2.479782,2.39434 -4.291631,4.35336 -4.026333,4.35336 0.265299,0 -1.626782,2.08315 -4.204624,4.62923 -2.577842,2.54608 -4.794795,4.90847 -4.926561,5.24975 -0.131767,0.34127 -4.21992,4.87622 -9.084786,10.07766 -4.864866,5.20144 -11.213305,12.03564 -14.107643,15.18712 -8.3087,9.04687 -12.630585,13.73334 -17.23795,18.69212 -2.355675,2.53535 -6.137449,6.62917 -8.403944,9.09738 -2.266495,2.4682 -6.063385,5.9858 -8.4375358,7.81686 -3.7390935,2.88378 -4.3873722,3.15221 -4.8453279,2.0063 z"
       id="path941"
       transform="scale(0.26458332)" />
    <path
       style="fill:#ff5459;fill-opacity:1;stroke-width:1.37447;stroke-linecap:round;stroke-linejoin:round"
       d="m 358.43541,131.80932 c 1.37317,-0.17003 3.43595,-0.16652 4.58397,0.008 1.14802,0.17432 0.0245,0.31344 -2.49667,0.30916 -2.52118,-0.004 -3.46046,-0.14692 -2.0873,-0.31696 z"
       id="path943"
       transform="scale(0.26458332)" />
    <path
       style="fill:#ff5459;fill-opacity:1;stroke-width:1.37447;stroke-linecap:round;stroke-linejoin:round"
       d="M 3.0774148,543.56102 C 2.5923291,542.77613 1.9250027,441.5306 1.4296551,293.56593 1.2095047,227.80507 0.82706862,134.76563 0.57979724,86.811608 0.27967645,28.608348 0.38604463,-0.53563284 0.89975142,-0.85312115 1.7614719,-1.3856937 268.58585,-0.08328492 288.3252,0.54984451 c 6.93325,0.2223805 53.51784,0.73951999 103.5213,1.14919879 50.00347,0.4096788 94.09552,0.9578478 97.98235,1.2181532 6.61179,0.4427999 7.06695,0.5807579 7.06695,2.1419767 0,0.9177814 -0.58533,2.5187357 -1.30073,3.5576763 -1.81694,2.6386415 -9.58665,11.7696525 -14.28419,16.7868825 -2.16383,2.311084 -6.33243,6.952353 -9.26356,10.31393 -2.93112,3.361578 -5.85151,6.627656 -6.48973,7.257952 -1.17698,1.162345 -16.30444,17.700785 -21.31606,23.304256 -1.50445,1.682116 -5.82954,6.489749 -9.61131,10.68363 -3.78178,4.193873 -7.21975,8.00727 -7.63995,8.4742 -0.4202,0.466931 -4.20197,4.589241 -8.40394,9.160681 -4.20198,4.57144 -9.53084,10.403979 -11.84192,12.961179 -2.31109,2.5572 -8.15565,9.0072 -12.98792,14.33333 l -8.78594,9.68387 -19.86387,0.18816 -19.86386,0.18815 18.90887,0.21832 c 10.39988,0.12008 18.90887,0.42036 18.90887,0.66729 0,0.24694 -3.00823,3.78575 -6.68495,7.86403 -3.67673,4.07828 -9.26009,10.31644 -12.40749,13.86258 -3.14739,3.54614 -7.65617,8.51032 -10.01951,11.0315 -2.36334,2.52118 -5.97656,6.46079 -8.02937,8.75468 -2.05282,2.29389 -7.51418,8.25022 -12.13635,13.23628 -4.62216,4.98606 -10.25573,11.18848 -12.51902,13.78316 -3.38747,3.88347 -17.36836,19.12885 -20.37845,22.22157 -0.44532,0.45755 -4.01848,4.44179 -7.94033,8.85386 -3.92185,4.41207 -10.94914,12.14527 -15.6162,17.18488 -4.66706,5.03961 -10.37645,11.22763 -12.68753,13.75116 -2.31109,2.52354 -4.38004,4.76048 -4.59768,4.97098 -0.21763,0.2105 -3.9868,4.33641 -8.37593,9.16868 -4.38912,4.83227 -9.40279,10.33303 -11.14149,12.22392 -1.7387,1.89089 -7.2225,7.90735 -12.18622,13.36991 -4.96372,5.46256 -13.21738,14.4013 -18.34148,19.86387 -5.12409,5.46256 -10.31063,11.11756 -11.52564,12.56666 -1.215,1.44909 -2.8967,3.34754 -3.73709,4.21877 -3.47066,3.59798 -25.52221,27.62615 -29.41381,32.05033 -3.75356,4.26727 -8.99707,10.00727 -37.74187,41.31563 -12.77148,13.91048 -15.92545,17.33701 -20.38186,22.1432 -2.34414,2.52814 -5.95401,6.46689 -8.021942,8.75278 -2.06792,2.28588 -4.979504,5.43575 -6.470196,6.99972 -1.490684,1.56396 -3.833184,4.16307 -5.205556,5.77578 -1.372371,1.61271 -4.793991,5.3456 -7.603597,8.29529 -4.374429,4.59256 -8.210207,8.78717 -18.391845,20.11237 -1.002954,1.1156 -5.193988,5.6659 -9.313408,10.11177 -4.119421,4.44588 -8.573292,9.25905 -9.897492,10.69593 -1.3242,1.43689 -4.01462,4.33151 -5.97871,6.4325 -1.96409,2.10098 -7.519247,8.10953 -12.344793,13.35231 -9.592655,10.42208 -14.3130455,14.96279 -17.6894955,17.01613 -2.4967866,1.51839 -2.6956129,1.56444 -3.2038407,0.74211 z"
       id="path945"
       transform="scale(0.26458332)" />
    <path
       style="fill:#ff5459;fill-opacity:1;stroke-width:1.37447;stroke-linecap:round;stroke-linejoin:round"
       d="m 376.39015,131.83357 c 0.74334,-0.1937 1.77473,-0.18096 2.29198,0.0283 0.51725,0.20928 -0.0909,0.36776 -1.35153,0.35219 -1.26059,-0.0156 -1.68379,-0.18679 -0.94045,-0.3805 z"
       id="path947"
       transform="scale(0.26458332)" />
    <path
       style="fill:#ff5459;fill-opacity:1;stroke-width:1.37447;stroke-linecap:round;stroke-linejoin:round"
       d="m 380.97412,131.83357 c 0.74334,-0.1937 1.77473,-0.18096 2.29198,0.0283 0.51725,0.20928 -0.0909,0.36776 -1.35153,0.35219 -1.26059,-0.0156 -1.68379,-0.18679 -0.94045,-0.3805 z"
       id="path949"
       transform="scale(0.26458332)" />
    <path
       style="fill:#ff5459;fill-opacity:1;stroke-width:1.37447;stroke-linecap:round;stroke-linejoin:round"
       d="M 2.9741285,543.3939 C 2.358894,542.39843 0.92788263,261.16431 0.78936959,114.02714 L 0.68112779,-0.95409171 112.98837,-0.73161922 c 61.76899,0.12235989 135.5136,0.54947336 163.87691,0.94914116 28.36331,0.3996678 86.63702,1.06519196 129.49713,1.47894246 42.86011,0.4137506 80.80325,0.9662287 84.31808,1.227729 l 6.39061,0.4754551 -0.42623,2.6265609 c -0.29703,1.8303369 -2.34236,4.8760286 -6.74708,10.0470476 -7.18419,8.43404 -6.20928,7.347742 -28.60068,31.868323 -9.20905,10.084733 -23.07921,25.38373 -30.82257,33.997772 -7.74337,8.614043 -14.61735,16.213018 -15.27552,16.88661 -0.65816,0.673591 -2.57185,2.737268 -4.25264,4.585928 -20.19391,22.21086 -25.83128,28.1929 -26.59894,28.22516 -0.49768,0.0209 -5.54615,0.0893 -11.21881,0.1519 l -10.31393,0.11387 10.12293,0.25165 c 5.56761,0.13842 10.12293,0.45018 10.12293,0.69281 0,1.00041 -8.847,10.90322 -53.42309,59.79861 -3.60277,3.95189 -6.90508,7.56176 -7.33845,8.02195 -0.43337,0.46019 -2.83995,3.08289 -5.34796,5.82822 -2.50802,2.74533 -7.53957,8.24609 -11.18124,12.22392 -3.64166,3.97782 -7.25154,7.95716 -8.02194,8.84295 -0.77041,0.8858 -4.15112,4.62294 -7.51269,8.30474 -3.36158,3.68182 -6.79956,7.45265 -7.63995,8.37964 -12.56814,13.86322 -16.1968,17.82487 -21.39186,23.35494 -3.36158,3.57834 -10.75323,11.62349 -16.42589,17.8781 -5.67266,6.2546 -10.66916,11.7499 -11.10334,12.21178 -0.43417,0.46188 -4.55974,4.95353 -9.16793,9.98147 -4.6082,5.02793 -8.89423,9.68495 -9.52453,10.34894 -2.40558,2.53417 -16.05085,17.4363 -21.08944,23.03199 -2.89761,3.21798 -12.63198,13.87571 -21.63193,23.68384 -8.99995,9.80813 -19.02184,20.75525 -22.27085,24.32692 -8.75332,9.62264 -22.84616,25.02601 -25.15917,27.49881 -0.6303,0.67384 -4.75587,5.16178 -9.16794,9.97319 -13.57288,14.8014 -14.87041,16.21047 -20.368634,22.1196 -5.427549,5.83317 -21.926775,23.86396 -26.920757,29.4197 -1.513752,1.68403 -6.534051,7.17857 -11.15622,12.21008 -4.622169,5.03151 -8.747742,9.53269 -9.167939,10.00262 -0.420197,0.46994 -4.886503,5.28933 -9.925124,10.70978 -22.549056,24.25778 -27.778346,29.55561 -31.3305992,31.74126 -2.6306024,1.61856 -3.1659416,1.71018 -3.8189583,0.65357 z"
       id="path951"
       transform="scale(0.26458332)" />
    <path
       style="fill:#de001a;fill-opacity:1;stroke-width:1.37447;stroke-linecap:round;stroke-linejoin:round"
       d="M 3.0306688,543.48539 C 2.8026287,543.11641 2.4377224,512.77626 2.2197659,476.06284 2.0018094,439.34941 1.6518248,385.24532 1.4420223,355.83152 1.2322198,326.41771 0.83351108,233.97276 0.55600285,150.39827 L 0.05144245,-1.5553184 123.36946,-1.0122326 c 67.82491,0.29869713 145.66487,0.85696003 172.97769,1.24058409 27.31281,0.38362414 81.11715,1.03981831 119.56519,1.45820921 38.44805,0.418391 72.39807,0.9701805 75.4445,1.226199 5.45585,0.4585037 5.53896,0.4978017 5.53896,2.619028 0,2.1537223 -5.97812,10.3461253 -13.38586,18.3439543 -1.75138,1.890887 -5.18964,5.672662 -7.64057,8.403943 -7.76635,8.654697 -17.38707,19.253003 -22.52128,24.809735 -2.73128,2.956053 -7.71635,8.467342 -11.07792,12.247307 -3.36158,3.779965 -6.30056,7.044563 -6.53107,7.254661 -0.71229,0.649213 -9.22141,10.059498 -15.23201,16.845171 -3.14556,3.55117 -7.80669,8.691361 -10.35808,11.422641 -2.55138,2.73128 -6.33801,6.83024 -8.41472,9.1088 -2.0767,2.27855 -6.71495,7.22124 -10.30723,10.98374 l -6.53139,6.84091 -7.60251,0.0472 -7.60251,0.0472 6.68496,0.26663 c 3.67672,0.14666 6.68495,0.54914 6.68495,0.89441 0,0.63487 -3.5435,4.9143 -9.89503,11.95005 -1.91118,2.11707 -4.82609,5.38315 -6.47757,7.25795 -1.65148,1.8748 -4.74566,5.30212 -6.87595,7.61626 -2.13029,2.31414 -6.79398,7.4711 -10.36374,11.45993 -3.56976,3.98881 -8.74214,9.65898 -11.49415,12.60036 -2.75203,2.94138 -8.42626,9.12901 -12.6094,13.75029 -4.18314,4.62128 -9.36281,10.29394 -11.51038,12.60591 -2.14756,2.31198 -9.2337,10.11087 -15.74696,17.33088 -6.51327,7.22001 -15.73001,17.36204 -20.48166,22.53785 -10.01586,10.90993 -12.77275,13.91416 -23.66601,25.78923 -4.40893,4.80629 -8.53192,9.2929 -9.16222,9.97022 -0.63029,0.67733 -4.06827,4.46203 -7.63995,8.41045 -3.57167,3.94842 -8.41287,9.26005 -10.75821,11.80363 -16.26999,17.64518 -24.89649,27.031 -30.87951,33.59758 -3.78177,4.15064 -7.22776,7.92467 -7.65776,8.38673 -2.62012,2.81557 -11.26002,12.24198 -14.49809,15.81791 -8.36931,9.24255 -18.5743,20.42023 -22.94368,25.13055 -2.5343,2.73205 -8.03506,8.73463 -12.22392,13.33908 -4.18886,4.60444 -8.13181,8.92881 -8.76211,9.60969 -1.53946,1.66301 -6.9236,7.51389 -13.33261,14.48837 -2.89596,3.15148 -6.84955,7.44895 -8.78575,9.54994 -5.77736,6.26904 -21.473006,23.40037 -25.208849,27.51469 -1.913142,2.10696 -7.114798,7.77963 -11.559229,12.60591 -4.44443,4.82629 -14.553318,15.82292 -22.464195,24.43697 -24.728493,26.92651 -37.997205,40.54466 -40.9937838,42.07341 -3.2988836,1.68296 -3.474059,1.7178 -4.0391744,0.80343 z"
       id="path1129"
       transform="scale(0.26458332)" />
    <path
       style="fill:#fffa40;fill-opacity:1;stroke-width:1.37447;stroke-linecap:round;stroke-linejoin:round"
       d="m 386.49854,572.71981 c -74.3749,-0.27422 -181.75033,-0.54887 -238.61208,-0.61033 l -103.384978,-0.11174 0.242911,-2.10099 c 0.133601,-1.15554 0.587952,-2.34629 1.009669,-2.64612 0.421717,-0.29981 0.782386,-0.98741 0.801485,-1.52799 0.0191,-0.54057 0.488845,-0.88357 1.043878,-0.76223 2.227163,0.48692 7.500839,-5.15042 8.000042,-8.55171 0.08482,-0.57788 1.248989,-1.97189 2.587054,-3.0978 1.338065,-1.1259 2.354852,-2.28886 2.259526,-2.58435 -0.09533,-0.29549 1.277572,-1.84945 3.050885,-3.45326 1.773311,-1.60381 3.148633,-3.14312 3.05627,-3.42069 -0.09236,-0.27756 1.453809,-1.9993 3.43594,-3.82608 1.982132,-1.82678 3.529091,-3.58142 3.437687,-3.89921 -0.0914,-0.31779 1.639136,-2.20739 3.845642,-4.19911 2.206506,-1.99172 3.85274,-3.87872 3.658297,-4.19334 -0.194442,-0.31461 1.529406,-2.19764 3.830775,-4.18449 2.301369,-1.98686 4.010776,-3.89325 3.798682,-4.23643 -0.212095,-0.34317 1.504175,-2.23846 3.813931,-4.21175 2.309756,-1.97328 4.028745,-3.86417 3.819975,-4.20197 -0.208771,-0.33779 1.510218,-2.22868 3.819979,-4.20197 2.30975,-1.97329 4.01988,-3.87851 3.80028,-4.23382 -0.2196,-0.35532 1.49687,-2.28304 3.81436,-4.28382 2.3175,-2.00078 4.21363,-4.06763 4.21363,-4.59302 0,-0.52537 2.04532,-2.75559 4.54514,-4.95603 2.49983,-2.20044 4.38547,-4.25915 4.19032,-4.57492 -0.19516,-0.31577 1.52811,-2.19973 3.82948,-4.18659 2.30137,-1.98685 4.02005,-3.87823 3.8193,-4.20306 -0.20075,-0.32483 1.35937,-2.07558 3.46692,-3.89057 2.10757,-1.815 3.8321,-3.69904 3.83231,-4.18676 2.1e-4,-0.48774 2.05277,-2.68611 4.56125,-4.88529 2.50849,-2.19917 4.39986,-4.25905 4.20304,-4.57751 -0.19681,-0.31845 1.70398,-2.3652 4.224,-4.54833 2.52001,-2.18312 4.4109,-4.24591 4.20197,-4.58397 -0.20893,-0.33806 1.68196,-2.40084 4.20197,-4.58397 2.52001,-2.18312 4.41009,-4.24722 4.20017,-4.58688 -0.20992,-0.33966 1.33798,-2.05734 3.43978,-3.81706 2.10179,-1.75972 3.64649,-3.48258 3.43267,-3.82857 -0.21384,-0.34599 2.01364,-2.76422 4.94995,-5.37386 2.93631,-2.60964 5.17733,-5.00597 4.98005,-5.32518 -0.19728,-0.31922 1.5311,-2.1949 3.84086,-4.16819 2.30975,-1.97329 4.0226,-3.87411 3.80633,-4.22405 -0.21627,-0.34994 1.49657,-2.25076 3.80633,-4.22404 2.30975,-1.97329 4.02976,-3.86253 3.82224,-4.1983 -0.20752,-0.33578 1.85521,-2.57056 4.58385,-4.96617 2.72864,-2.39561 4.80612,-4.60651 4.61664,-4.91311 -0.18949,-0.30659 1.53841,-2.18307 3.83978,-4.16992 2.30137,-1.98686 4.01077,-3.89325 3.79868,-4.23643 -0.21209,-0.34317 1.50418,-2.23846 3.81393,-4.21175 2.30976,-1.97328 4.0288,-3.86408 3.8201,-4.20177 -0.20871,-0.33769 1.85306,-2.57402 4.5817,-4.96963 2.72864,-2.39562 4.80095,-4.61488 4.60514,-4.93172 -0.19581,-0.31683 1.52691,-2.20167 3.82829,-4.18852 2.30136,-1.98686 4.01077,-3.89325 3.79868,-4.23643 -0.21209,-0.34317 1.50417,-2.23846 3.81393,-4.21175 2.30975,-1.97328 4.0288,-3.86408 3.8201,-4.20177 -0.20871,-0.33769 1.85306,-2.57402 4.5817,-4.96963 2.72863,-2.39562 4.78742,-4.63677 4.57507,-4.98036 -0.21234,-0.34358 1.33358,-2.06446 3.43537,-3.82419 2.1018,-1.75972 3.65289,-3.47224 3.44687,-3.80559 -0.20602,-0.33335 1.85794,-2.56613 4.58658,-4.96175 2.72864,-2.39561 4.80095,-4.61488 4.60514,-4.93171 -0.19581,-0.31683 1.52691,-2.20167 3.82829,-4.18852 2.30136,-1.98686 4.01468,-3.88692 3.80738,-4.22235 -0.20731,-0.33543 1.68203,-2.40071 4.19855,-4.58951 2.51651,-2.18879 4.40739,-4.25158 4.20197,-4.58397 -0.20543,-0.33238 1.68546,-2.39517 4.20197,-4.58397 2.51651,-2.18879 4.41307,-4.24241 4.21456,-4.56359 -0.1985,-0.32118 1.52203,-2.20958 3.8234,-4.19643 2.30137,-1.98686 4.01469,-3.88692 3.80738,-4.22235 -0.20731,-0.33543 1.68204,-2.40071 4.19855,-4.58951 2.51651,-2.18879 4.4074,-4.25158 4.20198,-4.58397 -0.20543,-0.33238 1.68545,-2.39517 4.20197,-4.58397 2.51651,-2.18879 4.41306,-4.24241 4.21456,-4.56359 -0.1985,-0.32118 1.52202,-2.20958 3.8234,-4.19643 2.30136,-1.98686 4.01077,-3.89325 3.79868,-4.23643 -0.21209,-0.34317 1.50418,-2.23846 3.81393,-4.21175 2.30976,-1.97329 4.0288,-3.86408 3.8201,-4.20178 -0.20871,-0.33768 1.85306,-2.57402 4.5817,-4.96963 2.72864,-2.39561 4.78273,-4.64436 4.56465,-4.99722 -0.21808,-0.35286 1.31898,-2.08808 3.41568,-3.85605 2.09671,-1.76796 3.64512,-3.48482 3.44091,-3.81523 -0.20421,-0.33041 1.68768,-2.39159 4.20419,-4.58038 2.51651,-2.1888 4.4074,-4.25159 4.20197,-4.58397 -0.20542,-0.33239 1.68546,-2.39518 4.20197,-4.58397 2.51652,-2.1888 4.40966,-4.24792 4.207,-4.57584 -0.20267,-0.32792 1.266,-2.04292 3.26371,-3.81112 1.9977,-1.76819 3.55505,-3.49123 3.46077,-3.82896 -0.0943,-0.33774 1.71066,-2.33418 4.01098,-4.43655 2.30031,-2.10235 4.18238,-4.16273 4.18238,-4.57862 0,-0.41589 2.06279,-2.62288 4.58397,-4.90442 2.52118,-2.28154 4.58397,-4.51321 4.58397,-4.95927 0,-0.44606 1.80494,-2.44025 4.01097,-4.43155 2.20604,-1.99129 3.93698,-3.87818 3.84654,-4.19307 -0.0904,-0.3149 1.49347,-2.12331 3.5198,-4.0187 2.02632,-1.8954 3.90283,-4.01583 4.17001,-4.71209 0.26717,-0.69626 0.84052,-1.04668 1.2741,-0.77872 0.43358,0.26796 0.69385,0.1751 0.57839,-0.20637 -0.11546,-0.38147 1.07931,-2.127 2.65505,-3.87896 1.57574,-1.75196 2.86498,-2.97041 2.86498,-2.70765 0,0.26276 0.51192,0.0529 1.13759,-0.46635 0.62566,-0.51927 0.96908,-1.21675 0.76313,-1.54997 -0.20594,-0.33323 1.34493,-2.15173 3.44639,-4.04112 2.10146,-1.88939 3.82083,-3.78363 3.82083,-4.20944 0,-0.4258 2.06279,-2.64089 4.58397,-4.92243 2.52119,-2.28154 4.58397,-4.5248 4.58397,-4.98503 0,-0.46023 2.04531,-2.63713 4.54514,-4.83756 2.49983,-2.20045 4.38701,-4.25667 4.19374,-4.56939 -0.19328,-0.31273 1.70756,-2.35942 4.22407,-4.54821 2.51651,-2.1888 4.41472,-4.23975 4.21823,-4.55766 -0.19647,-0.31791 1.53257,-2.19253 3.84233,-4.16582 2.30975,-1.97328 4.02142,-3.87601 3.8037,-4.22828 -0.21771,-0.35227 1.66312,-2.43133 4.17963,-4.62013 2.51651,-2.1888 4.4096,-4.24802 4.20686,-4.57606 -0.20273,-0.32803 1.86391,-2.55647 4.59255,-4.95208 2.72864,-2.39561 4.79654,-4.62202 4.59534,-4.947564 -0.20119,-0.325547 1.52399,-2.206412 3.83375,-4.179699 2.30975,-1.973286 4.03641,-3.851765 3.83701,-4.174396 -0.1994,-0.322631 1.86512,-2.554529 4.5878,-4.959772 2.72268,-2.405244 4.79555,-4.623617 4.60637,-4.929718 -0.18918,-0.306101 1.88832,-2.553168 4.61667,-4.993482 2.72835,-2.440314 4.79346,-4.604112 4.58913,-4.80844 -0.20433,-0.204328 1.67457,-2.279106 4.17532,-4.610617 2.50075,-2.33151 4.41176,-4.374173 4.24669,-4.539251 -0.16508,-0.165077 1.89073,-2.403929 4.56847,-4.975227 2.67774,-2.571296 4.86862,-4.940044 4.86862,-5.263882 0,-0.323839 2.0552,-2.549129 4.56712,-4.94509 2.51191,-2.395961 4.47591,-4.569041 4.36443,-4.829067 -0.11149,-0.260025 2.42495,-2.979069 5.63652,-6.04232 l 5.83921,-5.569545 0.49635,39.18532 c 0.27299,21.551926 0.83888,120.83727 1.25753,220.6341 0.77621,185.02988 1.02132,214.94481 1.89357,231.10845 0.2721,5.04237 0.25922,18.70833 -0.0286,30.3688 l -0.52332,21.20086 -8.8864,-0.15366 c -4.88752,-0.0845 -69.73859,-0.37804 -144.11349,-0.65226 z"
       id="path1236"
       transform="scale(0.26458332)" />
  </g>
</svg>
