<svg xmlns="http://www.w3.org/2000/svg" xmlns:xlink="http://www.w3.org/1999/xlink" width="1267.219" height="1267.219" viewBox="0 0 335.285 335.285"><defs><linearGradient xlink:href="#a" id="b" gradientUnits="userSpaceOnUse" gradientTransform="matrix(.56872 0 0 .56872 -380.027 -1235.117)" x1="697.508" y1="2254.334" x2="876.836" y2="2244.034"/><linearGradient id="a"><stop style="stop-color:#000;stop-opacity:1" offset="0"/><stop style="stop-color:#000;stop-opacity:0" offset="1"/></linearGradient></defs><g transform="matrix(1.14487 0 0 1.15032 125.487 -2890.56)" style="stroke:url(#meshgradient9305)"><g transform="translate(-322.813 305.415)" style="stroke:url(#meshgradient9263)"><ellipse style="fill:#fff;fill-opacity:1;stroke:#fff;stroke-width:2.13603;stroke-linecap:round;stroke-linejoin:round;stroke-miterlimit:4;stroke-dasharray:none;stroke-opacity:1" cx="307.699" cy="2349.195" rx="5.41" ry="5.02"/><g style="fill:none;fill-opacity:1;stroke:#fff;stroke-opacity:1"><path style="fill:none;fill-opacity:1;stroke:#fff;stroke-width:12.651;stroke-linecap:round;stroke-linejoin:round;stroke-miterlimit:4;stroke-dasharray:none;stroke-opacity:1" d="m199.88 1039.078.287-34.223 58.09 64.58v-64.36" transform="matrix(.8802 0 0 .83748 132.064 1451.053)"/><path style="fill:none;fill-opacity:1;stroke:#fff;stroke-width:13.2842;stroke-linecap:round;stroke-linejoin:round;stroke-miterlimit:4;stroke-dasharray:none;stroke-opacity:1" d="m311.693 1006.723-31.73 34.423 37.238 30.988" transform="matrix(.8802 0 0 .83748 132.064 1451.053)"/></g></g><g transform="translate(-417.358 421.964) scale(1.21397)" style="stroke:url(#meshgradient9291)"><ellipse style="fill:#fff;fill-opacity:1;stroke:#fff;stroke-width:1.92394;stroke-linecap:round;stroke-linejoin:round;stroke-miterlimit:4;stroke-dasharray:none;stroke-opacity:1;paint-order:markers fill stroke" cx="428.974" cy="1860.124" rx="2.357" ry="1.882"/><g style="fill:url(#meshgradient1625);fill-opacity:1;stroke:url(#meshgradient9277)" transform="translate(-160.586 704.076) scale(.85004)"><path style="fill:none;fill-opacity:1;stroke:#fff;stroke-width:4.93052;stroke-linecap:round;stroke-linejoin:round;stroke-miterlimit:4;stroke-dasharray:none;stroke-opacity:1" d="m693.934 1385.523-.027-10.1"/><path style="fill:none;fill-opacity:1;stroke:#fff;stroke-width:5.16808;stroke-linecap:round;stroke-linejoin:round;stroke-miterlimit:4;stroke-dasharray:none;stroke-opacity:1" d="m662.385 1384.854 18.37.04M632.576 1360.253l18.37.039M632.787 1384.862l18.37.04M662.385 1360.245l18.37.04"/><path style="fill:none;fill-opacity:1;stroke:#fff;stroke-width:5.26509;stroke-linecap:round;stroke-linejoin:round;stroke-miterlimit:4;stroke-dasharray:none;stroke-opacity:1" d="M602.262 1359.966a13.89 13.89 0 0 1 8.962-.976 13.89 13.89 0 0 1 7.645 4.779 13.89 13.89 0 0 1 3.05 8.483 13.89 13.89 0 0 1-2.853 8.552 13.893 13.893 0 0 1-7.64 4.98c-3.01.737-6.266.419-9.076-.887"/><ellipse style="fill:#fff;fill-opacity:1;stroke:#fff;stroke-width:2.26335;stroke-linecap:round;stroke-linejoin:round;stroke-miterlimit:4;stroke-dasharray:none;stroke-opacity:1;paint-order:markers fill stroke" cx="604.372" cy="1372.755" rx="2.772" ry="2.214"/><path style="fill:none;fill-opacity:1;stroke:#fff;stroke-width:5.29228;stroke-linecap:round;stroke-linejoin:round;stroke-miterlimit:4;stroke-dasharray:none;stroke-opacity:1" d="M703.112 1359.813a10.617 10.617 0 0 1 7.081 2.782 10.612 10.612 0 0 1 3.343 6.834c.2 2.369-.435 4.8-1.768 6.767a10.594 10.594 0 0 1-5.627 4.155 10.595 10.595 0 0 1-6.987-.302 10.595 10.595 0 0 1-5.247-4.626"/><path style="fill:none;fill-opacity:1;stroke:#fff;stroke-width:5.15322;stroke-linecap:round;stroke-linejoin:round;stroke-miterlimit:4;stroke-dasharray:none;stroke-opacity:1" d="m662.377 1372.24 13.053.054"/><path style="fill:none;fill-opacity:1;stroke:#fff;stroke-width:5.15252;stroke-linecap:round;stroke-linejoin:round;stroke-miterlimit:4;stroke-dasharray:none;stroke-opacity:1" d="m633.131 1372.245 12.911.055"/></g></g></g><rect style="fill:url(#b);fill-opacity:1;stroke:url(#meshgradient9321);stroke-width:2.82915;stroke-linecap:round;stroke-linejoin:round;stroke-miterlimit:4;stroke-dasharray:none;stroke-dashoffset:0;stroke-opacity:1;paint-order:markers fill stroke" width="86.59" height="86.59" x=".469" y=".522" rx="50.504" transform="matrix(3.40525 0 0 3.42145 23.418 18.184)"/><g transform="matrix(.76107 0 0 .7647 94.933 43.521)" style="stroke:url(#meshgradient9378)"><g transform="translate(-8.314 -23.797) scale(1.08573)" style="stroke:url(#meshgradient9335)"><ellipse style="fill:#fff;fill-opacity:1;stroke:#fff;stroke-width:3.24664;stroke-linecap:round;stroke-linejoin:round;stroke-miterlimit:4;stroke-dasharray:none;stroke-opacity:1" cx="8.688" cy="175.262" rx="8.224" ry="7.631"/><g style="fill:none;fill-opacity:1;stroke:#fff;stroke-opacity:1"><path style="fill:none;fill-opacity:1;stroke:#fff;stroke-width:12.651;stroke-linecap:round;stroke-linejoin:round;stroke-miterlimit:4;stroke-dasharray:none;stroke-opacity:1" d="m199.88 1039.078.287-34.223 58.09 64.58v-64.36" transform="matrix(1.33786 0 0 1.27293 -258.267 -1187.86)"/><path style="fill:none;fill-opacity:1;stroke:#fff;stroke-width:13.2842;stroke-linecap:round;stroke-linejoin:round;stroke-miterlimit:4;stroke-dasharray:none;stroke-opacity:1" d="m311.693 1006.723-31.73 34.423 37.238 30.988" transform="matrix(1.33786 0 0 1.27293 -258.267 -1187.86)"/></g></g><g transform="translate(-21.483 -41.903) scale(1.1499)" style="stroke:url(#meshgradient9364)"><ellipse style="fill:#fff;fill-opacity:1;stroke:#fff;stroke-width:4.65;stroke-linecap:round;stroke-linejoin:round;stroke-miterlimit:4;stroke-dasharray:none;stroke-opacity:1;paint-order:markers fill stroke" cx="188.831" cy="216.019" rx="4.348" ry="3.473"/><circle style="fill:#fff;fill-opacity:1;stroke:#fff;stroke-width:5.683;stroke-linecap:round;stroke-linejoin:round;stroke-miterlimit:4;stroke-dasharray:none;stroke-opacity:1;paint-order:markers fill stroke" cx="48.006" cy="234.688" r="3.609"/><g style="stroke:url(#meshgradient9350);stroke-width:9.7;stroke-miterlimit:4;stroke-dasharray:none"><path style="fill:none;fill-opacity:1;stroke:#fff;stroke-width:9.7;stroke-linecap:round;stroke-linejoin:round;stroke-miterlimit:4;stroke-dasharray:none;stroke-opacity:1" d="m189.405 256.062-.043-15.842M139.92 255.013l28.813.062M93.167 216.426l28.812.06M93.498 255.024l28.812.063M139.92 216.414l28.813.062M45.62 215.976a21.786 21.786 0 0 1 14.057-1.53 21.786 21.786 0 0 1 11.99 7.494 21.786 21.786 0 0 1 4.784 13.307 21.786 21.786 0 0 1-4.475 13.413 21.79 21.79 0 0 1-11.982 7.811 21.79 21.79 0 0 1-14.236-1.39M203.8 215.736a16.644 16.644 0 0 1 11.107 4.363 16.644 16.644 0 0 1 5.243 10.72 16.617 16.617 0 0 1-2.773 10.614 16.617 16.617 0 0 1-8.825 6.516 16.617 16.617 0 0 1-10.96-.474 16.617 16.617 0 0 1-8.23-7.255M139.909 235.226l20.473.086M94.038 235.235l20.25.086"/></g></g></g></svg>