<svg xmlns="http://www.w3.org/2000/svg" xmlns:xlink="http://www.w3.org/1999/xlink" width="1506.91" height="1096.613" viewBox="0 0 398.703 290.145"><defs><linearGradient id="a"><stop style="stop-color:#0186f5;stop-opacity:1" offset="0"/><stop style="stop-color:#0186f5;stop-opacity:1" offset=".132"/><stop style="stop-color:#35c2b0;stop-opacity:1" offset=".315"/><stop style="stop-color:#aad825;stop-opacity:1" offset=".667"/><stop style="stop-color:#fed700;stop-opacity:1" offset="1"/></linearGradient><linearGradient xlink:href="#a" id="f" gradientUnits="userSpaceOnUse" x1="130.803" y1="29.696" x2="245.011" y2="153.736"/><linearGradient xlink:href="#b" id="g" gradientUnits="userSpaceOnUse" x1="37.045" y1="162.185" x2="37.983" y2="84.34"/><linearGradient id="b"><stop style="stop-color:#ff7f00;stop-opacity:1" offset="0"/><stop style="stop-color:#fe0201;stop-opacity:1" offset="1"/></linearGradient><linearGradient xlink:href="#c" id="h" gradientUnits="userSpaceOnUse" x1="133.843" y1="10.269" x2="259.928" y2="12.689"/><linearGradient id="c"><stop style="stop-color:#0186f5;stop-opacity:1" offset="0"/><stop style="stop-color:#0186f5;stop-opacity:1" offset=".198"/><stop style="stop-color:#3156fd;stop-opacity:1" offset="1"/></linearGradient><linearGradient xlink:href="#d" id="i" gradientUnits="userSpaceOnUse" x1="266.831" y1="57.721" x2="278.453" y2="34.79"/><linearGradient id="d"><stop style="stop-color:#8434d5;stop-opacity:1" offset="0"/><stop style="stop-color:#3156fd;stop-opacity:1" offset=".854"/><stop style="stop-color:#3156fd;stop-opacity:1" offset="1"/></linearGradient><linearGradient xlink:href="#e" id="j" gradientUnits="userSpaceOnUse" x1="253.89" y1="70.504" x2="157.083" y2="75.09"/><linearGradient id="e"><stop style="stop-color:#8434d5;stop-opacity:1" offset="0"/><stop style="stop-color:#fe0201;stop-opacity:1" offset="1"/></linearGradient></defs><path style="fill:url(#f);fill-opacity:1;stroke:none;stroke-width:.264583px;stroke-linecap:butt;stroke-linejoin:miter;stroke-opacity:1" d="M124.96-5.779C111.301 5.105 98.206 19.514 90.604 35.28c-15.624 32.404-6.964 62.187-.267 81.517 9.119 26.32 27.586 39.61 49.596 49.315 31.381 13.839 70.828 14.77 106.646 5.52 12.626-3.26 32.23-10.04 36.508-16.365 4.632-6.848 5.36-20.091-4.592-25.909-9.705-5.673-10.647-1.34-39.556 5.079-20.12 4.467-42.089 5.243-68.476-6.148-16.642-7.183-27.903-18.207-31.75-33.275-11.035-43.22 12.805-59.25 17.456-62.181z" transform="matrix(.88209 0 0 .88209 106.668 34.172)"/><path style="fill:url(#g);fill-opacity:1;stroke:none;stroke-width:.264583px;stroke-linecap:butt;stroke-linejoin:miter;stroke-opacity:1" d="M157.844 45.108c-12.424-1.646-48.869-5.508-86.998-12.273C11.842 22.366-57.526 7.847-79.674 6.297c-42.622-2.982-49.729 52.389-15.704 61.86 19.27 5.364 72.297-.27 85.187 25.178 3.926 7.751 14.312 36.978 26.077 73.17 4.612 14.19 42.123 11.958 35.148-18.272-3.982-17.264-13.051-63.893-13.051-63.893s107.594 11.41 116.35 12.167z" transform="matrix(.88209 0 0 .88209 106.668 34.172)"/><path style="fill:url(#h);fill-opacity:1;stroke:none;stroke-width:.264583px;stroke-linecap:butt;stroke-linejoin:miter;stroke-opacity:1" d="M214.501 16.631c13.663.363 37.437 3.872 48.144 11.035l59.706 11.766c.566-33.138-17.608-50.97-37.973-61.25-15.458-7.802-37.143-14.156-69.688-12.767-31.119 1.328-63.838 8.145-89.934 28.94l31.19 38.678c14.716-9.272 33.21-17.075 58.555-16.402z" transform="matrix(.88209 0 0 .88209 106.668 34.172)"/><path style="fill:url(#i);fill-opacity:1;stroke:none;stroke-width:.264583px;stroke-linecap:butt;stroke-linejoin:miter;stroke-opacity:1" d="M261.693 27.056s3.144 2.014 4.51 3.262c6.503 5.94 8.656 13.038-11.072 16.302l15.605 48.25c35.503-9.513 51.169-30.462 51.606-56.039z" transform="matrix(.88209 0 0 .88209 106.668 34.172)"/><path style="fill:url(#j);fill-opacity:1;stroke:none;stroke-width:.264583px;stroke-linecap:butt;stroke-linejoin:miter;stroke-opacity:1" d="M255.72 46.537c-17.489 2.893-51.395 4.764-98.144-1.43l-3.511 51.4c75.915 6.567 102.612 2.088 117.26-1.837z" transform="matrix(.88209 0 0 .88209 106.668 34.172)"/><g aria-label="TotalEnergies" style="font-style:normal;font-variant:normal;font-weight:600;font-stretch:normal;font-size:70.7704px;line-height:1.25;font-family:'Waze Boing';-inkscape-font-specification:'Waze Boing, Semi-Bold';font-variant-ligatures:normal;font-variant-caps:normal;font-variant-numeric:normal;font-variant-east-asian:normal;text-align:start;letter-spacing:0;word-spacing:0;writing-mode:lr-tb;text-anchor:start;fill:#fc0103;fill-opacity:1;stroke:none;stroke-width:.368594"><path d="M-115.92 234.906c0 .92.708 1.628 1.558 1.628h14.154v38.688l9.33.034v-38.722h14.153c.85 0 1.557-.708 1.557-1.628v-5.975c0-.92-.708-1.628-1.557-1.628h-37.637c-.85 0-1.557.708-1.557 1.628z" style="font-style:normal;font-variant:normal;font-weight:600;font-stretch:normal;font-size:70.7704px;font-family:'Waze Boing';-inkscape-font-specification:'Waze Boing, Semi-Bold';font-variant-ligatures:normal;font-variant-caps:normal;font-variant-numeric:normal;font-variant-east-asian:normal;fill:#fc0103;fill-opacity:1;stroke-width:.368594" transform="matrix(.89237 0 0 .87192 106.668 34.172)"/><path d="M-82.725 257.575c0 10.19 8.35 18.117 18.683 18.117 10.404 0 18.755-7.926 18.755-18.117 0-10.262-8.351-18.33-18.755-18.33-10.332 0-18.683 8.068-18.683 18.33zm10.332-.071c0-4.813 3.61-8.776 8.351-8.776 4.813 0 8.422 3.963 8.422 8.776 0 4.812-3.61 8.705-8.422 8.705-4.741 0-8.35-3.893-8.35-8.705zM-39.186 264.975c0 7.855 5.874 11.04 11.819 11.04 4.034 0 8.163-.571 10.798-2.629 4.296-3.354.695-10.17-5.166-6.794-1.739 1.001-4.599.492-5.123.274-1.18-.49-3.232-.903-3.112-4.298v-14.84h8.649c6.634 0 6.55-8.563 0-8.563h-8.65v-11.72l-9.215-.035v11.755h-4.53v8.563h4.53zM-13.075 257.433c0 11.111 8.28 18.259 17.197 18.259 4.6 0 9.397-1.982 11.025-4.671v4.718l8.551-.034v-31.974c0-6.258-8.375-5.953-8.375-.345-1.628-2.69-6.53-4.14-11.13-4.14-8.917 0-17.268 7.005-17.268 18.187zm10.333.07c0-4.812 3.609-8.775 8.421-8.775 4.813 0 8.422 3.963 8.422 8.776 0 4.812-3.61 8.775-8.422 8.775-4.812 0-8.421-3.963-8.421-8.775zM41.403 275.257v-43.72c0-5.545-9.668-5.365-9.668 0v43.717zM49.772 226.768c-.92 0-1.557.707-1.557 1.557v45.284c0 .92.637 1.627 1.557 1.627H81.07l.033-9.766H58.83v-9.262h17.462c.92 0 1.556-.778 1.556-1.627v-6.228c0-.92-.636-1.628-1.556-1.628H58.83v-10.19h20.12c.92 0 1.628-.709 1.628-1.629v-6.51c0-.92-.708-1.628-1.628-1.628zM112.623 273.821c0 .85.778 1.415 1.556 1.415h6.102c.779 0 1.557-.566 1.557-1.415v-19.108c0-8.422-4.746-16.032-13.876-16.032-5.378 0-10.567 1.617-12.62 4.093 0-5.074-8.098-5.295-8.098-.446v32.952l9.144.034v-19.447c0-11.995 16.235-10.081 16.235 0zM187.355 238.383c-5.036 0-9.156 3.056-11.067 6.1v-2.296c0-4.273-7.674-4.726-7.674.15v32.8l9.018.118v-16.72c0-5.035 3.301-10.588 6.85-11.179l3.656-.608c5.825 0 4.89-8.365-.783-8.365zM211.489 281.933c-4.67 0-9.132-.268-11.526-1.629-5.734-3.259-9.122 3.9-5.549 6.011 4.83 2.854 7.238 4.259 16.296 4.259 11.607 0 17.902-6.571 17.902-16.196v-32.05c0-4.226-8.028-4.714-8.028-.535v2.194c-1.698-2.69-6.566-4.207-11.237-4.207-8.917 0-16.985 6.936-16.985 17.905 0 10.97 7.997 17.764 17.41 17.764 4.529 0 8.209-1.982 9.766-4.388v2.963c0 4.6-2.6 7.91-8.05 7.91zm-8.794-24.248c0-4.812 3.609-8.563 8.35-8.563 4.813 0 8.422 3.75 8.422 8.563 0 4.883-3.61 8.564-8.422 8.564-4.741 0-8.35-3.68-8.35-8.564z" style="font-style:normal;font-variant:normal;font-weight:600;font-stretch:normal;font-size:70.7704px;font-family:'Waze Boing';-inkscape-font-specification:'Waze Boing, Semi-Bold';font-variant-ligatures:normal;font-variant-caps:normal;font-variant-numeric:normal;font-variant-east-asian:normal;fill:#fc0103;fill-opacity:1;stroke-width:.368594" transform="matrix(.89237 0 0 .87192 106.668 34.172)"/><path d="M240.857 234.943c3.014 0 5.516-2.632 5.516-5.726 0-3.159-2.502-5.792-5.516-5.792-3.079 0-5.58 2.633-5.58 5.792 0 3.094 2.501 5.726 5.58 5.726zm3.207 40.293c.77 0 1.347-.658 1.347-1.448v-29.692c0-6.266-9.237-6.264-9.237 0v29.692c0 .79.642 1.448 1.412 1.448z" style="font-style:normal;font-variant:normal;font-weight:600;font-stretch:normal;font-size:70.7704px;font-family:'Waze Boing';-inkscape-font-specification:'Waze Boing, Semi-Bold';font-variant-ligatures:normal;font-variant-caps:normal;font-variant-numeric:normal;font-variant-east-asian:normal;fill:#fc0103;fill-opacity:1;stroke-width:.338397" transform="matrix(.89237 0 0 .87192 106.668 34.172)"/><path d="M269.421 238.637c-10.825 0-18.618 8.498-18.618 19.048 0 10.55 7.649 18.683 18.762 18.683 7.722 0 12.293-2.334 15.18-6.143 1.76-3.121-2.379-6.933-6.071-4.752-3.27 2.266-5.5 1.957-8.892 1.957-4.114 0-7.722-2.858-8.227-7.327h23.057c1.443 0 1.804-.806 1.804-1.685v-1.978c0-9.158-5.882-17.803-16.995-17.803zm7.794 14.872h-15.443c1.01-3.956 4.185-6.374 7.721-6.374 3.392 0 6.784 2.052 7.722 6.374z" style="font-style:normal;font-variant:normal;font-weight:600;font-stretch:normal;font-size:70.7704px;font-family:'Waze Boing';-inkscape-font-specification:'Waze Boing, Semi-Bold';font-variant-ligatures:normal;font-variant-caps:normal;font-variant-numeric:normal;font-variant-east-asian:normal;fill:#fc0103;fill-opacity:1;stroke-width:.378708" transform="matrix(.89237 0 0 .87192 106.668 34.172)"/><path d="M305.223 238.36c-9.477 0-15.354 5.148-15.354 11.692 0 5.808 3.894 9.411 9.697 10.588l5.878 1.25c3.38.661 5.142 1.396 5.142 3.161 0 1.544-1.616 3.015-4.922 3.015-3.526 0-7.184-.672-9.462-2.657-5.049-2.682-9.533 2.984-4.497 6.848 2.94 2.058 7.568 3.97 13.592 3.97 9.77 0 16.162-5.22 16.162-12.132 0-6.69-4.995-9.632-11.093-10.808l-5.657-1.103c-3.012-.588-4.114-1.544-4.114-2.941 0-1.47 1.837-2.647 4.628-2.647 3.012 0 5.555.315 7.759 1.786 4.423 2.613 8.958-2.96 4.843-6.476-2.204-1.986-5.475-3.545-12.602-3.545z" style="font-style:normal;font-variant:normal;font-weight:600;font-stretch:normal;font-size:70.7704px;font-family:'Waze Boing';-inkscape-font-specification:'Waze Boing, Semi-Bold';font-variant-ligatures:normal;font-variant-caps:normal;font-variant-numeric:normal;font-variant-east-asian:normal;fill:#fc0103;fill-opacity:1;stroke-width:.382793" transform="matrix(.89237 0 0 .87192 106.668 34.172)"/><path d="M145.977 238.637c-10.825 0-18.618 8.498-18.618 19.048 0 10.55 7.649 18.683 18.762 18.683 7.722 0 12.293-2.334 15.18-6.143 1.76-3.121-2.379-6.933-6.071-4.752-3.27 2.266-5.5 1.957-8.892 1.957-4.114 0-7.722-2.858-8.227-7.327h23.057c1.443 0 1.804-.806 1.804-1.685v-1.978c0-9.158-5.882-17.803-16.995-17.803zm7.794 14.872h-15.443c1.01-3.956 4.185-6.374 7.721-6.374 3.392 0 6.783 2.052 7.722 6.374z" style="font-style:normal;font-variant:normal;font-weight:600;font-stretch:normal;font-size:70.7704px;line-height:1.25;font-family:'Waze Boing';-inkscape-font-specification:'Waze Boing, Semi-Bold';font-variant-ligatures:normal;font-variant-caps:normal;font-variant-numeric:normal;font-variant-east-asian:normal;text-align:start;letter-spacing:0;word-spacing:0;writing-mode:lr-tb;text-anchor:start;fill:#fc0103;fill-opacity:1;stroke:none;stroke-width:.378708" transform="matrix(.89237 0 0 .87192 106.668 34.172)"/></g></svg>